SplineFontDB: 3.0
FontName: supermarket
FullName: supermarket
FamilyName: supermarket
Weight: Book
Copyright: Copyright (c) chatnarong jingsuohatada 2009. All rights reserved.
Version: 3.001 2007
ItalicAngle: 0
UnderlinePosition: -221
UnderlineWidth: 72
Ascent: 1400
Descent: 410
InvalidEm: 0
sfntRevision: 0x00030042
LayerCount: 2
Layer: 0 1 "Back" 1
Layer: 1 1 "Fore" 0
XUID: [1021 318 -2145553614 31776]
StyleMap: 0x0040
FSType: 8
OS2Version: 3
OS2_WeightWidthSlopeOnly: 0
OS2_UseTypoMetrics: 0
CreationTime: 1174588740
ModificationTime: 1564245968
PfmFamily: 17
TTFWeight: 400
TTFWidth: 5
LineGap: 205
VLineGap: 0
Panose: 2 0 0 0 0 0 0 0 0 0
OS2TypoAscent: 1163
OS2TypoAOffset: 0
OS2TypoDescent: -401
OS2TypoDOffset: 0
OS2TypoLinegap: 205
OS2WinAscent: 2500
OS2WinAOffset: 0
OS2WinDescent: 1000
OS2WinDOffset: 0
HheadAscent: 1163
HheadAOffset: 0
HheadDescent: -401
HheadDOffset: 0
OS2SubXSize: 1434
OS2SubYSize: 1331
OS2SubXOff: 0
OS2SubYOff: 283
OS2SupXSize: 1434
OS2SupYSize: 1331
OS2SupXOff: 0
OS2SupYOff: 977
OS2StrikeYSize: 72
OS2StrikeYPos: 520
OS2CapHeight: 1163
OS2XHeight: 1073
OS2Vendor: 'NP  '
OS2CodePages: 6001019f.dff70000
OS2UnicodeRanges: a10002af.500078fb.00000000.00000000
Lookup: 6 0 0 "'liga' Standard Ligatures in Latin lookup 0" { "'liga' Standard Ligatures in Latin lookup 0 contextual 0"  "'liga' Standard Ligatures in Latin lookup 0 contextual 1"  "'liga' Standard Ligatures in Latin lookup 0 contextual 2"  } ['liga' ('latn' <'dflt' > ) ]

StartChar: .notdef
Encoding: 65536 -1 0
Width: 1536
VWidth: 2048
Flags: W
LayerCount: 2
Fore
SplineSet
256 0 m 1,0,-1
 256 1280 l 1,1,-1
 1280 1280 l 1,2,-1
 1280 0 l 1,3,-1
 256 0 l 1,0,-1
1238 32 m 2,4,5
 1248 32 1248 32 1248 42 c 2,6,-1
 1248 1238 l 2,7,8
 1248 1248 1248 1248 1238 1248 c 2,9,-1
 298 1248 l 2,10,11
 288 1248 288 1248 288 1238 c 2,12,-1
 288 42 l 2,13,14
 288 32 288 32 298 32 c 2,15,-1
 1238 32 l 2,4,5
EndSplineSet
EndChar

StartChar: exclam
Encoding: 33 33 4
Width: 504
VWidth: 2048
Flags: W
LayerCount: 2
Fore
SplineSet
374 -205 m 0,0,1
 374 -257 374 -257 340 -292 c 0,2,3
 305 -327 305 -327 255 -327 c 0,4,5
 204 -327 204 -327 169 -292 c 0,6,7
 135 -257 135 -257 135 -205 c 0,8,9
 135 -154 135 -154 169 -120 c 0,10,11
 204 -85 204 -85 255 -85 c 0,12,13
 302 -85 302 -85 339 -120 c 0,14,15
 374 -155 374 -155 374 -205 c 0,0,1
324 0 m 1,16,-1
 189 0 l 1,17,-1
 133 1261 l 1,18,-1
 380 1261 l 1,19,-1
 324 0 l 1,16,-1
EndSplineSet
EndChar

StartChar: quotedbl
Encoding: 34 34 5
Width: 575
VWidth: 2048
Flags: W
LayerCount: 2
Fore
SplineSet
259 1201 m 1,0,-1
 236 804 l 1,1,-1
 123 804 l 1,2,-1
 99 1201 l 1,3,-1
 259 1201 l 1,0,-1
473 1201 m 1,4,-1
 450 804 l 1,5,-1
 337 804 l 1,6,-1
 313 1201 l 1,7,-1
 473 1201 l 1,4,-1
EndSplineSet
EndChar

StartChar: numbersign
Encoding: 35 35 6
Width: 1105
VWidth: 2048
Flags: W
LayerCount: 2
Fore
SplineSet
837 713 m 1,0,-1
 787 505 l 1,1,-1
 962 505 l 1,2,-1
 962 355 l 1,3,-1
 737 355 l 1,4,-1
 674 142 l 1,5,-1
 505 142 l 1,6,-1
 568 355 l 1,7,-1
 389 355 l 1,8,-1
 326 142 l 1,9,-1
 157 142 l 1,10,-1
 220 355 l 1,11,-1
 87 355 l 1,12,-1
 87 505 l 1,13,-1
 269 505 l 1,14,-1
 319 713 l 1,15,-1
 144 713 l 1,16,-1
 144 862 l 1,17,-1
 369 862 l 1,18,-1
 432 1074 l 1,19,-1
 601 1074 l 1,20,-1
 538 862 l 1,21,-1
 717 862 l 1,22,-1
 780 1074 l 1,23,-1
 949 1074 l 1,24,-1
 886 862 l 1,25,-1
 1019 862 l 1,26,-1
 1019 712 l 1,27,-1
 837 713 l 1,0,-1
668 713 m 1,28,-1
 488 713 l 1,29,-1
 438 505 l 1,30,-1
 618 505 l 1,31,-1
 668 713 l 1,28,-1
EndSplineSet
EndChar

StartChar: dollar
Encoding: 36 36 7
Width: 994
VWidth: 2048
Flags: W
LayerCount: 2
Fore
SplineSet
562 679 m 1,0,1
 619 653 619 653 675.5 623.5 c 128,-1,2
 732 594 732 594 777 552.5 c 128,-1,3
 822 511 822 511 850 453 c 128,-1,4
 878 395 878 395 878 312 c 2,5,-1
 878 303 l 2,6,7
 878 228 878 228 853.5 171.5 c 128,-1,8
 829 115 829 115 786.5 76 c 128,-1,9
 744 37 744 37 686.5 14.5 c 128,-1,10
 629 -8 629 -8 562 -15 c 1,11,-1
 562 -181 l 1,12,-1
 402 -181 l 1,13,-1
 402 -13 l 1,14,15
 318 -2 318 -2 258.5 23 c 128,-1,16
 199 48 199 48 160 74 c 0,17,18
 114 104 114 104 84 139 c 1,19,-1
 190 243 l 1,20,21
 220 214 220 214 276 185 c 128,-1,22
 332 156 332 156 402 142 c 1,23,-1
 402 564 l 1,24,25
 352 587 352 587 306 617 c 128,-1,26
 260 647 260 647 225 690.5 c 128,-1,27
 190 734 190 734 168.5 794 c 128,-1,28
 147 854 147 854 147 938 c 0,29,30
 147 1008 147 1008 167.5 1061.5 c 128,-1,31
 188 1115 188 1115 223 1152.5 c 128,-1,32
 258 1190 258 1190 304.5 1213 c 128,-1,33
 351 1236 351 1236 402 1247 c 1,34,-1
 402 1418 l 1,35,-1
 562 1418 l 1,36,-1
 562 1252 l 1,37,38
 615 1245 615 1245 658 1230.5 c 128,-1,39
 701 1216 701 1216 732 1201 c 0,40,41
 768 1183 768 1183 797 1163 c 2,42,-1
 879 1107 l 1,43,-1
 790 973 l 1,44,-1
 723 1017 l 2,45,46
 689 1040 689 1040 645 1057.5 c 128,-1,47
 601 1075 601 1075 562 1086 c 1,48,-1
 562 679 l 1,0,1
309 938 m 0,49,50
 309 878 309 878 334.5 837.5 c 128,-1,51
 360 797 360 797 402 765 c 1,52,-1
 402 1075 l 1,53,54
 360 1055 360 1055 334.5 1019.5 c 128,-1,55
 309 984 309 984 309 938 c 0,49,50
562 138 m 1,56,57
 634 153 634 153 674 197 c 128,-1,58
 714 241 714 241 714 303 c 0,59,60
 714 340 714 340 702.5 369 c 128,-1,61
 691 398 691 398 670.5 420.5 c 128,-1,62
 650 443 650 443 622 461 c 128,-1,63
 594 479 594 479 562 494 c 1,64,-1
 562 138 l 1,56,57
EndSplineSet
EndChar

StartChar: percent
Encoding: 37 37 8
Width: 1263
VWidth: 2048
Flags: W
LayerCount: 2
Fore
SplineSet
970 1330 m 1,0,-1
 439 -186 l 1,1,-1
 280 -186 l 1,2,-1
 810 1330 l 1,3,-1
 970 1330 l 1,0,-1
309 1075 m 256,4,5
 348 1075 348 1075 382 1060 c 128,-1,6
 416 1045 416 1045 441.5 1019.5 c 128,-1,7
 467 994 467 994 482 960 c 128,-1,8
 497 926 497 926 497 887 c 256,9,10
 497 848 497 848 482 814 c 128,-1,11
 467 780 467 780 441.5 754.5 c 128,-1,12
 416 729 416 729 382 714.5 c 128,-1,13
 348 700 348 700 309 700 c 256,14,15
 270 700 270 700 236 714.5 c 128,-1,16
 202 729 202 729 176.5 754.5 c 128,-1,17
 151 780 151 780 136.5 814 c 128,-1,18
 122 848 122 848 122 887 c 256,19,20
 122 926 122 926 136.5 960 c 128,-1,21
 151 994 151 994 176.5 1019.5 c 128,-1,22
 202 1045 202 1045 236 1060 c 128,-1,23
 270 1075 270 1075 309 1075 c 256,4,5
309 825 m 256,24,25
 335 825 335 825 353.5 843 c 128,-1,26
 372 861 372 861 372 887 c 0,27,28
 372 914 372 914 353.5 931.5 c 128,-1,29
 335 949 335 949 309 949 c 256,30,31
 283 949 283 949 265 931.5 c 128,-1,32
 247 914 247 914 247 887 c 0,33,34
 247 861 247 861 265 843 c 128,-1,35
 283 825 283 825 309 825 c 256,24,25
940 444 m 256,36,37
 979 444 979 444 1013 429.5 c 128,-1,38
 1047 415 1047 415 1072.5 389.5 c 128,-1,39
 1098 364 1098 364 1112.5 330 c 128,-1,40
 1127 296 1127 296 1127 257 c 256,41,42
 1127 218 1127 218 1112.5 184 c 128,-1,43
 1098 150 1098 150 1072.5 124.5 c 128,-1,44
 1047 99 1047 99 1013 84.5 c 128,-1,45
 979 70 979 70 940 70 c 256,46,47
 901 70 901 70 867 84.5 c 128,-1,48
 833 99 833 99 807.5 124.5 c 128,-1,49
 782 150 782 150 767.5 184 c 128,-1,50
 753 218 753 218 753 257 c 256,51,52
 753 296 753 296 767.5 330 c 128,-1,53
 782 364 782 364 807.5 389.5 c 128,-1,54
 833 415 833 415 867 429.5 c 128,-1,55
 901 444 901 444 940 444 c 256,36,37
940 195 m 256,56,57
 966 195 966 195 984.5 213 c 128,-1,58
 1003 231 1003 231 1003 257 c 256,59,60
 1003 283 1003 283 984.5 301 c 128,-1,61
 966 319 966 319 940 319 c 256,62,63
 914 319 914 319 896 301 c 128,-1,64
 878 283 878 283 878 257 c 256,65,66
 878 231 878 231 896 213 c 128,-1,67
 914 195 914 195 940 195 c 256,56,57
EndSplineSet
EndChar

StartChar: ampersand
Encoding: 38 38 9
Width: 1251
VWidth: 2048
Flags: W
LayerCount: 2
Fore
SplineSet
1008 -1 m 1,0,-1
 833 197 l 1,1,2
 812 176 812 176 788.5 155 c 128,-1,3
 765 134 765 134 742 114 c 256,4,5
 719 94 719 94 695 77.5 c 128,-1,6
 671 61 671 61 647 45 c 0,7,8
 623 30 623 30 598 18 c 128,-1,9
 573 6 573 6 546 -5 c 0,10,11
 520 -15 520 -15 494 -20.5 c 128,-1,12
 468 -26 468 -26 441 -28 c 0,13,14
 433 -29 433 -29 424 -29.5 c 128,-1,15
 415 -30 415 -30 407 -30 c 0,16,17
 360 -30 360 -30 311 -13 c 0,18,19
 280 -2 280 -2 251.5 13.5 c 128,-1,20
 223 29 223 29 199 50 c 256,21,22
 175 71 175 71 154.5 96 c 128,-1,23
 134 121 134 121 120 150 c 0,24,25
 90 208 90 208 82 277 c 0,26,27
 81 285 81 285 81 293 c 128,-1,28
 81 301 81 301 81 309 c 0,29,30
 81 337 81 337 85 363.5 c 128,-1,31
 89 390 89 390 99 415 c 0,32,33
 110 448 110 448 126 477.5 c 128,-1,34
 142 507 142 507 162 534 c 256,35,36
 182 561 182 561 206 586.5 c 128,-1,37
 230 612 230 612 257 635 c 0,38,39
 284 660 284 660 313 683.5 c 128,-1,40
 342 707 342 707 368 728 c 1,41,42
 343 754 343 754 321.5 780 c 128,-1,43
 300 806 300 806 283 835 c 0,44,45
 266 861 266 861 256 891.5 c 128,-1,46
 246 922 246 922 243 954 c 0,47,48
 239 1005 239 1005 257 1054 c 0,49,50
 274 1105 274 1105 304 1142 c 0,51,52
 321 1161 321 1161 340.5 1177 c 128,-1,53
 360 1193 360 1193 381 1204 c 0,54,55
 403 1216 403 1216 428 1223 c 128,-1,56
 453 1230 453 1230 479 1232 c 256,57,58
 505 1234 505 1234 530.5 1230.5 c 128,-1,59
 556 1227 556 1227 579 1219 c 256,60,61
 602 1211 602 1211 622.5 1198 c 128,-1,62
 643 1185 643 1185 660 1171 c 0,63,64
 676 1156 676 1156 691 1136.5 c 128,-1,65
 706 1117 706 1117 716 1096 c 0,66,67
 738 1051 738 1051 742 1004 c 0,68,69
 747 954 747 954 735 911 c 0,70,71
 728 890 728 890 720 870 c 128,-1,72
 712 850 712 850 699 833 c 0,73,74
 676 794 676 794 644 764 c 0,75,76
 627 747 627 747 609.5 730 c 128,-1,77
 592 713 592 713 575 698 c 1,78,-1
 830 409 l 1,79,-1
 961 560 l 1,80,-1
 1079 472 l 1,81,-1
 929 300 l 1,82,83
 992 228 992 228 1059.5 149.5 c 128,-1,84
 1127 71 1127 71 1190 -1 c 1,85,-1
 1008 -1 l 1,0,-1
431 584 m 1,86,-1
 385 548 l 2,87,88
 345 517 345 517 307 476 c 0,89,90
 290 457 290 457 275 436 c 128,-1,91
 260 415 260 415 249 394 c 0,92,93
 237 371 237 371 233 347 c 128,-1,94
 229 323 229 323 231 297 c 0,95,96
 240 217 240 217 295 160 c 0,97,98
 351 107 351 107 428 113 c 0,99,100
 466 117 466 117 505 133.5 c 128,-1,101
 544 150 544 150 581 177 c 0,102,103
 617 205 617 205 657.5 239.5 c 128,-1,104
 698 274 698 274 732 308 c 1,105,-1
 465 611 l 1,106,-1
 431 584 l 1,86,-1
594 992 m 1,107,108
 589 1034 589 1034 559 1063 c 0,109,110
 528 1090 528 1090 487 1088 c 1,111,112
 448 1082 448 1082 419 1046 c 0,113,114
 389 1009 389 1009 394 959 c 0,115,116
 396 941 396 941 404.5 921 c 128,-1,117
 413 901 413 901 426 883 c 0,118,119
 437 866 437 866 450.5 848.5 c 128,-1,120
 464 831 464 831 481 812 c 1,121,122
 501 831 501 831 521.5 851 c 128,-1,123
 542 871 542 871 561 891 c 0,124,125
 598 931 598 931 594 991 c 1,126,-1
 594 992 l 1,107,108
EndSplineSet
EndChar

StartChar: quotesingle
Encoding: 39 39 10
Width: 304
VWidth: 2048
Flags: W
LayerCount: 2
Fore
SplineSet
229 1201 m 1,0,-1
 206 804 l 1,1,-1
 93 804 l 1,2,-1
 69 1201 l 1,3,-1
 229 1201 l 1,0,-1
EndSplineSet
EndChar

StartChar: parenleft
Encoding: 40 40 11
Width: 667
VWidth: 2048
Flags: W
LayerCount: 2
Fore
SplineSet
597 -309 m 1,0,1
 505 -309 505 -309 419.5 -278 c 128,-1,2
 334 -247 334 -247 268.5 -191.5 c 128,-1,3
 203 -136 203 -136 163.5 -58 c 128,-1,4
 124 20 124 20 124 116 c 2,5,-1
 124 1114 l 2,6,7
 124 1211 124 1211 164 1284 c 128,-1,8
 204 1357 204 1357 270.5 1406.5 c 128,-1,9
 337 1456 337 1456 422 1481.5 c 128,-1,10
 507 1507 507 1507 597 1509 c 1,11,-1
 597 1359 l 1,12,13
 543 1359 543 1359 487.5 1344.5 c 128,-1,14
 432 1330 432 1330 387 1300 c 128,-1,15
 342 1270 342 1270 313 1223.5 c 128,-1,16
 284 1177 284 1177 284 1114 c 2,17,-1
 284 116 l 2,18,19
 284 53 284 53 313 2 c 128,-1,20
 342 -49 342 -49 387.5 -84.5 c 128,-1,21
 433 -120 433 -120 488.5 -139.5 c 128,-1,22
 544 -159 544 -159 597 -159 c 1,23,-1
 597 -309 l 1,0,1
EndSplineSet
EndChar

StartChar: parenright
Encoding: 41 41 12
Width: 708
VWidth: 2048
Flags: W
LayerCount: 2
Fore
SplineSet
101 -159 m 1,0,1
 154 -159 154 -159 209.5 -139.5 c 128,-1,2
 265 -120 265 -120 310.5 -84.5 c 128,-1,3
 356 -49 356 -49 385 2 c 128,-1,4
 414 53 414 53 414 116 c 2,5,-1
 414 1114 l 2,6,7
 414 1177 414 1177 385 1223.5 c 128,-1,8
 356 1270 356 1270 311 1300 c 128,-1,9
 266 1330 266 1330 210.5 1344.5 c 128,-1,10
 155 1359 155 1359 101 1359 c 1,11,-1
 101 1509 l 1,12,13
 191 1507 191 1507 276 1481.5 c 128,-1,14
 361 1456 361 1456 427.5 1406.5 c 128,-1,15
 494 1357 494 1357 534 1284 c 128,-1,16
 574 1211 574 1211 574 1114 c 2,17,-1
 574 116 l 2,18,19
 574 20 574 20 534.5 -58 c 128,-1,20
 495 -136 495 -136 429.5 -191.5 c 128,-1,21
 364 -247 364 -247 278.5 -278 c 128,-1,22
 193 -309 193 -309 101 -309 c 1,23,-1
 101 -159 l 1,0,1
EndSplineSet
EndChar

StartChar: asterisk
Encoding: 42 42 13
Width: 719
VWidth: 2048
Flags: W
LayerCount: 2
Fore
SplineSet
631 1006 m 1,0,-1
 505 1006 l 1,1,-1
 594 917 l 1,2,-1
 508 831 l 1,3,-1
 419 921 l 1,4,-1
 419 794 l 1,5,-1
 298 794 l 1,6,-1
 298 921 l 1,7,-1
 209 831 l 1,8,-1
 123 917 l 1,9,-1
 213 1006 l 1,10,-1
 86 1006 l 1,11,-1
 86 1127 l 1,12,-1
 213 1127 l 1,13,-1
 123 1216 l 1,14,-1
 209 1302 l 1,15,-1
 298 1213 l 1,16,-1
 298 1339 l 1,17,-1
 419 1339 l 1,18,-1
 419 1213 l 1,19,-1
 508 1302 l 1,20,-1
 594 1216 l 1,21,-1
 505 1127 l 1,22,-1
 631 1127 l 1,23,-1
 631 1006 l 1,0,-1
EndSplineSet
EndChar

StartChar: plus
Encoding: 43 43 14
Width: 1196
VWidth: 2048
Flags: W
LayerCount: 2
Fore
SplineSet
1052 460 m 1,0,-1
 693 460 l 1,1,-1
 693 101 l 1,2,-1
 533 101 l 1,3,-1
 533 460 l 1,4,-1
 174 460 l 1,5,-1
 174 620 l 1,6,-1
 533 620 l 1,7,-1
 533 979 l 1,8,-1
 693 979 l 1,9,-1
 693 620 l 1,10,-1
 1052 620 l 1,11,-1
 1052 460 l 1,0,-1
EndSplineSet
EndChar

StartChar: comma
Encoding: 44 44 15
Width: 357
VWidth: 2048
Flags: W
LayerCount: 2
Fore
SplineSet
157 134 m 1,0,-1
 301 134 l 1,1,-1
 194 -267 l 1,2,-1
 50 -267 l 1,3,-1
 157 134 l 1,0,-1
EndSplineSet
EndChar

StartChar: hyphen
Encoding: 45 45 16
Width: 829
VWidth: 2048
Flags: W
LayerCount: 2
Fore
SplineSet
742 620 m 1,0,-1
 742 470 l 1,1,-1
 67 470 l 1,2,-1
 67 620 l 1,3,-1
 742 620 l 1,0,-1
EndSplineSet
EndChar

StartChar: period
Encoding: 46 46 17
Width: 436
VWidth: 2048
Flags: W
LayerCount: 2
Fore
SplineSet
221 0 m 0,0,1
 198 0 198 0 178.5 8.5 c 128,-1,2
 159 17 159 17 144.5 31.5 c 128,-1,3
 130 46 130 46 121.5 65.5 c 128,-1,4
 113 85 113 85 113 108 c 0,5,6
 113 130 113 130 121.5 149.5 c 128,-1,7
 130 169 130 169 144.5 184 c 128,-1,8
 159 199 159 199 178.5 207.5 c 128,-1,9
 198 216 198 216 221 216 c 0,10,11
 243 216 243 216 262.5 207.5 c 128,-1,12
 282 199 282 199 297 184 c 128,-1,13
 312 169 312 169 320.5 149.5 c 128,-1,14
 329 130 329 130 329 108 c 0,15,16
 329 85 329 85 320.5 65.5 c 128,-1,17
 312 46 312 46 297 31.5 c 128,-1,18
 282 17 282 17 262.5 8.5 c 128,-1,19
 243 0 243 0 221 0 c 0,0,1
EndSplineSet
EndChar

StartChar: slash
Encoding: 47 47 18
Width: 1006
VWidth: 2048
Flags: W
LayerCount: 2
Fore
SplineSet
90 -349 m 1,0,-1
 737 1500 l 1,1,-1
 897 1500 l 1,2,-1
 250 -349 l 1,3,-1
 90 -349 l 1,0,-1
EndSplineSet
EndChar

StartChar: zero
Encoding: 48 48 19
Width: 998
VWidth: 2048
GlyphClass: 2
Flags: W
LayerCount: 2
Fore
SplineSet
501 1260 m 0,0,1
 577 1260 577 1260 635.5 1243.5 c 128,-1,2
 694 1227 694 1227 738 1199.5 c 128,-1,3
 782 1172 782 1172 813 1137.5 c 128,-1,4
 844 1103 844 1103 864 1067 c 0,5,6
 912 983 912 983 921 875 c 1,7,-1
 921 370 l 1,8,9
 912 261 912 261 864 177 c 0,10,11
 844 141 844 141 813 106.5 c 128,-1,12
 782 72 782 72 738 45 c 128,-1,13
 694 18 694 18 635.5 1.5 c 128,-1,14
 577 -15 577 -15 501 -15 c 0,15,16
 424 -15 424 -15 365.5 1.5 c 128,-1,17
 307 18 307 18 263 45 c 128,-1,18
 219 72 219 72 188.5 106.5 c 128,-1,19
 158 141 158 141 138 177 c 0,20,21
 90 261 90 261 81 370 c 1,22,-1
 81 875 l 1,23,24
 90 983 90 983 138 1067 c 0,25,26
 158 1103 158 1103 188.5 1137.5 c 128,-1,27
 219 1172 219 1172 263 1199.5 c 128,-1,28
 307 1227 307 1227 365.5 1243.5 c 128,-1,29
 424 1260 424 1260 501 1260 c 0,0,1
761 875 m 2,30,31
 761 917 761 917 750 949 c 128,-1,32
 739 981 739 981 720.5 1005 c 128,-1,33
 702 1029 702 1029 678.5 1045 c 128,-1,34
 655 1061 655 1061 631 1072 c 0,35,36
 574 1097 574 1097 501 1100 c 1,37,38
 428 1097 428 1097 371 1072 c 0,39,40
 347 1061 347 1061 323.5 1045 c 128,-1,41
 300 1029 300 1029 281.5 1005 c 128,-1,42
 263 981 263 981 252 949 c 128,-1,43
 241 917 241 917 241 875 c 2,44,-1
 241 370 l 2,45,46
 241 326 241 326 252 292 c 128,-1,47
 263 258 263 258 281.5 233.5 c 128,-1,48
 300 209 300 209 323.5 192 c 128,-1,49
 347 175 347 175 371 164 c 0,50,51
 428 138 428 138 501 135 c 1,52,53
 574 138 574 138 631 164 c 0,54,55
 655 175 655 175 678.5 192 c 128,-1,56
 702 209 702 209 720.5 233.5 c 128,-1,57
 739 258 739 258 750 292 c 128,-1,58
 761 326 761 326 761 370 c 2,59,-1
 761 875 l 2,30,31
EndSplineSet
EndChar

StartChar: one
Encoding: 49 49 20
Width: 613
VWidth: 2048
GlyphClass: 2
Flags: W
LayerCount: 2
Fore
SplineSet
509 1249 m 1,0,-1
 509 0 l 1,1,-1
 349 0 l 1,2,-1
 349 913 l 1,3,4
 303 880 303 880 239.5 858.5 c 128,-1,5
 176 837 176 837 88 834 c 1,6,-1
 88 994 l 1,7,8
 94 994 94 994 115.5 995 c 128,-1,9
 137 996 137 996 166 1003.5 c 128,-1,10
 195 1011 195 1011 227.5 1026 c 128,-1,11
 260 1041 260 1041 287 1069.5 c 128,-1,12
 314 1098 314 1098 331.5 1141.5 c 128,-1,13
 349 1185 349 1185 349 1249 c 1,14,-1
 509 1249 l 1,0,-1
EndSplineSet
EndChar

StartChar: two
Encoding: 50 50 21
Width: 916
VWidth: 2048
GlyphClass: 2
Flags: W
LayerCount: 2
Fore
SplineSet
745 703 m 0,0,1
 651 573 651 573 567 462 c 0,2,3
 531 415 531 415 494.5 367 c 128,-1,4
 458 319 458 319 425 276.5 c 128,-1,5
 392 234 392 234 364.5 201 c 128,-1,6
 337 168 337 168 319 150 c 1,7,-1
 804 150 l 1,8,-1
 804 0 l 1,9,-1
 87 0 l 1,10,-1
 87 150 l 1,11,12
 243 309 243 309 365 453 c 0,13,14
 417 514 417 514 467 578.5 c 128,-1,15
 517 643 517 643 556.5 702.5 c 128,-1,16
 596 762 596 762 620 814 c 128,-1,17
 644 866 644 866 644 902 c 0,18,19
 644 943 644 943 628.5 979 c 128,-1,20
 613 1015 613 1015 586 1042 c 128,-1,21
 559 1069 559 1069 523 1084.5 c 128,-1,22
 487 1100 487 1100 446 1100 c 256,23,24
 405 1100 405 1100 369 1084.5 c 128,-1,25
 333 1069 333 1069 306 1042 c 128,-1,26
 279 1015 279 1015 263.5 979 c 128,-1,27
 248 943 248 943 248 902 c 1,28,-1
 87 902 l 1,29,30
 87 976 87 976 115 1041.5 c 128,-1,31
 143 1107 143 1107 191.5 1155.5 c 128,-1,32
 240 1204 240 1204 305.5 1232 c 128,-1,33
 371 1260 371 1260 445 1260 c 0,34,35
 520 1260 520 1260 585 1232 c 128,-1,36
 650 1204 650 1204 699 1155.5 c 128,-1,37
 748 1107 748 1107 776 1041.5 c 128,-1,38
 804 976 804 976 804 902 c 0,39,40
 804 847 804 847 788.5 796.5 c 128,-1,41
 773 746 773 746 745 703 c 0,0,1
EndSplineSet
EndChar

StartChar: three
Encoding: 51 51 22
Width: 939
VWidth: 2048
GlyphClass: 2
Flags: W
LayerCount: 2
Fore
SplineSet
699 622 m 1,0,1
 760 573 760 573 796 501 c 128,-1,2
 832 429 832 429 832 344 c 0,3,4
 832 270 832 270 803.5 204.5 c 128,-1,5
 775 139 775 139 726.5 90 c 128,-1,6
 678 41 678 41 612.5 13 c 128,-1,7
 547 -15 547 -15 473 -15 c 256,8,9
 399 -15 399 -15 333.5 13 c 128,-1,10
 268 41 268 41 219 90 c 128,-1,11
 170 139 170 139 142 204.5 c 128,-1,12
 114 270 114 270 114 344 c 1,13,-1
 275 344 l 1,14,15
 275 303 275 303 290.5 267 c 128,-1,16
 306 231 306 231 333 204 c 128,-1,17
 360 177 360 177 396 161.5 c 128,-1,18
 432 146 432 146 473 146 c 256,19,20
 514 146 514 146 550 161.5 c 128,-1,21
 586 177 586 177 613 204 c 128,-1,22
 640 231 640 231 655.5 267 c 128,-1,23
 671 303 671 303 671 344 c 0,24,25
 671 384 671 384 656 419 c 128,-1,26
 641 454 641 454 614.5 480.5 c 128,-1,27
 588 507 588 507 551.5 523 c 128,-1,28
 515 539 515 539 473 542 c 1,29,-1
 473 703 l 1,30,31
 514 703 514 703 550 718.5 c 128,-1,32
 586 734 586 734 613 761 c 128,-1,33
 640 788 640 788 655.5 824 c 128,-1,34
 671 860 671 860 671 901 c 256,35,36
 671 942 671 942 655.5 978 c 128,-1,37
 640 1014 640 1014 613 1041 c 128,-1,38
 586 1068 586 1068 550 1083.5 c 128,-1,39
 514 1099 514 1099 473 1099 c 256,40,41
 432 1099 432 1099 396 1083.5 c 128,-1,42
 360 1068 360 1068 333 1041 c 128,-1,43
 306 1014 306 1014 290.5 978 c 128,-1,44
 275 942 275 942 275 901 c 1,45,-1
 114 901 l 1,46,47
 114 975 114 975 142 1040.5 c 128,-1,48
 170 1106 170 1106 218.5 1154.5 c 128,-1,49
 267 1203 267 1203 332.5 1231.5 c 128,-1,50
 398 1260 398 1260 472 1260 c 0,51,52
 547 1260 547 1260 612 1231.5 c 128,-1,53
 677 1203 677 1203 726 1154.5 c 128,-1,54
 775 1106 775 1106 803 1040.5 c 128,-1,55
 831 975 831 975 831 901 c 0,56,57
 831 816 831 816 795.5 744 c 128,-1,58
 760 672 760 672 699 622 c 1,0,1
EndSplineSet
EndChar

StartChar: four
Encoding: 52 52 23
Width: 1042
VWidth: 2048
GlyphClass: 2
Flags: W
LayerCount: 2
Fore
SplineSet
807 308 m 1,0,-1
 953 308 l 1,1,-1
 953 158 l 1,2,-1
 807 158 l 1,3,-1
 807 0 l 1,4,-1
 647 0 l 1,5,-1
 647 158 l 1,6,-1
 41 158 l 1,7,-1
 41 308 l 1,8,-1
 648 1250 l 1,9,-1
 807 1250 l 1,10,-1
 807 308 l 1,0,-1
234 308 m 1,11,-1
 648 308 l 1,12,-1
 648 956 l 1,13,-1
 234 308 l 1,11,-1
EndSplineSet
EndChar

StartChar: five
Encoding: 53 53 24
Width: 989
VWidth: 2048
GlyphClass: 2
Flags: W
LayerCount: 2
Fore
SplineSet
515 844 m 0,0,1
 591 844 591 844 649.5 827.5 c 128,-1,2
 708 811 708 811 752 783.5 c 128,-1,3
 796 756 796 756 827 721.5 c 128,-1,4
 858 687 858 687 878 651 c 0,5,6
 926 567 926 567 935 459 c 1,7,-1
 935 371 l 1,8,9
 926 262 926 262 878 178 c 0,10,11
 858 142 858 142 827 107 c 128,-1,12
 796 72 796 72 752 45 c 128,-1,13
 708 18 708 18 649.5 1.5 c 128,-1,14
 591 -15 591 -15 515 -15 c 0,15,16
 411 -15 411 -15 340 14.5 c 128,-1,17
 269 44 269 44 222.5 88 c 128,-1,18
 176 132 176 132 150 183 c 128,-1,19
 124 234 124 234 112 277 c 1,20,-1
 274 277 l 1,21,22
 297 227 297 227 337 200.5 c 128,-1,23
 377 174 377 174 417 162 c 0,24,25
 464 148 464 148 515 146 c 1,26,27
 588 149 588 149 645 174 c 0,28,29
 669 184 669 184 692.5 200.5 c 128,-1,30
 716 217 716 217 734.5 240.5 c 128,-1,31
 753 264 753 264 764 296.5 c 128,-1,32
 775 329 775 329 775 371 c 2,33,-1
 775 459 l 2,34,35
 775 503 775 503 764 536.5 c 128,-1,36
 753 570 753 570 734.5 595 c 128,-1,37
 716 620 716 620 692.5 637 c 128,-1,38
 669 654 669 654 645 665 c 0,39,40
 588 691 588 691 515 694 c 1,41,42
 448 691 448 691 393 668 c 0,43,44
 370 658 370 658 347 643 c 128,-1,45
 324 628 324 628 305 606.5 c 128,-1,46
 286 585 286 585 273 555.5 c 128,-1,47
 260 526 260 526 256 487 c 1,48,-1
 95 487 l 1,49,-1
 95 1251 l 1,50,-1
 845 1251 l 1,51,-1
 845 1091 l 1,52,-1
 255 1091 l 1,53,-1
 255 769 l 1,54,55
 301 802 301 802 364.5 823 c 128,-1,56
 428 844 428 844 515 844 c 0,0,1
EndSplineSet
EndChar

StartChar: six
Encoding: 54 54 25
Width: 1002
VWidth: 2048
GlyphClass: 2
Flags: W
LayerCount: 2
Fore
SplineSet
82 459 m 2,0,1
 83 478 83 478 87 500 c 0,2,3
 90 519 90 519 96.5 543.5 c 128,-1,4
 103 568 103 568 114 597 c 0,5,6
 116 601 116 601 118.5 607.5 c 128,-1,7
 121 614 121 614 130.5 634.5 c 128,-1,8
 140 655 140 655 158.5 695 c 128,-1,9
 177 735 177 735 209.5 806.5 c 128,-1,10
 242 878 242 878 292 986 c 128,-1,11
 342 1094 342 1094 414 1250 c 1,12,-1
 572 1250 l 1,13,-1
 380 830 l 1,14,15
 436 844 436 844 502 844 c 0,16,17
 578 844 578 844 637 827.5 c 128,-1,18
 696 811 696 811 740 783.5 c 128,-1,19
 784 756 784 756 814.5 721.5 c 128,-1,20
 845 687 845 687 865 651 c 0,21,22
 913 567 913 567 923 459 c 1,23,-1
 923 371 l 1,24,25
 913 262 913 262 865 178 c 0,26,27
 845 142 845 142 814.5 107 c 128,-1,28
 784 72 784 72 740 45 c 128,-1,29
 696 18 696 18 637 1.5 c 128,-1,30
 578 -15 578 -15 502 -15 c 0,31,32
 425 -15 425 -15 366.5 1.5 c 128,-1,33
 308 18 308 18 264 45 c 128,-1,34
 220 72 220 72 189.5 107 c 128,-1,35
 159 142 159 142 139 178 c 0,36,37
 91 262 91 262 82 371 c 1,38,-1
 82 459 l 2,0,1
763 459 m 2,39,40
 763 503 763 503 751.5 536.5 c 128,-1,41
 740 570 740 570 721.5 595 c 128,-1,42
 703 620 703 620 679.5 637 c 128,-1,43
 656 654 656 654 632 665 c 0,44,45
 575 691 575 691 502 694 c 1,46,47
 429 691 429 691 372 665 c 0,48,49
 348 654 348 654 324.5 637 c 128,-1,50
 301 620 301 620 282.5 595 c 128,-1,51
 264 570 264 570 253 536.5 c 128,-1,52
 242 503 242 503 242 459 c 2,53,-1
 242 371 l 2,54,55
 242 329 242 329 253 297 c 128,-1,56
 264 265 264 265 282.5 241.5 c 128,-1,57
 301 218 301 218 324.5 201.5 c 128,-1,58
 348 185 348 185 372 175 c 0,59,60
 429 150 429 150 502 147 c 1,61,62
 575 150 575 150 632 175 c 0,63,64
 656 185 656 185 679.5 201.5 c 128,-1,65
 703 218 703 218 721.5 241.5 c 128,-1,66
 740 265 740 265 751.5 297 c 128,-1,67
 763 329 763 329 763 371 c 2,68,-1
 763 459 l 2,39,40
EndSplineSet
EndChar

StartChar: seven
Encoding: 55 55 26
Width: 881
VWidth: 2048
GlyphClass: 2
Flags: W
LayerCount: 2
Fore
SplineSet
829 1251 m 1,0,-1
 829 1101 l 1,1,-1
 400 0 l 1,2,-1
 240 0 l 1,3,-1
 669 1101 l 1,4,-1
 53 1101 l 1,5,-1
 53 1251 l 1,6,-1
 829 1251 l 1,0,-1
EndSplineSet
EndChar

StartChar: eight
Encoding: 56 56 27
Width: 916
VWidth: 2048
GlyphClass: 2
Flags: W
LayerCount: 2
Fore
SplineSet
688 622 m 1,0,1
 749 573 749 573 785 501 c 128,-1,2
 821 429 821 429 821 344 c 0,3,4
 821 270 821 270 792.5 204.5 c 128,-1,5
 764 139 764 139 715.5 90 c 128,-1,6
 667 41 667 41 601.5 13 c 128,-1,7
 536 -15 536 -15 462 -15 c 256,8,9
 388 -15 388 -15 322.5 13 c 128,-1,10
 257 41 257 41 208 90 c 128,-1,11
 159 139 159 139 131 204.5 c 128,-1,12
 103 270 103 270 103 344 c 0,13,14
 103 429 103 429 139 501 c 128,-1,15
 175 573 175 573 235 622 c 1,16,17
 175 672 175 672 139 744 c 128,-1,18
 103 816 103 816 103 901 c 0,19,20
 103 975 103 975 131 1040.5 c 128,-1,21
 159 1106 159 1106 208 1154.5 c 128,-1,22
 257 1203 257 1203 322 1231.5 c 128,-1,23
 387 1260 387 1260 462 1260 c 0,24,25
 536 1260 536 1260 601.5 1231.5 c 128,-1,26
 667 1203 667 1203 715.5 1154.5 c 128,-1,27
 764 1106 764 1106 792 1040.5 c 128,-1,28
 820 975 820 975 820 901 c 0,29,30
 820 816 820 816 784.5 744 c 128,-1,31
 749 672 749 672 688 622 c 1,0,1
264 901 m 256,32,33
 264 860 264 860 279.5 824 c 128,-1,34
 295 788 295 788 322 761 c 128,-1,35
 349 734 349 734 385 718.5 c 128,-1,36
 421 703 421 703 462 703 c 256,37,38
 503 703 503 703 539 718.5 c 128,-1,39
 575 734 575 734 602 761 c 128,-1,40
 629 788 629 788 644.5 824 c 128,-1,41
 660 860 660 860 660 901 c 256,42,43
 660 942 660 942 644.5 978 c 128,-1,44
 629 1014 629 1014 602 1041 c 128,-1,45
 575 1068 575 1068 539 1083.5 c 128,-1,46
 503 1099 503 1099 462 1099 c 256,47,48
 421 1099 421 1099 385 1083.5 c 128,-1,49
 349 1068 349 1068 322 1041 c 128,-1,50
 295 1014 295 1014 279.5 978 c 128,-1,51
 264 942 264 942 264 901 c 256,32,33
462 146 m 256,52,53
 503 146 503 146 539.5 161.5 c 128,-1,54
 576 177 576 177 603 204 c 128,-1,55
 630 231 630 231 645.5 267 c 128,-1,56
 661 303 661 303 661 344 c 256,57,58
 661 385 661 385 645.5 421 c 128,-1,59
 630 457 630 457 603 484 c 128,-1,60
 576 511 576 511 539.5 526.5 c 128,-1,61
 503 542 503 542 462 542 c 256,62,63
 421 542 421 542 385 526.5 c 128,-1,64
 349 511 349 511 322 484 c 128,-1,65
 295 457 295 457 279.5 421 c 128,-1,66
 264 385 264 385 264 344 c 256,67,68
 264 303 264 303 279.5 267 c 128,-1,69
 295 231 295 231 322 204 c 128,-1,70
 349 177 349 177 385 161.5 c 128,-1,71
 421 146 421 146 462 146 c 256,52,53
EndSplineSet
EndChar

StartChar: nine
Encoding: 57 57 28
Width: 1032
VWidth: 2048
GlyphClass: 2
Flags: W
LayerCount: 2
Fore
SplineSet
941 786 m 2,0,1
 940 767 940 767 936 745 c 0,2,3
 933 726 933 726 927 701 c 128,-1,4
 921 676 921 676 910 648 c 0,5,6
 908 644 908 644 905.5 638 c 128,-1,7
 903 632 903 632 893.5 612 c 128,-1,8
 884 592 884 592 865.5 552.5 c 128,-1,9
 847 513 847 513 814 442 c 128,-1,10
 781 371 781 371 731.5 263.5 c 128,-1,11
 682 156 682 156 610 0 c 1,12,-1
 452 0 l 1,13,-1
 644 415 l 1,14,15
 588 401 588 401 522 401 c 0,16,17
 445 401 445 401 386.5 417.5 c 128,-1,18
 328 434 328 434 284 461 c 128,-1,19
 240 488 240 488 209 522.5 c 128,-1,20
 178 557 178 557 158 593 c 0,21,22
 110 677 110 677 101 786 c 1,23,-1
 101 874 l 1,24,25
 110 982 110 982 158 1067 c 0,26,27
 178 1103 178 1103 209 1137.5 c 128,-1,28
 240 1172 240 1172 284 1199.5 c 128,-1,29
 328 1227 328 1227 386.5 1243.5 c 128,-1,30
 445 1260 445 1260 522 1260 c 0,31,32
 598 1260 598 1260 656.5 1243.5 c 128,-1,33
 715 1227 715 1227 759 1199.5 c 128,-1,34
 803 1172 803 1172 833.5 1137.5 c 128,-1,35
 864 1103 864 1103 884 1067 c 0,36,37
 932 982 932 982 941 874 c 1,38,-1
 941 786 l 2,0,1
261 786 m 2,39,40
 261 742 261 742 272 708 c 128,-1,41
 283 674 283 674 301.5 649.5 c 128,-1,42
 320 625 320 625 343.5 608 c 128,-1,43
 367 591 367 591 391 580 c 0,44,45
 448 554 448 554 522 551 c 1,46,47
 595 554 595 554 652 580 c 0,48,49
 676 591 676 591 699.5 608 c 128,-1,50
 723 625 723 625 741.5 649.5 c 128,-1,51
 760 674 760 674 771 708 c 128,-1,52
 782 742 782 742 782 786 c 2,53,-1
 782 874 l 2,54,55
 782 916 782 916 771 948 c 128,-1,56
 760 980 760 980 741.5 1004 c 128,-1,57
 723 1028 723 1028 699.5 1044 c 128,-1,58
 676 1060 676 1060 652 1071 c 0,59,60
 595 1096 595 1096 522 1099 c 1,61,62
 448 1096 448 1096 391 1071 c 0,63,64
 367 1060 367 1060 343.5 1044 c 128,-1,65
 320 1028 320 1028 301.5 1004 c 128,-1,66
 283 980 283 980 272 948 c 128,-1,67
 261 916 261 916 261 874 c 2,68,-1
 261 786 l 2,39,40
EndSplineSet
EndChar

StartChar: colon
Encoding: 58 58 29
Width: 367
VWidth: 2048
Flags: W
LayerCount: 2
Fore
SplineSet
188 784 m 0,0,1
 165 784 165 784 145.5 792.5 c 128,-1,2
 126 801 126 801 111.5 816 c 128,-1,3
 97 831 97 831 88.5 850.5 c 128,-1,4
 80 870 80 870 80 892 c 256,5,6
 80 914 80 914 88.5 934 c 128,-1,7
 97 954 97 954 111.5 968.5 c 128,-1,8
 126 983 126 983 145.5 991.5 c 128,-1,9
 165 1000 165 1000 188 1000 c 0,10,11
 210 1000 210 1000 229.5 991.5 c 128,-1,12
 249 983 249 983 264 968.5 c 128,-1,13
 279 954 279 954 287.5 934 c 128,-1,14
 296 914 296 914 296 892 c 256,15,16
 296 870 296 870 287.5 850.5 c 128,-1,17
 279 831 279 831 264 816 c 128,-1,18
 249 801 249 801 229.5 792.5 c 128,-1,19
 210 784 210 784 188 784 c 0,0,1
183 352 m 0,20,21
 205 352 205 352 225 343.5 c 128,-1,22
 245 335 245 335 259.5 320.5 c 128,-1,23
 274 306 274 306 282.5 286 c 128,-1,24
 291 266 291 266 291 244 c 256,25,26
 291 222 291 222 282.5 202.5 c 128,-1,27
 274 183 274 183 259.5 168 c 128,-1,28
 245 153 245 153 225 144.5 c 128,-1,29
 205 136 205 136 183 136 c 0,30,31
 160 136 160 136 140.5 144.5 c 128,-1,32
 121 153 121 153 106.5 168 c 128,-1,33
 92 183 92 183 83.5 202.5 c 128,-1,34
 75 222 75 222 75 244 c 256,35,36
 75 266 75 266 83.5 286 c 128,-1,37
 92 306 92 306 106.5 320.5 c 128,-1,38
 121 335 121 335 140.5 343.5 c 128,-1,39
 160 352 160 352 183 352 c 0,20,21
EndSplineSet
EndChar

StartChar: semicolon
Encoding: 59 59 30
Width: 375
VWidth: 2048
Flags: W
LayerCount: 2
Fore
SplineSet
199 784 m 256,0,1
 177 784 177 784 157.5 792.5 c 128,-1,2
 138 801 138 801 123 815.5 c 128,-1,3
 108 830 108 830 99.5 849.5 c 128,-1,4
 91 869 91 869 91 892 c 0,5,6
 91 914 91 914 99.5 933.5 c 128,-1,7
 108 953 108 953 123 968 c 128,-1,8
 138 983 138 983 157.5 991.5 c 128,-1,9
 177 1000 177 1000 199 1000 c 256,10,11
 221 1000 221 1000 241 991.5 c 128,-1,12
 261 983 261 983 276 968 c 128,-1,13
 291 953 291 953 299.5 933.5 c 128,-1,14
 308 914 308 914 308 892 c 0,15,16
 308 869 308 869 299.5 849.5 c 128,-1,17
 291 830 291 830 276 815.5 c 128,-1,18
 261 801 261 801 241 792.5 c 128,-1,19
 221 784 221 784 199 784 c 256,0,1
65 -12 m 0,20,21
 62 -1 62 -1 64 6 c 128,-1,22
 66 13 66 13 70 18 c 256,23,24
 74 23 74 23 80 27 c 0,25,26
 121 47 121 47 145 66 c 128,-1,27
 169 85 169 85 181 100 c 128,-1,28
 193 115 193 115 196.5 125.5 c 128,-1,29
 200 136 200 136 200 138 c 1,30,31
 177 138 177 138 157.5 146.5 c 128,-1,32
 138 155 138 155 123 169.5 c 128,-1,33
 108 184 108 184 99.5 203.5 c 128,-1,34
 91 223 91 223 91 245 c 256,35,36
 91 267 91 267 99.5 286.5 c 128,-1,37
 108 306 108 306 123 320.5 c 128,-1,38
 138 335 138 335 157.5 343.5 c 128,-1,39
 177 352 177 352 200 352 c 0,40,41
 222 352 222 352 242 343.5 c 128,-1,42
 262 335 262 335 276.5 320.5 c 128,-1,43
 291 306 291 306 299.5 286.5 c 128,-1,44
 308 267 308 267 309 245 c 0,45,46
 310 193 310 193 296.5 152.5 c 128,-1,47
 283 112 283 112 261 81.5 c 128,-1,48
 239 51 239 51 212 30 c 128,-1,49
 185 9 185 9 160.5 -5 c 128,-1,50
 136 -19 136 -19 117.5 -25.5 c 128,-1,51
 99 -32 99 -32 93 -34 c 0,52,53
 84 -37 84 -37 78.5 -34 c 128,-1,54
 73 -31 73 -31 70 -26 c 0,55,56
 66 -21 66 -21 65 -12 c 0,20,21
EndSplineSet
EndChar

StartChar: less
Encoding: 60 60 31
Width: 1166
VWidth: 2048
Flags: W
LayerCount: 2
Fore
SplineSet
1054 117 m 1,0,-1
 113 442 l 1,1,-1
 113 727 l 1,2,-1
 1054 1053 l 1,3,-1
 1054 878 l 1,4,-1
 234 586 l 1,5,-1
 1054 290 l 1,6,-1
 1054 117 l 1,0,-1
EndSplineSet
EndChar

StartChar: equal
Encoding: 61 61 32
Width: 912
VWidth: 2048
Flags: W
LayerCount: 2
Fore
SplineSet
93 462 m 1,0,-1
 809 462 l 1,1,-1
 809 312 l 1,2,-1
 93 312 l 1,3,-1
 93 462 l 1,0,-1
93 782 m 1,4,-1
 809 782 l 1,5,-1
 809 632 l 1,6,-1
 93 632 l 1,7,-1
 93 782 l 1,4,-1
EndSplineSet
EndChar

StartChar: greater
Encoding: 62 62 33
Width: 1116
VWidth: 2048
Flags: W
LayerCount: 2
Fore
SplineSet
98 290 m 1,0,-1
 918 586 l 1,1,-1
 98 878 l 1,2,-1
 98 1053 l 1,3,-1
 1039 727 l 1,4,-1
 1039 442 l 1,5,-1
 98 117 l 1,6,-1
 98 290 l 1,0,-1
EndSplineSet
EndChar

StartChar: question
Encoding: 63 63 34
Width: 812
VWidth: 2048
Flags: W
LayerCount: 2
Fore
SplineSet
574 121 m 256,0,1
 574 69 574 69 539 34 c 0,2,3
 505 0 505 0 455 0 c 0,4,5
 404 0 404 0 369 35 c 0,6,7
 335 69 335 69 335 121 c 256,8,9
 335 173 335 173 369 206 c 0,10,11
 405 242 405 242 455 242 c 0,12,13
 501 242 501 242 539 206 c 0,14,15
 574 173 574 173 574 121 c 256,0,1
373 321 m 1,16,-1
 373 588 l 2,17,18
 373 626 373 626 381.5 658.5 c 128,-1,19
 390 691 390 691 405.5 719.5 c 128,-1,20
 421 748 421 748 442.5 774 c 128,-1,21
 464 800 464 800 489 825 c 256,22,23
 514 850 514 850 529 870 c 128,-1,24
 544 890 544 890 552 907 c 128,-1,25
 560 924 560 924 562.5 940 c 128,-1,26
 565 956 565 956 565 973 c 0,27,28
 565 1014 565 1014 551.5 1044.5 c 128,-1,29
 538 1075 538 1075 514.5 1095.5 c 128,-1,30
 491 1116 491 1116 460 1126 c 128,-1,31
 429 1136 429 1136 395 1136 c 0,32,33
 331 1136 331 1136 296.5 1124 c 128,-1,34
 262 1112 262 1112 246 1098 c 0,35,36
 228 1081 228 1081 225 1061 c 1,37,-1
 89 1061 l 2,38,39
 88 1062 88 1062 88 1064 c 0,40,41
 87 1066 87 1066 87 1073 c 0,42,43
 87 1084 87 1084 90 1104.5 c 128,-1,44
 93 1125 93 1125 103 1148.5 c 128,-1,45
 113 1172 113 1172 133 1196.5 c 128,-1,46
 153 1221 153 1221 187.5 1241 c 128,-1,47
 222 1261 222 1261 272.5 1273.5 c 128,-1,48
 323 1286 323 1286 395 1286 c 0,49,50
 470 1286 470 1286 522.5 1269.5 c 128,-1,51
 575 1253 575 1253 610 1226.5 c 128,-1,52
 645 1200 645 1200 665.5 1167 c 128,-1,53
 686 1134 686 1134 696 1101 c 128,-1,54
 706 1068 706 1068 708.5 1039 c 128,-1,55
 711 1010 711 1010 711 991 c 2,56,-1
 711 972 l 2,57,58
 711 950 711 950 707 926.5 c 128,-1,59
 703 903 703 903 692 876 c 128,-1,60
 681 849 681 849 661 817.5 c 128,-1,61
 641 786 641 786 610 748 c 0,62,63
 581 713 581 713 566 683.5 c 128,-1,64
 551 654 551 654 543 633 c 0,65,66
 534 608 534 608 533 588 c 2,67,-1
 533 321 l 1,68,-1
 373 321 l 1,16,-1
EndSplineSet
EndChar

StartChar: at
Encoding: 64 64 35
Width: 1437
VWidth: 2048
Flags: W
LayerCount: 2
Fore
SplineSet
936 428 m 2,0,1
 933 418 933 418 931 408.5 c 128,-1,2
 929 399 929 399 929 391 c 0,3,4
 929 362 929 362 966 362 c 0,5,6
 999 362 999 362 1033 387 c 128,-1,7
 1067 412 1067 412 1094.5 454 c 128,-1,8
 1122 496 1122 496 1140 552.5 c 128,-1,9
 1158 609 1158 609 1158 672 c 0,10,11
 1158 766 1158 766 1124 839 c 128,-1,12
 1090 912 1090 912 1032.5 962 c 128,-1,13
 975 1012 975 1012 898.5 1038 c 128,-1,14
 822 1064 822 1064 738 1064 c 0,15,16
 636 1064 636 1064 550 1026 c 128,-1,17
 464 988 464 988 401.5 921.5 c 128,-1,18
 339 855 339 855 304 764.5 c 128,-1,19
 269 674 269 674 269 570 c 0,20,21
 269 465 269 465 306 375.5 c 128,-1,22
 343 286 343 286 407.5 221.5 c 128,-1,23
 472 157 472 157 559 120.5 c 128,-1,24
 646 84 646 84 747 84 c 0,25,26
 804 84 804 84 859 95 c 128,-1,27
 914 106 914 106 962.5 127 c 128,-1,28
 1011 148 1011 148 1052.5 178.5 c 128,-1,29
 1094 209 1094 209 1124 248 c 1,30,-1
 1274 248 l 1,31,32
 1237 182 1237 182 1179.5 128 c 128,-1,33
 1122 74 1122 74 1051.5 36 c 128,-1,34
 981 -2 981 -2 902 -23 c 128,-1,35
 823 -44 823 -44 743 -44 c 0,36,37
 611 -44 611 -44 497.5 4 c 128,-1,38
 384 52 384 52 300.5 136 c 128,-1,39
 217 220 217 220 169 333 c 128,-1,40
 121 446 121 446 121 576 c 0,41,42
 121 704 121 704 170 816 c 128,-1,43
 219 928 219 928 303 1011.5 c 128,-1,44
 387 1095 387 1095 499 1143.5 c 128,-1,45
 611 1192 611 1192 738 1192 c 0,46,47
 853 1192 853 1192 956.5 1154 c 128,-1,48
 1060 1116 1060 1116 1137 1048.5 c 128,-1,49
 1214 981 1214 981 1259.5 888 c 128,-1,50
 1305 795 1305 795 1305 685 c 0,51,52
 1305 614 1305 614 1287 551.5 c 128,-1,53
 1269 489 1269 489 1238 436.5 c 128,-1,54
 1207 384 1207 384 1167 342.5 c 128,-1,55
 1127 301 1127 301 1083.5 272.5 c 128,-1,56
 1040 244 1040 244 995 228.5 c 128,-1,57
 950 213 950 213 911 213 c 0,58,59
 868 213 868 213 836 239 c 128,-1,60
 804 265 804 265 799 312 c 1,61,62
 780 294 780 294 757.5 276 c 128,-1,63
 735 258 735 258 709.5 244 c 128,-1,64
 684 230 684 230 656.5 221.5 c 128,-1,65
 629 213 629 213 600 213 c 0,66,67
 546 213 546 213 502.5 234 c 128,-1,68
 459 255 459 255 428.5 291 c 128,-1,69
 398 327 398 327 381.5 376 c 128,-1,70
 365 425 365 425 365 481 c 0,71,72
 365 563 365 563 391.5 642.5 c 128,-1,73
 418 722 418 722 467 785 c 128,-1,74
 516 848 516 848 585 886.5 c 128,-1,75
 654 925 654 925 740 925 c 0,76,77
 795 925 795 925 842.5 899.5 c 128,-1,78
 890 874 890 874 916 816 c 1,79,-1
 937 894 l 1,80,-1
 1078 894 l 1,81,-1
 936 428 l 2,0,1
522 482 m 0,82,83
 522 426 522 426 547 394 c 128,-1,84
 572 362 572 362 628 362 c 0,85,86
 676 362 676 362 715 389 c 128,-1,87
 754 416 754 416 782.5 457.5 c 128,-1,88
 811 499 811 499 826.5 548.5 c 128,-1,89
 842 598 842 598 842 644 c 0,90,91
 842 671 842 671 836 695 c 128,-1,92
 830 719 830 719 818.5 737.5 c 128,-1,93
 807 756 807 756 789.5 767 c 128,-1,94
 772 778 772 778 748 778 c 0,95,96
 693 778 693 778 651 753.5 c 128,-1,97
 609 729 609 729 580.5 687.5 c 128,-1,98
 552 646 552 646 537 592.5 c 128,-1,99
 522 539 522 539 522 482 c 0,82,83
EndSplineSet
EndChar

StartChar: A
Encoding: 65 65 36
Width: 1031
VWidth: 2048
GlyphClass: 2
Flags: W
LayerCount: 2
Fore
SplineSet
511 1260 m 0,0,1
 587 1260 587 1260 645.5 1243.5 c 128,-1,2
 704 1227 704 1227 748 1199.5 c 128,-1,3
 792 1172 792 1172 823 1137.5 c 128,-1,4
 854 1103 854 1103 874 1067 c 0,5,6
 922 983 922 983 931 875 c 1,7,-1
 931 0 l 1,8,-1
 771 0 l 1,9,-1
 771 531 l 1,10,-1
 251 531 l 1,11,-1
 251 0 l 1,12,-1
 91 0 l 1,13,-1
 91 875 l 1,14,15
 100 983 100 983 148 1067 c 0,16,17
 168 1103 168 1103 198.5 1137.5 c 128,-1,18
 229 1172 229 1172 273 1199.5 c 128,-1,19
 317 1227 317 1227 375.5 1243.5 c 128,-1,20
 434 1260 434 1260 511 1260 c 0,0,1
771 681 m 1,21,-1
 771 875 l 2,22,23
 771 917 771 917 760 949 c 128,-1,24
 749 981 749 981 730.5 1005 c 128,-1,25
 712 1029 712 1029 688.5 1045 c 128,-1,26
 665 1061 665 1061 641 1072 c 0,27,28
 584 1097 584 1097 511 1100 c 1,29,30
 438 1097 438 1097 381 1072 c 0,31,32
 357 1061 357 1061 333.5 1045 c 128,-1,33
 310 1029 310 1029 291.5 1005 c 128,-1,34
 273 981 273 981 262 949 c 128,-1,35
 251 917 251 917 251 875 c 2,36,-1
 251 681 l 1,37,-1
 771 681 l 1,21,-1
EndSplineSet
EndChar

StartChar: B
Encoding: 66 66 37
Width: 993
VWidth: 2048
GlyphClass: 2
Flags: W
LayerCount: 2
Fore
SplineSet
793 618 m 1,0,1
 854 569 854 569 890 506.5 c 128,-1,2
 926 444 926 444 926 359 c 0,3,4
 926 285 926 285 897.5 219.5 c 128,-1,5
 869 154 869 154 819.5 105 c 128,-1,6
 770 56 770 56 704.5 28 c 128,-1,7
 639 0 639 0 566 0 c 2,8,-1
 85 0 l 1,9,-1
 85 1240 l 1,10,-1
 566 1240 l 2,11,12
 641 1240 641 1240 706 1213.5 c 128,-1,13
 771 1187 771 1187 820 1140.5 c 128,-1,14
 869 1094 869 1094 897 1030 c 128,-1,15
 925 966 925 966 925 892 c 0,16,17
 925 808 925 808 889.5 738.5 c 128,-1,18
 854 669 854 669 793 618 c 1,0,1
567 150 m 2,19,20
 608 150 608 150 644 167.5 c 128,-1,21
 680 185 680 185 707 214 c 128,-1,22
 734 243 734 243 749.5 280.5 c 128,-1,23
 765 318 765 318 765 359 c 0,24,25
 765 399 765 399 750 433 c 128,-1,26
 735 467 735 467 708.5 492.5 c 128,-1,27
 682 518 682 518 645.5 533 c 128,-1,28
 609 548 609 548 567 551 c 2,29,-1
 245 551 l 1,30,-1
 245 150 l 1,31,-1
 567 150 l 2,19,20
567 696 m 2,32,33
 608 696 608 696 644 711 c 128,-1,34
 680 726 680 726 707 752.5 c 128,-1,35
 734 779 734 779 749.5 815 c 128,-1,36
 765 851 765 851 765 892 c 256,37,38
 765 933 765 933 749 969 c 128,-1,39
 733 1005 733 1005 706 1032 c 128,-1,40
 679 1059 679 1059 643 1074.5 c 128,-1,41
 607 1090 607 1090 566 1090 c 2,42,-1
 245 1090 l 1,43,-1
 245 696 l 1,44,-1
 567 696 l 2,32,33
EndSplineSet
EndChar

StartChar: C
Encoding: 67 67 38
Width: 1024
VWidth: 2048
GlyphClass: 2
Flags: W
LayerCount: 2
Fore
SplineSet
934 397 m 1,0,-1
 934 369 l 1,1,2
 925 261 925 261 877 177 c 0,3,4
 857 141 857 141 826 106.5 c 128,-1,5
 795 72 795 72 751 45 c 128,-1,6
 707 18 707 18 648.5 1.5 c 128,-1,7
 590 -15 590 -15 514 -15 c 0,8,9
 437 -15 437 -15 378.5 1.5 c 128,-1,10
 320 18 320 18 276 45 c 128,-1,11
 232 72 232 72 201.5 106.5 c 128,-1,12
 171 141 171 141 151 177 c 0,13,14
 103 261 103 261 94 369 c 1,15,-1
 94 874 l 1,16,17
 103 982 103 982 151 1067 c 0,18,19
 171 1103 171 1103 201.5 1137.5 c 128,-1,20
 232 1172 232 1172 276 1199.5 c 128,-1,21
 320 1227 320 1227 378.5 1243.5 c 128,-1,22
 437 1260 437 1260 514 1260 c 0,23,24
 590 1260 590 1260 648.5 1243.5 c 128,-1,25
 707 1227 707 1227 751 1199.5 c 128,-1,26
 795 1172 795 1172 826 1137.5 c 128,-1,27
 857 1103 857 1103 877 1067 c 0,28,29
 925 982 925 982 934 874 c 1,30,-1
 934 847 l 1,31,-1
 774 847 l 1,32,-1
 774 874 l 2,33,34
 774 916 774 916 763 948.5 c 128,-1,35
 752 981 752 981 733.5 1005 c 128,-1,36
 715 1029 715 1029 691.5 1045 c 128,-1,37
 668 1061 668 1061 644 1072 c 0,38,39
 587 1097 587 1097 514 1100 c 1,40,41
 441 1097 441 1097 384 1072 c 0,42,43
 360 1061 360 1061 336.5 1045 c 128,-1,44
 313 1029 313 1029 294.5 1005 c 128,-1,45
 276 981 276 981 265 948.5 c 128,-1,46
 254 916 254 916 254 874 c 2,47,-1
 254 369 l 2,48,49
 254 325 254 325 265 291.5 c 128,-1,50
 276 258 276 258 294.5 233.5 c 128,-1,51
 313 209 313 209 336.5 192 c 128,-1,52
 360 175 360 175 384 164 c 0,53,54
 441 138 441 138 514 135 c 1,55,56
 587 138 587 138 644 164 c 0,57,58
 668 175 668 175 691.5 192 c 128,-1,59
 715 209 715 209 733.5 233.5 c 128,-1,60
 752 258 752 258 763 291.5 c 128,-1,61
 774 325 774 325 774 369 c 2,62,-1
 774 397 l 1,63,-1
 934 397 l 1,0,-1
EndSplineSet
EndChar

StartChar: D
Encoding: 68 68 39
Width: 966
VWidth: 2048
GlyphClass: 2
Flags: W
LayerCount: 2
Fore
SplineSet
96 0 m 1,0,-1
 96 1240 l 1,1,-1
 514 1240 l 2,2,3
 590 1240 590 1240 648.5 1223.5 c 128,-1,4
 707 1207 707 1207 751 1180 c 128,-1,5
 795 1153 795 1153 826 1118.5 c 128,-1,6
 857 1084 857 1084 877 1048 c 0,7,8
 925 964 925 964 934 856 c 1,9,-1
 934 384 l 1,10,11
 925 276 925 276 877 192 c 0,12,13
 857 156 857 156 826 121.5 c 128,-1,14
 795 87 795 87 751 60 c 128,-1,15
 707 33 707 33 648.5 16.5 c 128,-1,16
 590 0 590 0 514 0 c 2,17,-1
 96 0 l 1,0,-1
256 1090 m 1,18,-1
 256 150 l 1,19,-1
 514 150 l 2,20,21
 587 153 587 153 644 179 c 0,22,23
 668 190 668 190 691.5 207 c 128,-1,24
 715 224 715 224 733.5 248.5 c 128,-1,25
 752 273 752 273 763 306.5 c 128,-1,26
 774 340 774 340 774 384 c 2,27,-1
 774 856 l 2,28,29
 774 900 774 900 763 933.5 c 128,-1,30
 752 967 752 967 733.5 991.5 c 128,-1,31
 715 1016 715 1016 691.5 1033 c 128,-1,32
 668 1050 668 1050 644 1061 c 0,33,34
 587 1087 587 1087 514 1090 c 2,35,-1
 256 1090 l 1,18,-1
EndSplineSet
EndChar

StartChar: E
Encoding: 69 69 40
Width: 939
VWidth: 2048
GlyphClass: 2
Flags: W
LayerCount: 2
Fore
SplineSet
259 1090 m 1,0,-1
 259 659 l 1,1,-1
 751 659 l 1,2,-1
 751 509 l 1,3,-1
 259 509 l 1,4,-1
 259 150 l 1,5,-1
 920 150 l 1,6,-1
 920 0 l 1,7,-1
 99 0 l 1,8,-1
 99 1240 l 1,9,-1
 920 1240 l 1,10,-1
 920 1090 l 1,11,-1
 259 1090 l 1,0,-1
EndSplineSet
EndChar

StartChar: F
Encoding: 70 70 41
Width: 927
VWidth: 2048
GlyphClass: 2
Flags: W
LayerCount: 2
Fore
SplineSet
249 0 m 1,0,-1
 89 0 l 1,1,-1
 89 1240 l 1,2,-1
 910 1240 l 1,3,-1
 910 1090 l 1,4,-1
 249 1090 l 1,5,-1
 249 659 l 1,6,-1
 741 659 l 1,7,-1
 741 509 l 1,8,-1
 249 509 l 1,9,-1
 249 0 l 1,0,-1
EndSplineSet
EndChar

StartChar: G
Encoding: 71 71 42
Width: 1093
VWidth: 2048
GlyphClass: 2
Flags: W
LayerCount: 2
Fore
SplineSet
824 847 m 1,0,-1
 824 874 l 2,1,2
 824 916 824 916 813 948 c 128,-1,3
 802 980 802 980 783.5 1004 c 128,-1,4
 765 1028 765 1028 741.5 1044 c 128,-1,5
 718 1060 718 1060 694 1071 c 0,6,7
 637 1096 637 1096 564 1099 c 1,8,9
 491 1096 491 1096 434 1071 c 0,10,11
 410 1060 410 1060 386.5 1044 c 128,-1,12
 363 1028 363 1028 344.5 1004 c 128,-1,13
 326 980 326 980 315 948 c 128,-1,14
 304 916 304 916 304 874 c 2,15,-1
 304 369 l 2,16,17
 304 325 304 325 315 291.5 c 128,-1,18
 326 258 326 258 344.5 233.5 c 128,-1,19
 363 209 363 209 386.5 192 c 128,-1,20
 410 175 410 175 434 164 c 0,21,22
 491 138 491 138 564 135 c 1,23,24
 637 138 637 138 694 164 c 0,25,26
 718 175 718 175 741.5 192 c 128,-1,27
 765 209 765 209 783.5 233.5 c 128,-1,28
 802 258 802 258 813 291.5 c 128,-1,29
 824 325 824 325 824 369 c 2,30,-1
 824 530 l 1,31,-1
 489 530 l 1,32,-1
 489 680 l 1,33,-1
 984 680 l 1,34,-1
 984 369 l 1,35,36
 975 261 975 261 927 177 c 0,37,38
 907 141 907 141 876 106.5 c 128,-1,39
 845 72 845 72 801 45 c 128,-1,40
 757 18 757 18 698.5 1.5 c 128,-1,41
 640 -15 640 -15 564 -15 c 0,42,43
 487 -15 487 -15 428.5 1.5 c 128,-1,44
 370 18 370 18 326 45 c 128,-1,45
 282 72 282 72 251.5 106.5 c 128,-1,46
 221 141 221 141 201 177 c 0,47,48
 153 261 153 261 144 369 c 1,49,-1
 144 874 l 1,50,51
 153 982 153 982 201 1067 c 0,52,53
 221 1103 221 1103 251.5 1137.5 c 128,-1,54
 282 1172 282 1172 326 1199.5 c 128,-1,55
 370 1227 370 1227 428.5 1243.5 c 128,-1,56
 487 1260 487 1260 564 1260 c 0,57,58
 640 1260 640 1260 698.5 1243.5 c 128,-1,59
 757 1227 757 1227 801 1199.5 c 128,-1,60
 845 1172 845 1172 876 1137.5 c 128,-1,61
 907 1103 907 1103 927 1067 c 0,62,63
 975 982 975 982 984 874 c 1,64,-1
 984 847 l 1,65,-1
 824 847 l 1,0,-1
EndSplineSet
EndChar

StartChar: H
Encoding: 72 72 43
Width: 1081
VWidth: 2048
GlyphClass: 2
Flags: W
LayerCount: 2
Fore
SplineSet
994 1240 m 1,0,-1
 994 0 l 1,1,-1
 834 0 l 1,2,-1
 834 498 l 1,3,-1
 249 498 l 1,4,-1
 249 0 l 1,5,-1
 89 0 l 1,6,-1
 89 1240 l 1,7,-1
 249 1240 l 1,8,-1
 249 648 l 1,9,-1
 834 648 l 1,10,-1
 834 1240 l 1,11,-1
 994 1240 l 1,0,-1
EndSplineSet
EndChar

StartChar: I
Encoding: 73 73 44
Width: 458
VWidth: 2048
GlyphClass: 2
Flags: W
LayerCount: 2
Fore
SplineSet
314 1240 m 1,0,-1
 314 0 l 1,1,-1
 154 0 l 1,2,-1
 154 1240 l 1,3,-1
 314 1240 l 1,0,-1
EndSplineSet
EndChar

StartChar: J
Encoding: 74 74 45
Width: 531
VWidth: 2048
GlyphClass: 2
Flags: W
LayerCount: 2
Fore
SplineSet
430 370 m 1,0,1
 421 261 421 261 373 177 c 0,2,3
 353 141 353 141 322 106.5 c 128,-1,4
 291 72 291 72 247 45 c 128,-1,5
 203 18 203 18 144.5 1.5 c 128,-1,6
 86 -15 86 -15 10 -15 c 1,7,-1
 10 145 l 1,8,9
 83 148 83 148 140 173 c 0,10,11
 164 183 164 183 187.5 199.5 c 128,-1,12
 211 216 211 216 229.5 239.5 c 128,-1,13
 248 263 248 263 259 295.5 c 128,-1,14
 270 328 270 328 270 370 c 2,15,-1
 270 1240 l 1,16,-1
 430 1240 l 1,17,-1
 430 370 l 1,0,1
EndSplineSet
EndChar

StartChar: K
Encoding: 75 75 46
Width: 1008
VWidth: 2048
GlyphClass: 2
Flags: W
LayerCount: 2
Fore
SplineSet
300 625 m 1,0,-1
 925 0 l 1,1,-1
 699 0 l 1,2,-1
 251 448 l 1,3,-1
 251 0 l 1,4,-1
 89 0 l 1,5,-1
 89 1250 l 1,6,-1
 251 1250 l 1,7,-1
 251 802 l 1,8,-1
 699 1250 l 1,9,-1
 925 1250 l 1,10,-1
 300 625 l 1,0,-1
EndSplineSet
EndChar

StartChar: L
Encoding: 76 76 47
Width: 820
VWidth: 2048
GlyphClass: 2
Flags: W
LayerCount: 2
Fore
SplineSet
814 0 m 1,0,-1
 86 0 l 1,1,-1
 86 1261 l 1,2,-1
 246 1261 l 1,3,-1
 246 150 l 1,4,-1
 814 150 l 1,5,-1
 814 0 l 1,0,-1
EndSplineSet
EndChar

StartChar: M
Encoding: 77 77 48
Width: 1216
VWidth: 2048
GlyphClass: 2
Flags: W
LayerCount: 2
Fore
SplineSet
226 0 m 1,0,-1
 66 0 l 1,1,-1
 66 1240 l 1,2,-1
 226 1240 l 1,3,-1
 606 419 l 1,4,5
 703 626 703 626 798 831 c 128,-1,6
 893 1036 893 1036 987 1240 c 1,7,-1
 1147 1240 l 1,8,-1
 1147 0 l 1,9,-1
 987 0 l 1,10,-1
 987 858 l 1,11,-1
 695 228 l 1,12,-1
 518 228 l 1,13,-1
 226 859 l 1,14,-1
 226 0 l 1,0,-1
EndSplineSet
EndChar

StartChar: N
Encoding: 78 78 49
Width: 1189
VWidth: 2048
GlyphClass: 2
Flags: W
LayerCount: 2
Fore
SplineSet
1102 1240 m 1,0,-1
 1102 0 l 1,1,-1
 894 0 l 1,2,-1
 246 1029 l 1,3,-1
 246 0 l 1,4,-1
 87 0 l 1,5,-1
 87 1240 l 1,6,-1
 319 1240 l 1,7,-1
 942 210 l 1,8,-1
 942 1240 l 1,9,-1
 1102 1240 l 1,0,-1
EndSplineSet
EndChar

StartChar: O
Encoding: 79 79 50
Width: 1028
VWidth: 2048
GlyphClass: 2
Flags: W
LayerCount: 2
Fore
SplineSet
517 1260 m 0,0,1
 593 1260 593 1260 651.5 1243.5 c 128,-1,2
 710 1227 710 1227 754 1199.5 c 128,-1,3
 798 1172 798 1172 829 1137.5 c 128,-1,4
 860 1103 860 1103 880 1067 c 0,5,6
 928 983 928 983 937 875 c 1,7,-1
 937 370 l 1,8,9
 928 261 928 261 880 177 c 0,10,11
 860 141 860 141 829 106.5 c 128,-1,12
 798 72 798 72 754 45 c 128,-1,13
 710 18 710 18 651.5 1.5 c 128,-1,14
 593 -15 593 -15 517 -15 c 0,15,16
 440 -15 440 -15 381.5 1.5 c 128,-1,17
 323 18 323 18 279 45 c 128,-1,18
 235 72 235 72 204.5 106.5 c 128,-1,19
 174 141 174 141 154 177 c 0,20,21
 106 261 106 261 97 370 c 1,22,-1
 97 875 l 1,23,24
 106 983 106 983 154 1067 c 0,25,26
 174 1103 174 1103 204.5 1137.5 c 128,-1,27
 235 1172 235 1172 279 1199.5 c 128,-1,28
 323 1227 323 1227 381.5 1243.5 c 128,-1,29
 440 1260 440 1260 517 1260 c 0,0,1
777 875 m 2,30,31
 777 917 777 917 766 949 c 128,-1,32
 755 981 755 981 736.5 1005 c 128,-1,33
 718 1029 718 1029 694.5 1045 c 128,-1,34
 671 1061 671 1061 647 1072 c 0,35,36
 590 1097 590 1097 517 1100 c 1,37,38
 444 1097 444 1097 387 1072 c 0,39,40
 363 1061 363 1061 339.5 1045 c 128,-1,41
 316 1029 316 1029 297.5 1005 c 128,-1,42
 279 981 279 981 268 949 c 128,-1,43
 257 917 257 917 257 875 c 2,44,-1
 257 370 l 2,45,46
 257 326 257 326 268 292 c 128,-1,47
 279 258 279 258 297.5 233.5 c 128,-1,48
 316 209 316 209 339.5 192 c 128,-1,49
 363 175 363 175 387 164 c 0,50,51
 444 138 444 138 517 135 c 1,52,53
 590 138 590 138 647 164 c 0,54,55
 671 175 671 175 694.5 192 c 128,-1,56
 718 209 718 209 736.5 233.5 c 128,-1,57
 755 258 755 258 766 292 c 128,-1,58
 777 326 777 326 777 370 c 2,59,-1
 777 875 l 2,30,31
EndSplineSet
EndChar

StartChar: P
Encoding: 80 80 51
Width: 959
VWidth: 2048
GlyphClass: 2
Flags: W
LayerCount: 2
Fore
SplineSet
569 1240 m 2,0,1
 644 1240 644 1240 709 1213.5 c 128,-1,2
 774 1187 774 1187 823 1140 c 128,-1,3
 872 1093 872 1093 900 1029.5 c 128,-1,4
 928 966 928 966 928 891 c 0,5,6
 928 817 928 817 900 753.5 c 128,-1,7
 872 690 872 690 823 643.5 c 128,-1,8
 774 597 774 597 709 570.5 c 128,-1,9
 644 544 644 544 569 544 c 2,10,-1
 248 544 l 1,11,-1
 248 0 l 1,12,-1
 88 0 l 1,13,-1
 88 1240 l 1,14,-1
 569 1240 l 2,0,1
569 694 m 2,15,16
 610 694 610 694 646 709.5 c 128,-1,17
 682 725 682 725 709 751.5 c 128,-1,18
 736 778 736 778 752 814 c 128,-1,19
 768 850 768 850 768 891 c 0,20,21
 768 933 768 933 752 969 c 128,-1,22
 736 1005 736 1005 709 1032 c 128,-1,23
 682 1059 682 1059 646 1074.5 c 128,-1,24
 610 1090 610 1090 569 1090 c 2,25,-1
 248 1090 l 1,26,-1
 248 694 l 1,27,-1
 569 694 l 2,15,16
EndSplineSet
EndChar

StartChar: Q
Encoding: 81 81 52
Width: 1112
VWidth: 2048
GlyphClass: 2
Flags: W
LayerCount: 2
Fore
SplineSet
922 -11 m 1,0,-1
 847 87 l 1,1,2
 800 43 800 43 729 14 c 128,-1,3
 658 -15 658 -15 555 -15 c 0,4,5
 478 -15 478 -15 419.5 1.5 c 128,-1,6
 361 18 361 18 317 45 c 128,-1,7
 273 72 273 72 242.5 106.5 c 128,-1,8
 212 141 212 141 192 177 c 0,9,10
 144 261 144 261 135 370 c 1,11,-1
 135 875 l 1,12,13
 144 983 144 983 192 1067 c 0,14,15
 212 1103 212 1103 242.5 1137.5 c 128,-1,16
 273 1172 273 1172 317 1199.5 c 128,-1,17
 361 1227 361 1227 419.5 1243.5 c 128,-1,18
 478 1260 478 1260 555 1260 c 0,19,20
 631 1260 631 1260 689.5 1243.5 c 128,-1,21
 748 1227 748 1227 792 1199.5 c 128,-1,22
 836 1172 836 1172 867 1137.5 c 128,-1,23
 898 1103 898 1103 918 1067 c 0,24,25
 966 983 966 983 976 875 c 1,26,-1
 976 370 l 2,27,28
 975 350 975 350 971 327 c 0,29,30
 967 307 967 307 960 281.5 c 128,-1,31
 953 256 953 256 942 227 c 1,32,-1
 1049 86 l 1,33,-1
 922 -11 l 1,0,-1
555 135 m 0,34,35
 590 136 590 136 625 144 c 0,36,37
 655 151 655 151 689.5 166 c 128,-1,38
 724 181 724 181 753 209 c 1,39,-1
 610 393 l 1,40,-1
 737 491 l 1,41,42
 743 483 743 483 754 469 c 0,43,44
 763 457 763 457 777.5 438 c 128,-1,45
 792 419 792 419 815 390 c 1,46,-1
 815 875 l 2,47,48
 815 917 815 917 804 949 c 128,-1,49
 793 981 793 981 774.5 1005 c 128,-1,50
 756 1029 756 1029 732.5 1045 c 128,-1,51
 709 1061 709 1061 685 1072 c 0,52,53
 628 1097 628 1097 555 1100 c 1,54,55
 482 1097 482 1097 425 1072 c 0,56,57
 401 1061 401 1061 377.5 1045 c 128,-1,58
 354 1029 354 1029 336 1005 c 128,-1,59
 318 981 318 981 307 949 c 128,-1,60
 296 917 296 917 296 875 c 2,61,-1
 296 370 l 2,62,63
 296 326 296 326 307 292 c 128,-1,64
 318 258 318 258 336 233.5 c 128,-1,65
 354 209 354 209 377.5 192 c 128,-1,66
 401 175 401 175 425 164 c 0,67,68
 482 138 482 138 555 135 c 0,34,35
EndSplineSet
EndChar

StartChar: R
Encoding: 82 82 53
Width: 1025
VWidth: 2048
GlyphClass: 2
Flags: W
LayerCount: 2
Fore
SplineSet
843 643 m 1,0,1
 864 627 864 627 883 604 c 128,-1,2
 902 581 902 581 916.5 549.5 c 128,-1,3
 931 518 931 518 940 476 c 128,-1,4
 949 434 949 434 949 381 c 2,5,-1
 949 0 l 1,6,-1
 788 0 l 1,7,-1
 788 381 l 2,8,9
 786 400 786 400 777.5 427.5 c 128,-1,10
 769 455 769 455 748.5 481 c 128,-1,11
 728 507 728 507 694 525.5 c 128,-1,12
 660 544 660 544 607 544 c 2,13,-1
 269 544 l 1,14,-1
 269 0 l 1,15,-1
 108 0 l 1,16,-1
 108 1240 l 1,17,-1
 590 1240 l 2,18,19
 664 1240 664 1240 729.5 1213.5 c 128,-1,20
 795 1187 795 1187 843.5 1140 c 128,-1,21
 892 1093 892 1093 920.5 1029.5 c 128,-1,22
 949 966 949 966 949 891 c 256,23,24
 949 816 949 816 920.5 753 c 128,-1,25
 892 690 892 690 843 643 c 1,0,1
590 694 m 2,26,27
 631 694 631 694 667 709.5 c 128,-1,28
 703 725 703 725 730 751.5 c 128,-1,29
 757 778 757 778 772.5 814 c 128,-1,30
 788 850 788 850 788 891 c 0,31,32
 788 933 788 933 772.5 969 c 128,-1,33
 757 1005 757 1005 730 1032 c 128,-1,34
 703 1059 703 1059 667 1074.5 c 128,-1,35
 631 1090 631 1090 590 1090 c 2,36,-1
 269 1090 l 1,37,-1
 269 694 l 1,38,-1
 590 694 l 2,26,27
EndSplineSet
EndChar

StartChar: S
Encoding: 83 83 54
Width: 958
VWidth: 2048
GlyphClass: 2
Flags: W
LayerCount: 2
Fore
SplineSet
793 977 m 1,0,-1
 725 1021 l 2,1,2
 700 1037 700 1037 669 1051.5 c 128,-1,3
 638 1066 638 1066 606.5 1077 c 128,-1,4
 575 1088 575 1088 547 1094 c 128,-1,5
 519 1100 519 1100 501 1100 c 0,6,7
 463 1100 463 1100 429 1088.5 c 128,-1,8
 395 1077 395 1077 369 1056 c 128,-1,9
 343 1035 343 1035 327.5 1006 c 128,-1,10
 312 977 312 977 312 942 c 0,11,12
 312 884 312 884 336.5 843.5 c 128,-1,13
 361 803 361 803 401 772 c 128,-1,14
 441 741 441 741 492 717 c 128,-1,15
 543 693 543 693 596.5 668 c 128,-1,16
 650 643 650 643 701 614 c 128,-1,17
 752 585 752 585 792 544.5 c 128,-1,18
 832 504 832 504 856.5 448.5 c 128,-1,19
 881 393 881 393 881 316 c 2,20,-1
 881 307 l 2,21,22
 880 224 880 224 850 163 c 128,-1,23
 820 102 820 102 768.5 62.5 c 128,-1,24
 717 23 717 23 648 4 c 128,-1,25
 579 -15 579 -15 501 -15 c 0,26,27
 391 -15 391 -15 313.5 9.5 c 128,-1,28
 236 34 236 34 185 64 c 0,29,30
 126 98 126 98 87 143 c 1,31,-1
 193 247 l 1,32,33
 212 228 212 228 244 208 c 128,-1,34
 276 188 276 188 316.5 172 c 128,-1,35
 357 156 357 156 403.5 146 c 128,-1,36
 450 136 450 136 499 136 c 0,37,38
 549 136 549 136 589.5 148.5 c 128,-1,39
 630 161 630 161 658.5 184 c 128,-1,40
 687 207 687 207 702 238 c 128,-1,41
 717 269 717 269 717 307 c 0,42,43
 717 362 717 362 692.5 399 c 128,-1,44
 668 436 668 436 628 463 c 128,-1,45
 588 490 588 490 537 511 c 128,-1,46
 486 532 486 532 433 555 c 128,-1,47
 380 578 380 578 329 608 c 128,-1,48
 278 638 278 638 238 682 c 128,-1,49
 198 726 198 726 173.5 789 c 128,-1,50
 149 852 149 852 149 942 c 0,51,52
 149 1029 149 1029 180 1089.5 c 128,-1,53
 211 1150 211 1150 261 1188 c 128,-1,54
 311 1226 311 1226 374 1243 c 128,-1,55
 437 1260 437 1260 501 1260 c 0,56,57
 567 1260 567 1260 621.5 1245 c 128,-1,58
 676 1230 676 1230 716 1213 c 0,59,60
 763 1193 763 1193 800 1167 c 2,61,-1
 882 1111 l 1,62,-1
 793 977 l 1,0,-1
EndSplineSet
EndChar

StartChar: T
Encoding: 84 84 55
Width: 897
VWidth: 2048
GlyphClass: 2
Flags: W
LayerCount: 2
Fore
SplineSet
863 1090 m 1,0,-1
 524 1090 l 1,1,-1
 524 0 l 1,2,-1
 364 0 l 1,3,-1
 364 1090 l 1,4,-1
 31 1090 l 1,5,-1
 31 1240 l 1,6,-1
 863 1240 l 1,7,-1
 863 1090 l 1,0,-1
EndSplineSet
EndChar

StartChar: U
Encoding: 85 85 56
Width: 1101
VWidth: 2048
GlyphClass: 2
Flags: W
LayerCount: 2
Fore
SplineSet
971 1240 m 1,0,-1
 971 375 l 1,1,2
 962 266 962 266 914 182 c 0,3,4
 894 146 894 146 863 111.5 c 128,-1,5
 832 77 832 77 788 50 c 128,-1,6
 744 23 744 23 685.5 6.5 c 128,-1,7
 627 -10 627 -10 551 -10 c 0,8,9
 454 -10 454 -10 385.5 16 c 128,-1,10
 317 42 317 42 270 82 c 128,-1,11
 223 122 223 122 195.5 169.5 c 128,-1,12
 168 217 168 217 153.5 260 c 128,-1,13
 139 303 139 303 134.5 334.5 c 128,-1,14
 130 366 130 366 130 375 c 2,15,-1
 130 1240 l 1,16,-1
 291 1240 l 1,17,-1
 291 375 l 2,18,19
 291 333 291 333 302 300.5 c 128,-1,20
 313 268 313 268 331.5 244.5 c 128,-1,21
 350 221 350 221 373.5 204.5 c 128,-1,22
 397 188 397 188 421 178 c 0,23,24
 478 153 478 153 551 150 c 1,25,26
 624 153 624 153 681 178 c 0,27,28
 705 188 705 188 728.5 204.5 c 128,-1,29
 752 221 752 221 770.5 244.5 c 128,-1,30
 789 268 789 268 800 300.5 c 128,-1,31
 811 333 811 333 811 375 c 2,32,-1
 811 1240 l 1,33,-1
 971 1240 l 1,0,-1
EndSplineSet
EndChar

StartChar: V
Encoding: 86 86 57
Width: 1093
VWidth: 2048
GlyphClass: 2
Flags: W
LayerCount: 2
Fore
SplineSet
1021 1240 m 1,0,1
 979 1108 979 1108 932.5 960.5 c 128,-1,2
 886 813 886 813 836 655 c 128,-1,3
 786 497 786 497 734 331.5 c 128,-1,4
 682 166 682 166 629 0 c 1,5,-1
 461 0 l 1,6,-1
 70 1240 l 1,7,-1
 238 1240 l 1,8,-1
 545 225 l 1,9,-1
 853 1240 l 1,10,-1
 1021 1240 l 1,0,1
EndSplineSet
EndChar

StartChar: W
Encoding: 87 87 58
Width: 1520
VWidth: 2048
GlyphClass: 2
Flags: W
LayerCount: 2
Fore
SplineSet
372 0 m 1,0,1
 328 178 328 178 285 353.5 c 128,-1,2
 242 529 242 529 203 690 c 128,-1,3
 164 851 164 851 130 991.5 c 128,-1,4
 96 1132 96 1132 70 1240 c 1,5,-1
 235 1240 l 1,6,-1
 459 225 l 1,7,-1
 684 1240 l 1,8,-1
 849 1240 l 1,9,-1
 1074 225 l 1,10,-1
 1299 1240 l 1,11,-1
 1464 1240 l 1,12,-1
 1162 0 l 1,13,-1
 986 0 l 1,14,-1
 767 901 l 1,15,-1
 547 0 l 1,16,-1
 372 0 l 1,0,1
EndSplineSet
EndChar

StartChar: X
Encoding: 88 88 59
Width: 1289
VWidth: 2048
GlyphClass: 2
Flags: W
LayerCount: 2
Fore
SplineSet
740 624 m 1,0,-1
 1222 0 l 1,1,-1
 1019 0 l 1,2,3
 928 119 928 119 832.5 242.5 c 128,-1,4
 737 366 737 366 639 493 c 1,5,6
 541 366 541 366 445.5 242.5 c 128,-1,7
 350 119 350 119 259 0 c 1,8,-1
 56 0 l 1,9,-1
 538 624 l 1,10,-1
 56 1250 l 1,11,-1
 258 1250 l 1,12,-1
 639 755 l 1,13,-1
 1020 1250 l 1,14,-1
 1222 1250 l 1,15,-1
 740 624 l 1,0,-1
EndSplineSet
EndChar

StartChar: Y
Encoding: 89 89 60
Width: 1062
VWidth: 2048
GlyphClass: 2
Flags: W
LayerCount: 2
Fore
SplineSet
1008 1250 m 1,0,-1
 607 430 l 1,1,-1
 607 0 l 1,2,-1
 447 0 l 1,3,-1
 447 430 l 1,4,-1
 43 1250 l 1,5,-1
 246 1250 l 1,6,-1
 526 593 l 1,7,-1
 807 1250 l 1,8,-1
 1008 1250 l 1,0,-1
EndSplineSet
EndChar

StartChar: Z
Encoding: 90 90 61
Width: 1066
VWidth: 2048
GlyphClass: 2
Flags: W
LayerCount: 2
Fore
SplineSet
971 1089 m 1,0,-1
 262 150 l 1,1,-1
 998 150 l 1,2,-1
 998 0 l 1,3,-1
 62 0 l 1,4,-1
 62 150 l 1,5,-1
 778 1089 l 1,6,-1
 62 1089 l 1,7,-1
 62 1239 l 1,8,-1
 971 1239 l 1,9,-1
 971 1089 l 1,0,-1
EndSplineSet
EndChar

StartChar: bracketleft
Encoding: 91 91 62
Width: 685
VWidth: 2048
Flags: W
LayerCount: 2
Fore
SplineSet
597 1561 m 1,0,-1
 597 1411 l 1,1,-1
 309 1411 l 1,2,-1
 309 -128 l 1,3,-1
 597 -128 l 1,4,-1
 597 -278 l 1,5,-1
 149 -278 l 1,6,-1
 149 1561 l 1,7,-1
 597 1561 l 1,0,-1
EndSplineSet
EndChar

StartChar: backslash
Encoding: 92 92 63
Width: 1016
VWidth: 2048
Flags: W
LayerCount: 2
Fore
SplineSet
737 -349 m 1,0,-1
 90 1500 l 1,1,-1
 250 1500 l 1,2,-1
 897 -349 l 1,3,-1
 737 -349 l 1,0,-1
EndSplineSet
EndChar

StartChar: bracketright
Encoding: 93 93 64
Width: 611
VWidth: 2048
Flags: W
LayerCount: 2
Fore
SplineSet
517 1561 m 1,0,-1
 517 -278 l 1,1,-1
 69 -278 l 1,2,-1
 69 -128 l 1,3,-1
 357 -128 l 1,4,-1
 357 1411 l 1,5,-1
 69 1411 l 1,6,-1
 69 1561 l 1,7,-1
 517 1561 l 1,0,-1
EndSplineSet
EndChar

StartChar: asciicircum
Encoding: 94 94 65
Width: 1088
VWidth: 2048
Flags: W
LayerCount: 2
Fore
SplineSet
107 419 m 1,0,-1
 397 1261 l 1,1,-1
 682 1261 l 1,2,-1
 974 419 l 1,3,-1
 798 419 l 1,4,-1
 541 1140 l 1,5,-1
 281 419 l 1,6,-1
 107 419 l 1,0,-1
EndSplineSet
EndChar

StartChar: underscore
Encoding: 95 95 66
Width: 1120
VWidth: 2048
Flags: W
LayerCount: 2
Fore
SplineSet
1033 -38 m 1,0,-1
 1033 -198 l 1,1,-1
 101 -198 l 1,2,-1
 101 -38 l 1,3,-1
 1033 -38 l 1,0,-1
EndSplineSet
EndChar

StartChar: grave
Encoding: 96 96 67
Width: 387
VWidth: 2048
Flags: W
LayerCount: 2
Fore
SplineSet
75 1201 m 1,0,-1
 214 1201 l 1,1,-1
 341 886 l 1,2,-1
 201 886 l 1,3,-1
 75 1201 l 1,0,-1
EndSplineSet
EndChar

StartChar: a
Encoding: 97 97 68
Width: 954
VWidth: 2048
GlyphClass: 2
Flags: W
LayerCount: 2
Fore
SplineSet
872 0 m 1,0,-1
 712 0 l 1,1,-1
 712 65 l 1,2,3
 666 32 666 32 602.5 11 c 128,-1,4
 539 -10 539 -10 452 -10 c 0,5,6
 375 -10 375 -10 316.5 6.5 c 128,-1,7
 258 23 258 23 214 50 c 128,-1,8
 170 77 170 77 139.5 111.5 c 128,-1,9
 109 146 109 146 89 182 c 0,10,11
 41 266 41 266 32 375 c 1,12,-1
 32 555 l 1,13,14
 41 663 41 663 89 747 c 0,15,16
 109 783 109 783 139.5 817.5 c 128,-1,17
 170 852 170 852 214 879.5 c 128,-1,18
 258 907 258 907 316.5 923.5 c 128,-1,19
 375 940 375 940 452 940 c 0,20,21
 539 940 539 940 602.5 919 c 128,-1,22
 666 898 666 898 712 865 c 1,23,-1
 712 930 l 1,24,-1
 872 930 l 1,25,-1
 872 0 l 1,0,-1
452 140 m 1,26,27
 525 143 525 143 582 169 c 0,28,29
 606 180 606 180 629.5 197 c 128,-1,30
 653 214 653 214 671.5 238.5 c 128,-1,31
 690 263 690 263 701 297 c 128,-1,32
 712 331 712 331 712 375 c 2,33,-1
 712 555 l 2,34,35
 712 597 712 597 701 629 c 128,-1,36
 690 661 690 661 671.5 685 c 128,-1,37
 653 709 653 709 629.5 725 c 128,-1,38
 606 741 606 741 582 752 c 0,39,40
 525 777 525 777 452 780 c 1,41,42
 379 777 379 777 322 752 c 0,43,44
 298 741 298 741 274.5 725 c 128,-1,45
 251 709 251 709 232.5 685 c 128,-1,46
 214 661 214 661 203 629 c 128,-1,47
 192 597 192 597 192 555 c 2,48,-1
 192 375 l 2,49,50
 192 331 192 331 203 297 c 128,-1,51
 214 263 214 263 232.5 238.5 c 128,-1,52
 251 214 251 214 274.5 197 c 128,-1,53
 298 180 298 180 322 169 c 0,54,55
 379 143 379 143 452 140 c 1,26,27
EndSplineSet
EndChar

StartChar: b
Encoding: 98 98 69
Width: 959
VWidth: 2048
GlyphClass: 2
Flags: W
LayerCount: 2
Fore
SplineSet
68 1280 m 1,0,-1
 228 1280 l 1,1,-1
 228 865 l 1,2,3
 274 898 274 898 337.5 919 c 128,-1,4
 401 940 401 940 488 940 c 0,5,6
 564 940 564 940 622.5 923.5 c 128,-1,7
 681 907 681 907 725 879.5 c 128,-1,8
 769 852 769 852 800 817.5 c 128,-1,9
 831 783 831 783 851 747 c 0,10,11
 899 663 899 663 908 555 c 1,12,-1
 908 375 l 1,13,14
 899 266 899 266 851 182 c 0,15,16
 831 146 831 146 800 111.5 c 128,-1,17
 769 77 769 77 725 50 c 128,-1,18
 681 23 681 23 622.5 6.5 c 128,-1,19
 564 -10 564 -10 488 -10 c 0,20,21
 401 -10 401 -10 337.5 11 c 128,-1,22
 274 32 274 32 228 65 c 1,23,-1
 228 0 l 1,24,-1
 68 0 l 1,25,-1
 68 1280 l 1,0,-1
228 375 m 2,26,27
 228 331 228 331 239 297 c 128,-1,28
 250 263 250 263 268.5 238.5 c 128,-1,29
 287 214 287 214 310.5 197 c 128,-1,30
 334 180 334 180 358 169 c 0,31,32
 415 143 415 143 488 140 c 1,33,34
 560 143 560 143 617 169 c 0,35,36
 641 180 641 180 664.5 197 c 128,-1,37
 688 214 688 214 706.5 238.5 c 128,-1,38
 725 263 725 263 736 297 c 128,-1,39
 747 331 747 331 747 375 c 2,40,-1
 747 555 l 2,41,42
 747 597 747 597 736 629 c 128,-1,43
 725 661 725 661 706.5 685 c 128,-1,44
 688 709 688 709 664.5 725 c 128,-1,45
 641 741 641 741 617 752 c 0,46,47
 560 777 560 777 488 780 c 1,48,49
 415 777 415 777 358 752 c 0,50,51
 334 741 334 741 310.5 725 c 128,-1,52
 287 709 287 709 268.5 685 c 128,-1,53
 250 661 250 661 239 629 c 128,-1,54
 228 597 228 597 228 555 c 2,55,-1
 228 375 l 2,26,27
EndSplineSet
EndChar

StartChar: c
Encoding: 99 99 70
Width: 935
VWidth: 2048
GlyphClass: 2
Flags: W
LayerCount: 2
Fore
SplineSet
881 340 m 1,0,1
 878 317 878 317 868.5 281.5 c 128,-1,2
 859 246 859 246 840.5 207.5 c 128,-1,3
 822 169 822 169 792 130 c 128,-1,4
 762 91 762 91 717 60 c 128,-1,5
 672 29 672 29 610 9.5 c 128,-1,6
 548 -10 548 -10 465 -10 c 0,7,8
 388 -10 388 -10 329.5 6.5 c 128,-1,9
 271 23 271 23 227 50 c 128,-1,10
 183 77 183 77 152.5 111.5 c 128,-1,11
 122 146 122 146 102 182 c 0,12,13
 54 266 54 266 45 375 c 1,14,-1
 45 555 l 1,15,16
 54 663 54 663 102 747 c 0,17,18
 122 783 122 783 152.5 817.5 c 128,-1,19
 183 852 183 852 227 879.5 c 128,-1,20
 271 907 271 907 329.5 923.5 c 128,-1,21
 388 940 388 940 465 940 c 0,22,23
 548 940 548 940 610 920.5 c 128,-1,24
 672 901 672 901 717 870 c 128,-1,25
 762 839 762 839 792 800 c 128,-1,26
 822 761 822 761 840.5 722 c 128,-1,27
 859 683 859 683 868 648 c 128,-1,28
 877 613 877 613 881 589 c 1,29,-1
 723 589 l 1,30,31
 718 625 718 625 704.5 652 c 128,-1,32
 691 679 691 679 671.5 699 c 128,-1,33
 652 719 652 719 629.5 733 c 128,-1,34
 607 747 607 747 584 756 c 0,35,36
 530 777 530 777 465 780 c 1,37,38
 392 777 392 777 335 752 c 0,39,40
 311 741 311 741 287.5 725 c 128,-1,41
 264 709 264 709 245.5 685 c 128,-1,42
 227 661 227 661 216 629 c 128,-1,43
 205 597 205 597 205 555 c 2,44,-1
 205 375 l 2,45,46
 205 331 205 331 216 297 c 128,-1,47
 227 263 227 263 245.5 238.5 c 128,-1,48
 264 214 264 214 287.5 197 c 128,-1,49
 311 180 311 180 335 169 c 0,50,51
 392 143 392 143 465 140 c 1,52,53
 530 143 530 143 585 165 c 0,54,55
 608 174 608 174 630.5 188.5 c 128,-1,56
 653 203 653 203 672 224 c 128,-1,57
 691 245 691 245 704.5 273.5 c 128,-1,58
 718 302 718 302 723 340 c 1,59,-1
 881 340 l 1,0,1
EndSplineSet
EndChar

StartChar: d
Encoding: 100 100 71
Width: 947
VWidth: 2048
GlyphClass: 2
Flags: W
LayerCount: 2
Fore
SplineSet
888 0 m 1,0,-1
 728 0 l 1,1,-1
 728 65 l 1,2,3
 682 32 682 32 618.5 11 c 128,-1,4
 555 -10 555 -10 468 -10 c 0,5,6
 391 -10 391 -10 332.5 6.5 c 128,-1,7
 274 23 274 23 230 50 c 128,-1,8
 186 77 186 77 155.5 111.5 c 128,-1,9
 125 146 125 146 105 182 c 0,10,11
 57 266 57 266 48 375 c 1,12,-1
 48 555 l 1,13,14
 57 663 57 663 105 747 c 0,15,16
 125 783 125 783 155.5 817.5 c 128,-1,17
 186 852 186 852 230 879.5 c 128,-1,18
 274 907 274 907 332.5 923.5 c 128,-1,19
 391 940 391 940 468 940 c 0,20,21
 555 940 555 940 618.5 919 c 128,-1,22
 682 898 682 898 728 865 c 1,23,-1
 728 1280 l 1,24,-1
 888 1280 l 1,25,-1
 888 0 l 1,0,-1
728 375 m 2,26,-1
 728 555 l 2,27,28
 728 597 728 597 717 629 c 128,-1,29
 706 661 706 661 687.5 685 c 128,-1,30
 669 709 669 709 645.5 725 c 128,-1,31
 622 741 622 741 598 752 c 0,32,33
 541 777 541 777 468 780 c 1,34,35
 395 777 395 777 338 752 c 0,36,37
 314 741 314 741 290.5 725 c 128,-1,38
 267 709 267 709 249 685 c 128,-1,39
 231 661 231 661 220 629 c 128,-1,40
 209 597 209 597 209 555 c 2,41,-1
 209 375 l 2,42,43
 209 331 209 331 220 297 c 128,-1,44
 231 263 231 263 249 238.5 c 128,-1,45
 267 214 267 214 290.5 197 c 128,-1,46
 314 180 314 180 338 169 c 0,47,48
 395 143 395 143 468 140 c 1,49,50
 541 143 541 143 598 169 c 0,51,52
 622 180 622 180 645.5 197 c 128,-1,53
 669 214 669 214 687.5 238.5 c 128,-1,54
 706 263 706 263 717 297 c 128,-1,55
 728 331 728 331 728 375 c 2,26,-1
EndSplineSet
EndChar

StartChar: e
Encoding: 101 101 72
Width: 927
VWidth: 2048
GlyphClass: 2
Flags: W
LayerCount: 2
Fore
SplineSet
203 439 m 1,0,-1
 203 375 l 2,1,2
 203 331 203 331 214 297 c 128,-1,3
 225 263 225 263 243.5 238.5 c 128,-1,4
 262 214 262 214 285.5 197 c 128,-1,5
 309 180 309 180 333 169 c 0,6,7
 390 143 390 143 463 140 c 1,8,9
 528 143 528 143 583 165 c 0,10,11
 606 174 606 174 628.5 188.5 c 128,-1,12
 651 203 651 203 670 224 c 128,-1,13
 689 245 689 245 702.5 273.5 c 128,-1,14
 716 302 716 302 721 340 c 1,15,-1
 880 340 l 1,16,17
 876 317 876 317 867 281.5 c 128,-1,18
 858 246 858 246 839.5 207.5 c 128,-1,19
 821 169 821 169 791 130 c 128,-1,20
 761 91 761 91 716 60 c 128,-1,21
 671 29 671 29 608.5 9.5 c 128,-1,22
 546 -10 546 -10 463 -10 c 0,23,24
 387 -10 387 -10 328.5 6.5 c 128,-1,25
 270 23 270 23 226 50 c 128,-1,26
 182 77 182 77 151.5 111.5 c 128,-1,27
 121 146 121 146 101 182 c 0,28,29
 53 266 53 266 44 375 c 1,30,-1
 44 555 l 1,31,32
 53 663 53 663 101 747 c 0,33,34
 121 783 121 783 151.5 817.5 c 128,-1,35
 182 852 182 852 226 879.5 c 128,-1,36
 270 907 270 907 328.5 923.5 c 128,-1,37
 387 940 387 940 463 940 c 0,38,39
 546 940 546 940 608.5 920.5 c 128,-1,40
 671 901 671 901 716 870 c 128,-1,41
 761 839 761 839 791 800 c 128,-1,42
 821 761 821 761 839.5 722 c 128,-1,43
 858 683 858 683 867 648 c 128,-1,44
 876 613 876 613 880 589 c 1,45,-1
 880 439 l 1,46,-1
 203 439 l 1,0,-1
463 780 m 1,47,48
 398 777 398 777 344 756 c 0,49,50
 321 747 321 747 298.5 733 c 128,-1,51
 276 719 276 719 257 699 c 128,-1,52
 238 679 238 679 224 652 c 128,-1,53
 210 625 210 625 206 589 c 1,54,-1
 721 589 l 1,55,56
 716 625 716 625 702.5 652 c 128,-1,57
 689 679 689 679 670 699 c 128,-1,58
 651 719 651 719 628.5 733 c 128,-1,59
 606 747 606 747 583 756 c 0,60,61
 529 777 529 777 463 780 c 1,47,48
EndSplineSet
EndChar

StartChar: f
Encoding: 102 102 73
Width: 604
VWidth: 2048
GlyphClass: 2
Flags: W
LayerCount: 2
Fore
SplineSet
629 1120 m 1,0,1
 563 1117 563 1117 509 1096 c 0,2,3
 486 1087 486 1087 463.5 1073.5 c 128,-1,4
 441 1060 441 1060 422 1040 c 128,-1,5
 403 1020 403 1020 389 993 c 128,-1,6
 375 966 375 966 371 930 c 1,7,-1
 533 930 l 1,8,-1
 533 780 l 1,9,-1
 369 780 l 1,10,-1
 369 0 l 1,11,-1
 209 0 l 1,12,-1
 209 780 l 1,13,-1
 44 780 l 1,14,-1
 44 930 l 1,15,-1
 212 930 l 1,16,17
 216 954 216 954 225 989 c 128,-1,18
 234 1024 234 1024 253 1063 c 128,-1,19
 272 1102 272 1102 302 1140.5 c 128,-1,20
 332 1179 332 1179 377 1210 c 128,-1,21
 422 1241 422 1241 484 1260.5 c 128,-1,22
 546 1280 546 1280 629 1280 c 1,23,-1
 629 1120 l 1,24,-1
 629 1120 l 1,0,1
EndSplineSet
EndChar

StartChar: g
Encoding: 103 103 74
Width: 989
VWidth: 2048
GlyphClass: 2
Flags: W
LayerCount: 2
Fore
SplineSet
912 931 m 1,0,-1
 912 25 l 1,1,2
 903 -84 903 -84 855 -168 c 0,3,4
 835 -204 835 -204 804 -238.5 c 128,-1,5
 773 -273 773 -273 729 -300 c 128,-1,6
 685 -327 685 -327 626.5 -343.5 c 128,-1,7
 568 -360 568 -360 492 -360 c 0,8,9
 390 -360 390 -360 319 -331 c 128,-1,10
 248 -302 248 -302 201 -259 c 128,-1,11
 154 -216 154 -216 128 -165.5 c 128,-1,12
 102 -115 102 -115 90 -73 c 1,13,-1
 251 -73 l 1,14,15
 274 -124 274 -124 314 -151.5 c 128,-1,16
 354 -179 354 -179 394 -192 c 0,17,18
 441 -207 441 -207 492 -209 c 1,19,20
 565 -206 565 -206 622 -180 c 0,21,22
 646 -169 646 -169 669.5 -152 c 128,-1,23
 693 -135 693 -135 711.5 -110.5 c 128,-1,24
 730 -86 730 -86 741 -52.5 c 128,-1,25
 752 -19 752 -19 752 25 c 2,26,-1
 752 65 l 1,27,28
 706 33 706 33 642.5 11.5 c 128,-1,29
 579 -10 579 -10 492 -10 c 0,30,31
 415 -10 415 -10 356.5 6.5 c 128,-1,32
 298 23 298 23 254 50 c 128,-1,33
 210 77 210 77 179.5 111.5 c 128,-1,34
 149 146 149 146 129 182 c 0,35,36
 81 266 81 266 72 375 c 1,37,-1
 72 555 l 1,38,39
 81 663 81 663 129 747 c 0,40,41
 149 783 149 783 179.5 817.5 c 128,-1,42
 210 852 210 852 254 879.5 c 128,-1,43
 298 907 298 907 356.5 923.5 c 128,-1,44
 415 940 415 940 492 940 c 0,45,46
 579 940 579 940 642.5 919.5 c 128,-1,47
 706 899 706 899 752 865 c 1,48,-1
 752 931 l 1,49,-1
 912 931 l 1,0,-1
752 555 m 2,50,51
 752 597 752 597 741 629.5 c 128,-1,52
 730 662 730 662 711.5 686 c 128,-1,53
 693 710 693 710 669.5 726 c 128,-1,54
 646 742 646 742 622 753 c 0,55,56
 565 778 565 778 492 781 c 1,57,58
 419 778 419 778 362 753 c 0,59,60
 338 742 338 742 314.5 726 c 128,-1,61
 291 710 291 710 272.5 686 c 128,-1,62
 254 662 254 662 243 629.5 c 128,-1,63
 232 597 232 597 232 555 c 2,64,-1
 232 375 l 2,65,66
 232 331 232 331 243 297 c 128,-1,67
 254 263 254 263 272.5 238.5 c 128,-1,68
 291 214 291 214 314.5 197 c 128,-1,69
 338 180 338 180 362 169 c 0,70,71
 419 143 419 143 492 140 c 1,72,73
 565 143 565 143 622 169 c 0,74,75
 646 180 646 180 669.5 197 c 128,-1,76
 693 214 693 214 711.5 238.5 c 128,-1,77
 730 263 730 263 741 297 c 128,-1,78
 752 331 752 331 752 375 c 2,79,-1
 752 555 l 2,50,51
EndSplineSet
EndChar

StartChar: h
Encoding: 104 104 75
Width: 997
VWidth: 2048
GlyphClass: 2
Flags: W
LayerCount: 2
Fore
SplineSet
497 940 m 0,0,1
 573 940 573 940 631.5 923.5 c 128,-1,2
 690 907 690 907 734 879.5 c 128,-1,3
 778 852 778 852 809 817.5 c 128,-1,4
 840 783 840 783 860 747 c 0,5,6
 908 663 908 663 917 555 c 1,7,-1
 917 0 l 1,8,-1
 757 0 l 1,9,-1
 757 555 l 2,10,11
 757 597 757 597 746 629 c 128,-1,12
 735 661 735 661 716.5 684.5 c 128,-1,13
 698 708 698 708 674.5 724 c 128,-1,14
 651 740 651 740 627 751 c 0,15,16
 570 776 570 776 497 779 c 1,17,18
 424 776 424 776 367 751 c 0,19,20
 343 740 343 740 319.5 724 c 128,-1,21
 296 708 296 708 277.5 684.5 c 128,-1,22
 259 661 259 661 248 629 c 128,-1,23
 237 597 237 597 237 555 c 2,24,-1
 237 0 l 1,25,-1
 77 0 l 1,26,-1
 77 1280 l 1,27,-1
 237 1280 l 1,28,-1
 237 864 l 1,29,30
 282 897 282 897 345.5 918.5 c 128,-1,31
 409 940 409 940 497 940 c 0,0,1
EndSplineSet
EndChar

StartChar: i
Encoding: 105 105 76
Width: 366
VWidth: 2048
GlyphClass: 2
Flags: W
LayerCount: 2
Fore
SplineSet
182 1084 m 256,0,1
 160 1084 160 1084 140.5 1092.5 c 128,-1,2
 121 1101 121 1101 106 1115.5 c 128,-1,3
 91 1130 91 1130 82.5 1149.5 c 128,-1,4
 74 1169 74 1169 74 1191 c 0,5,6
 74 1214 74 1214 82.5 1233.5 c 128,-1,7
 91 1253 91 1253 106 1267.5 c 128,-1,8
 121 1282 121 1282 140.5 1290.5 c 128,-1,9
 160 1299 160 1299 182 1299 c 256,10,11
 204 1299 204 1299 224 1290.5 c 128,-1,12
 244 1282 244 1282 259 1267.5 c 128,-1,13
 274 1253 274 1253 282.5 1233.5 c 128,-1,14
 291 1214 291 1214 291 1191 c 0,15,16
 291 1169 291 1169 282.5 1149.5 c 128,-1,17
 274 1130 274 1130 259 1115.5 c 128,-1,18
 244 1101 244 1101 224 1092.5 c 128,-1,19
 204 1084 204 1084 182 1084 c 256,0,1
262 930 m 1,20,-1
 262 0 l 1,21,-1
 102 0 l 1,22,-1
 102 930 l 1,23,-1
 262 930 l 1,20,-1
EndSplineSet
EndChar

StartChar: j
Encoding: 106 106 77
Width: 531
VWidth: 2048
GlyphClass: 2
Flags: W
LayerCount: 2
Fore
SplineSet
368 1082 m 0,0,1
 345 1082 345 1082 325.5 1090.5 c 128,-1,2
 306 1099 306 1099 292 1113.5 c 128,-1,3
 278 1128 278 1128 269.5 1147.5 c 128,-1,4
 261 1167 261 1167 261 1189 c 0,5,6
 261 1212 261 1212 269.5 1231.5 c 128,-1,7
 278 1251 278 1251 292 1265.5 c 128,-1,8
 306 1280 306 1280 325.5 1288.5 c 128,-1,9
 345 1297 345 1297 368 1297 c 0,10,11
 390 1297 390 1297 410 1288.5 c 128,-1,12
 430 1280 430 1280 444.5 1265.5 c 128,-1,13
 459 1251 459 1251 467.5 1231.5 c 128,-1,14
 476 1212 476 1212 476 1189 c 0,15,16
 476 1167 476 1167 467.5 1147.5 c 128,-1,17
 459 1128 459 1128 444.5 1113.5 c 128,-1,18
 430 1099 430 1099 410 1090.5 c 128,-1,19
 390 1082 390 1082 368 1082 c 0,0,1
455 25 m 1,20,21
 446 -84 446 -84 398 -168 c 0,22,23
 378 -204 378 -204 347 -238.5 c 128,-1,24
 316 -273 316 -273 272 -300 c 128,-1,25
 228 -327 228 -327 169.5 -343.5 c 128,-1,26
 111 -360 111 -360 35 -360 c 1,27,-1
 35 -200 l 1,28,29
 108 -197 108 -197 165 -172 c 0,30,31
 189 -162 189 -162 212.5 -145.5 c 128,-1,32
 236 -129 236 -129 254.5 -105.5 c 128,-1,33
 273 -82 273 -82 284 -49.5 c 128,-1,34
 295 -17 295 -17 295 25 c 2,35,-1
 295 930 l 1,36,-1
 455 930 l 1,37,-1
 455 25 l 1,20,21
EndSplineSet
EndChar

StartChar: k
Encoding: 107 107 78
Width: 842
VWidth: 2048
GlyphClass: 2
Flags: W
LayerCount: 2
Fore
SplineSet
287 492 m 1,0,-1
 820 0 l 1,1,-1
 594 0 l 1,2,-1
 238 315 l 1,3,-1
 238 0 l 1,4,-1
 76 0 l 1,5,-1
 76 1280 l 1,6,-1
 238 1280 l 1,7,-1
 238 669 l 1,8,-1
 594 940 l 1,9,-1
 820 940 l 1,10,-1
 287 492 l 1,0,-1
EndSplineSet
EndChar

StartChar: l
Encoding: 108 108 79
Width: 369
VWidth: 2048
GlyphClass: 2
Flags: W
LayerCount: 2
Fore
SplineSet
266 1280 m 1,0,-1
 266 0 l 1,1,-1
 106 0 l 1,2,-1
 106 1280 l 1,3,-1
 266 1280 l 1,0,-1
EndSplineSet
EndChar

StartChar: m
Encoding: 109 109 80
Width: 1371
VWidth: 2048
GlyphClass: 2
Flags: W
LayerCount: 2
Fore
SplineSet
1256 0 m 1,0,-1
 1096 0 l 1,1,-1
 1096 555 l 2,2,3
 1096 597 1096 597 1089 629 c 128,-1,4
 1082 661 1082 661 1070.5 685 c 128,-1,5
 1059 709 1059 709 1044.5 725 c 128,-1,6
 1030 741 1030 741 1015 752 c 0,7,8
 979 777 979 777 934 780 c 1,9,10
 891 777 891 777 858 752 c 0,11,12
 844 741 844 741 830.5 725 c 128,-1,13
 817 709 817 709 806.5 685 c 128,-1,14
 796 661 796 661 789.5 629 c 128,-1,15
 783 597 783 597 783 555 c 2,16,-1
 783 0 l 1,17,-1
 623 0 l 1,18,-1
 623 555 l 2,19,20
 623 597 623 597 616.5 629 c 128,-1,21
 610 661 610 661 599.5 685 c 128,-1,22
 589 709 589 709 575 725 c 128,-1,23
 561 741 561 741 547 752 c 0,24,25
 514 777 514 777 472 780 c 1,26,27
 426 777 426 777 391 752 c 0,28,29
 376 741 376 741 361 725 c 128,-1,30
 346 709 346 709 335 685 c 128,-1,31
 324 661 324 661 317 629 c 128,-1,32
 310 597 310 597 310 555 c 2,33,-1
 310 0 l 1,34,-1
 150 0 l 1,35,-1
 150 930 l 1,36,-1
 310 930 l 1,37,-1
 310 865 l 1,38,39
 320 876 320 876 332.5 889 c 128,-1,40
 345 902 345 902 363.5 913.5 c 128,-1,41
 382 925 382 925 408 932.5 c 128,-1,42
 434 940 434 940 470 940 c 0,43,44
 555 940 555 940 611.5 906 c 128,-1,45
 668 872 668 872 703 823 c 1,46,47
 737 872 737 872 793.5 906 c 128,-1,48
 850 940 850 940 936 940 c 0,49,50
 1008 940 1008 940 1067 914.5 c 128,-1,51
 1126 889 1126 889 1168 840 c 128,-1,52
 1210 791 1210 791 1233 719 c 128,-1,53
 1256 647 1256 647 1256 555 c 2,54,-1
 1256 0 l 1,0,-1
EndSplineSet
EndChar

StartChar: n
Encoding: 110 110 81
Width: 993
VWidth: 2048
GlyphClass: 2
Flags: W
LayerCount: 2
Fore
SplineSet
497 940 m 0,0,1
 573 940 573 940 631.5 923.5 c 128,-1,2
 690 907 690 907 734 879.5 c 128,-1,3
 778 852 778 852 809 817.5 c 128,-1,4
 840 783 840 783 860 747 c 0,5,6
 908 663 908 663 917 555 c 1,7,-1
 917 0 l 1,8,-1
 757 0 l 1,9,-1
 757 555 l 2,10,11
 757 597 757 597 746 629 c 128,-1,12
 735 661 735 661 716.5 684.5 c 128,-1,13
 698 708 698 708 674.5 724 c 128,-1,14
 651 740 651 740 627 751 c 0,15,16
 570 776 570 776 497 779 c 1,17,18
 424 776 424 776 367 751 c 0,19,20
 343 740 343 740 319.5 724 c 128,-1,21
 296 708 296 708 277.5 684.5 c 128,-1,22
 259 661 259 661 248 629 c 128,-1,23
 237 597 237 597 237 555 c 2,24,-1
 237 0 l 1,25,-1
 77 0 l 1,26,-1
 77 930 l 1,27,-1
 237 930 l 1,28,-1
 237 864 l 1,29,30
 282 897 282 897 345.5 918.5 c 128,-1,31
 409 940 409 940 497 940 c 0,0,1
EndSplineSet
EndChar

StartChar: o
Encoding: 111 111 82
Width: 927
VWidth: 2048
GlyphClass: 2
Flags: W
LayerCount: 2
Fore
SplineSet
464 940 m 0,0,1
 540 940 540 940 598.5 923.5 c 128,-1,2
 657 907 657 907 701 879.5 c 128,-1,3
 745 852 745 852 775.5 817.5 c 128,-1,4
 806 783 806 783 826 747 c 0,5,6
 874 663 874 663 883 555 c 1,7,-1
 883 375 l 1,8,9
 874 266 874 266 826 182 c 0,10,11
 806 146 806 146 775.5 111.5 c 128,-1,12
 745 77 745 77 701 50 c 128,-1,13
 657 23 657 23 598.5 6.5 c 128,-1,14
 540 -10 540 -10 464 -10 c 0,15,16
 387 -10 387 -10 328.5 6.5 c 128,-1,17
 270 23 270 23 226 50 c 128,-1,18
 182 77 182 77 151.5 111.5 c 128,-1,19
 121 146 121 146 101 182 c 0,20,21
 53 266 53 266 44 375 c 1,22,-1
 44 555 l 1,23,24
 53 663 53 663 101 747 c 0,25,26
 121 783 121 783 151.5 817.5 c 128,-1,27
 182 852 182 852 226 879.5 c 128,-1,28
 270 907 270 907 328.5 923.5 c 128,-1,29
 387 940 387 940 464 940 c 0,0,1
724 555 m 2,30,31
 724 597 724 597 713 629 c 128,-1,32
 702 661 702 661 683.5 685 c 128,-1,33
 665 709 665 709 641.5 725 c 128,-1,34
 618 741 618 741 594 752 c 0,35,36
 537 777 537 777 464 780 c 1,37,38
 390 777 390 777 333 752 c 0,39,40
 309 741 309 741 285.5 725 c 128,-1,41
 262 709 262 709 243.5 685 c 128,-1,42
 225 661 225 661 214 629 c 128,-1,43
 203 597 203 597 203 555 c 2,44,-1
 203 375 l 2,45,46
 203 331 203 331 214 297 c 128,-1,47
 225 263 225 263 243.5 238.5 c 128,-1,48
 262 214 262 214 285.5 197 c 128,-1,49
 309 180 309 180 333 169 c 0,50,51
 390 143 390 143 464 140 c 1,52,53
 537 143 537 143 594 169 c 0,54,55
 618 180 618 180 641.5 197 c 128,-1,56
 665 214 665 214 683.5 238.5 c 128,-1,57
 702 263 702 263 713 297 c 128,-1,58
 724 331 724 331 724 375 c 2,59,-1
 724 555 l 2,30,31
EndSplineSet
EndChar

StartChar: p
Encoding: 112 112 83
Width: 970
VWidth: 2048
GlyphClass: 2
Flags: W
LayerCount: 2
Fore
SplineSet
71 930 m 1,0,-1
 231 930 l 1,1,-1
 231 865 l 1,2,3
 277 898 277 898 340.5 919 c 128,-1,4
 404 940 404 940 491 940 c 0,5,6
 567 940 567 940 625.5 923.5 c 128,-1,7
 684 907 684 907 728 879.5 c 128,-1,8
 772 852 772 852 803 817.5 c 128,-1,9
 834 783 834 783 854 747 c 0,10,11
 902 663 902 663 911 555 c 1,12,-1
 911 375 l 1,13,14
 902 266 902 266 854 182 c 0,15,16
 834 146 834 146 803 111.5 c 128,-1,17
 772 77 772 77 728 50 c 128,-1,18
 684 23 684 23 625.5 6.5 c 128,-1,19
 567 -10 567 -10 491 -10 c 0,20,21
 404 -10 404 -10 340.5 11 c 128,-1,22
 277 32 277 32 231 65 c 1,23,-1
 231 -360 l 1,24,-1
 71 -360 l 1,25,-1
 71 930 l 1,0,-1
231 555 m 2,26,-1
 231 375 l 2,27,28
 231 333 231 333 242 300.5 c 128,-1,29
 253 268 253 268 271.5 244.5 c 128,-1,30
 290 221 290 221 313.5 204.5 c 128,-1,31
 337 188 337 188 361 178 c 0,32,33
 418 153 418 153 491 150 c 1,34,35
 563 153 563 153 620 178 c 0,36,37
 644 188 644 188 667.5 204.5 c 128,-1,38
 691 221 691 221 709.5 244.5 c 128,-1,39
 728 268 728 268 739 300.5 c 128,-1,40
 750 333 750 333 750 375 c 2,41,-1
 750 555 l 2,42,43
 750 599 750 599 739 632.5 c 128,-1,44
 728 666 728 666 709.5 691 c 128,-1,45
 691 716 691 716 667.5 733 c 128,-1,46
 644 750 644 750 620 761 c 0,47,48
 563 787 563 787 491 790 c 1,49,50
 418 787 418 787 361 761 c 0,51,52
 337 750 337 750 313.5 733 c 128,-1,53
 290 716 290 716 271.5 691 c 128,-1,54
 253 666 253 666 242 632.5 c 128,-1,55
 231 599 231 599 231 555 c 2,26,-1
EndSplineSet
EndChar

StartChar: q
Encoding: 113 113 84
Width: 985
VWidth: 2048
GlyphClass: 2
Flags: W
LayerCount: 2
Fore
SplineSet
912 -360 m 1,0,-1
 752 -360 l 1,1,-1
 752 65 l 1,2,3
 706 32 706 32 642.5 11 c 128,-1,4
 579 -10 579 -10 492 -10 c 0,5,6
 415 -10 415 -10 356.5 6.5 c 128,-1,7
 298 23 298 23 254 50 c 128,-1,8
 210 77 210 77 179.5 111.5 c 128,-1,9
 149 146 149 146 129 182 c 0,10,11
 81 266 81 266 72 375 c 1,12,-1
 72 555 l 1,13,14
 81 663 81 663 129 747 c 0,15,16
 149 783 149 783 179.5 817.5 c 128,-1,17
 210 852 210 852 254 879.5 c 128,-1,18
 298 907 298 907 356.5 923.5 c 128,-1,19
 415 940 415 940 492 940 c 0,20,21
 579 940 579 940 642.5 919 c 128,-1,22
 706 898 706 898 752 865 c 1,23,-1
 752 930 l 1,24,-1
 912 930 l 1,25,-1
 912 -360 l 1,0,-1
752 555 m 2,26,27
 752 599 752 599 741 632.5 c 128,-1,28
 730 666 730 666 711.5 691 c 128,-1,29
 693 716 693 716 669.5 733 c 128,-1,30
 646 750 646 750 622 761 c 0,31,32
 565 787 565 787 492 790 c 1,33,34
 419 787 419 787 362 761 c 0,35,36
 338 750 338 750 314.5 733 c 128,-1,37
 291 716 291 716 273 691 c 128,-1,38
 255 666 255 666 244 632.5 c 128,-1,39
 233 599 233 599 233 555 c 2,40,-1
 233 375 l 2,41,42
 233 333 233 333 244 300.5 c 128,-1,43
 255 268 255 268 273 244.5 c 128,-1,44
 291 221 291 221 314.5 204.5 c 128,-1,45
 338 188 338 188 362 178 c 0,46,47
 419 153 419 153 492 150 c 1,48,49
 565 153 565 153 622 178 c 0,50,51
 646 188 646 188 669.5 204.5 c 128,-1,52
 693 221 693 221 711.5 244.5 c 128,-1,53
 730 268 730 268 741 300.5 c 128,-1,54
 752 333 752 333 752 375 c 2,55,-1
 752 555 l 2,26,27
EndSplineSet
EndChar

StartChar: r
Encoding: 114 114 85
Width: 508
VWidth: 2048
GlyphClass: 2
Flags: W
LayerCount: 2
Fore
SplineSet
68 0 m 1,0,-1
 68 930 l 1,1,-1
 228 930 l 1,2,-1
 228 865 l 1,3,4
 274 898 274 898 337.5 919 c 128,-1,5
 401 940 401 940 488 940 c 1,6,-1
 488 790 l 1,7,8
 415 787 415 787 358 761 c 0,9,10
 334 750 334 750 310.5 733 c 128,-1,11
 287 716 287 716 268.5 691 c 128,-1,12
 250 666 250 666 239 632.5 c 128,-1,13
 228 599 228 599 228 555 c 2,14,-1
 228 0 l 1,15,-1
 68 0 l 1,0,-1
EndSplineSet
EndChar

StartChar: s
Encoding: 115 115 86
Width: 675
VWidth: 2048
GlyphClass: 2
Flags: W
LayerCount: 2
Fore
SplineSet
555 703 m 1,0,1
 474 754 474 754 419.5 776 c 128,-1,2
 365 798 365 798 340 798 c 0,3,4
 317 798 317 798 295 790.5 c 128,-1,5
 273 783 273 783 256.5 770 c 128,-1,6
 240 757 240 757 230 738 c 128,-1,7
 220 719 220 719 220 697 c 0,8,9
 220 663 220 663 235 637 c 128,-1,10
 250 611 250 611 274 591 c 128,-1,11
 298 571 298 571 329 554.5 c 128,-1,12
 360 538 360 538 393 523 c 0,13,14
 433 505 433 505 475 481.5 c 128,-1,15
 517 458 517 458 551 425 c 128,-1,16
 585 392 585 392 606.5 347 c 128,-1,17
 628 302 628 302 628 241 c 2,18,-1
 628 236 l 2,19,20
 628 172 628 172 605 125.5 c 128,-1,21
 582 79 582 79 543 49 c 128,-1,22
 504 19 504 19 451.5 4.5 c 128,-1,23
 399 -10 399 -10 340 -10 c 0,24,25
 271 -10 271 -10 217 6 c 128,-1,26
 163 22 163 22 123.5 43 c 128,-1,27
 84 64 84 64 59.5 85 c 128,-1,28
 35 106 35 106 25 117 c 1,29,-1
 121 211 l 1,30,31
 139 196 139 196 164.5 181 c 128,-1,32
 190 166 190 166 219 154.5 c 128,-1,33
 248 143 248 143 278.5 135.5 c 128,-1,34
 309 128 309 128 339 128 c 0,35,36
 405 128 405 128 443 158 c 128,-1,37
 481 188 481 188 481 236 c 0,38,39
 481 265 481 265 467.5 288 c 128,-1,40
 454 311 454 311 432 330 c 128,-1,41
 410 349 410 349 382 363.5 c 128,-1,42
 354 378 354 378 324 391 c 0,43,44
 282 409 282 409 238 432 c 128,-1,45
 194 455 194 455 158 489.5 c 128,-1,46
 122 524 122 524 98.5 574 c 128,-1,47
 75 624 75 624 75 697 c 0,48,49
 75 764 75 764 98.5 810.5 c 128,-1,50
 122 857 122 857 159.5 885.5 c 128,-1,51
 197 914 197 914 244.5 927 c 128,-1,52
 292 940 292 940 340 940 c 0,53,54
 385 940 385 940 423 930.5 c 128,-1,55
 461 921 461 921 495.5 905 c 128,-1,56
 530 889 530 889 564 868.5 c 128,-1,57
 598 848 598 848 635 826 c 1,58,-1
 555 703 l 1,0,1
EndSplineSet
EndChar

StartChar: t
Encoding: 116 116 87
Width: 558
VWidth: 2048
GlyphClass: 2
Flags: W
LayerCount: 2
Fore
SplineSet
525 930 m 1,0,-1
 525 780 l 1,1,-1
 360 780 l 1,2,-1
 360 0 l 1,3,-1
 200 0 l 1,4,-1
 200 780 l 1,5,-1
 36 780 l 1,6,-1
 36 930 l 1,7,-1
 200 930 l 1,8,-1
 200 1280 l 1,9,-1
 362 1280 l 1,10,-1
 362 930 l 1,11,-1
 525 930 l 1,0,-1
EndSplineSet
EndChar

StartChar: u
Encoding: 117 117 88
Width: 958
VWidth: 2048
GlyphClass: 2
Flags: W
LayerCount: 2
Fore
SplineSet
883 930 m 1,0,-1
 883 375 l 1,1,2
 874 266 874 266 826 182 c 0,3,4
 806 146 806 146 775 111.5 c 128,-1,5
 744 77 744 77 700 50 c 128,-1,6
 656 23 656 23 597.5 6.5 c 128,-1,7
 539 -10 539 -10 463 -10 c 0,8,9
 386 -10 386 -10 327.5 6.5 c 128,-1,10
 269 23 269 23 225 50 c 128,-1,11
 181 77 181 77 150.5 111.5 c 128,-1,12
 120 146 120 146 100 182 c 0,13,14
 52 266 52 266 43 375 c 1,15,-1
 43 930 l 1,16,-1
 203 930 l 1,17,-1
 203 375 l 2,18,19
 203 333 203 333 214 300.5 c 128,-1,20
 225 268 225 268 243.5 244.5 c 128,-1,21
 262 221 262 221 285.5 204.5 c 128,-1,22
 309 188 309 188 333 178 c 0,23,24
 390 153 390 153 463 150 c 1,25,26
 536 153 536 153 593 178 c 0,27,28
 617 188 617 188 640.5 204.5 c 128,-1,29
 664 221 664 221 682.5 244.5 c 128,-1,30
 701 268 701 268 712 300.5 c 128,-1,31
 723 333 723 333 723 375 c 2,32,-1
 723 930 l 1,33,-1
 883 930 l 1,0,-1
EndSplineSet
EndChar

StartChar: v
Encoding: 118 118 89
Width: 1008
VWidth: 2048
GlyphClass: 2
Flags: W
LayerCount: 2
Fore
SplineSet
983 940 m 1,0,-1
 658 0 l 1,1,-1
 373 0 l 1,2,-1
 47 940 l 1,3,-1
 222 940 l 1,4,-1
 514 120 l 1,5,-1
 810 940 l 1,6,-1
 983 940 l 1,0,-1
EndSplineSet
EndChar

StartChar: w
Encoding: 119 119 90
Width: 1462
VWidth: 2048
GlyphClass: 2
Flags: W
LayerCount: 2
Fore
SplineSet
1422 940 m 1,0,-1
 1122 0 l 1,1,-1
 935 0 l 1,2,-1
 728 660 l 1,3,-1
 522 0 l 1,4,-1
 336 0 l 1,5,-1
 36 940 l 1,6,-1
 218 940 l 1,7,-1
 430 190 l 1,8,-1
 641 940 l 1,9,-1
 816 940 l 1,10,-1
 1028 191 l 1,11,-1
 1239 940 l 1,12,-1
 1422 940 l 1,0,-1
EndSplineSet
EndChar

StartChar: x
Encoding: 120 120 91
Width: 1054
VWidth: 2048
GlyphClass: 2
Flags: W
LayerCount: 2
Fore
SplineSet
427 472 m 1,0,1
 347 576 347 576 290 649 c 128,-1,2
 233 722 233 722 192 775 c 128,-1,3
 151 828 151 828 121 866.5 c 128,-1,4
 91 905 91 905 64 940 c 1,5,-1
 267 940 l 1,6,-1
 529 603 l 1,7,-1
 787 940 l 1,8,-1
 990 940 l 1,9,-1
 629 472 l 1,10,11
 719 354 719 354 810 236 c 128,-1,12
 901 118 901 118 991 0 c 1,13,-1
 792 0 l 1,14,-1
 529 340 l 1,15,16
 463 255 463 255 396.5 171.5 c 128,-1,17
 330 88 330 88 265 0 c 1,18,-1
 63 0 l 1,19,-1
 427 472 l 1,0,1
EndSplineSet
EndChar

StartChar: y
Encoding: 121 121 92
Width: 931
VWidth: 2048
GlyphClass: 2
Flags: W
LayerCount: 2
Fore
SplineSet
893 940 m 1,0,-1
 438 -355 l 1,1,-1
 251 -355 l 1,2,-1
 380 0 l 1,3,-1
 52 940 l 1,4,-1
 236 940 l 1,5,-1
 473 257 l 1,6,-1
 710 940 l 1,7,-1
 893 940 l 1,0,-1
EndSplineSet
EndChar

StartChar: z
Encoding: 122 122 93
Width: 920
VWidth: 2048
GlyphClass: 2
Flags: W
LayerCount: 2
Fore
SplineSet
847 790 m 1,0,-1
 302 150 l 1,1,-1
 847 150 l 1,2,-1
 847 0 l 1,3,-1
 64 0 l 1,4,-1
 64 150 l 1,5,-1
 613 790 l 1,6,-1
 64 790 l 1,7,-1
 64 940 l 1,8,-1
 847 940 l 1,9,-1
 847 790 l 1,0,-1
EndSplineSet
EndChar

StartChar: braceleft
Encoding: 123 123 94
Width: 827
VWidth: 2048
Flags: W
LayerCount: 2
Fore
SplineSet
428 830 m 1,0,1
 428 745 428 745 392.5 673 c 128,-1,2
 357 601 357 601 297 552 c 1,3,4
 357 503 357 503 392.5 431 c 128,-1,5
 428 359 428 359 428 274 c 2,6,-1
 428 38 l 2,7,8
 428 -25 428 -25 457 -71.5 c 128,-1,9
 486 -118 486 -118 531 -148 c 128,-1,10
 576 -178 576 -178 632 -192.5 c 128,-1,11
 688 -207 688 -207 742 -207 c 1,12,-1
 742 -357 l 1,13,14
 652 -355 652 -355 566.5 -329.5 c 128,-1,15
 481 -304 481 -304 415 -254.5 c 128,-1,16
 349 -205 349 -205 308.5 -132 c 128,-1,17
 268 -59 268 -59 268 38 c 2,18,-1
 268 274 l 2,19,20
 268 314 268 314 253 349 c 128,-1,21
 238 384 238 384 211.5 410.5 c 128,-1,22
 185 437 185 437 149 453 c 128,-1,23
 113 469 113 469 71 472 c 1,24,-1
 71 632 l 1,25,26
 113 635 113 635 149 651 c 128,-1,27
 185 667 185 667 211.5 693.5 c 128,-1,28
 238 720 238 720 253 755 c 128,-1,29
 268 790 268 790 268 830 c 2,30,-1
 268 1065 l 2,31,32
 268 1162 268 1162 308.5 1235 c 128,-1,33
 349 1308 349 1308 415 1357.5 c 128,-1,34
 481 1407 481 1407 566.5 1432.5 c 128,-1,35
 652 1458 652 1458 742 1460 c 1,36,-1
 742 1310 l 1,37,38
 688 1310 688 1310 632 1295.5 c 128,-1,39
 576 1281 576 1281 531 1251 c 128,-1,40
 486 1221 486 1221 457 1174.5 c 128,-1,41
 428 1128 428 1128 428 1065 c 2,42,-1
 428 830 l 1,43,-1
 428 830 l 1,0,1
EndSplineSet
EndChar

StartChar: bar
Encoding: 124 124 95
Width: 410
VWidth: 2048
Flags: W
LayerCount: 2
Fore
SplineSet
285 -350 m 1,0,-1
 125 -350 l 1,1,-1
 125 1499 l 1,2,-1
 285 1499 l 1,3,-1
 285 -350 l 1,0,-1
EndSplineSet
EndChar

StartChar: braceright
Encoding: 125 125 96
Width: 883
VWidth: 2048
Flags: W
LayerCount: 2
Fore
SplineSet
418 830 m 2,0,-1
 418 1065 l 2,1,2
 418 1128 418 1128 389 1174.5 c 128,-1,3
 360 1221 360 1221 315 1251 c 128,-1,4
 270 1281 270 1281 214 1295.5 c 128,-1,5
 158 1310 158 1310 104 1310 c 1,6,-1
 104 1460 l 1,7,8
 194 1458 194 1458 279.5 1432.5 c 128,-1,9
 365 1407 365 1407 431 1357.5 c 128,-1,10
 497 1308 497 1308 537.5 1235 c 128,-1,11
 578 1162 578 1162 578 1065 c 2,12,-1
 578 830 l 2,13,14
 578 790 578 790 593 755 c 128,-1,15
 608 720 608 720 634.5 693.5 c 128,-1,16
 661 667 661 667 697 651 c 128,-1,17
 733 635 733 635 775 632 c 1,18,-1
 775 472 l 1,19,20
 733 469 733 469 697 453 c 128,-1,21
 661 437 661 437 634.5 410.5 c 128,-1,22
 608 384 608 384 593 349 c 128,-1,23
 578 314 578 314 578 274 c 2,24,-1
 578 38 l 2,25,26
 578 -59 578 -59 537.5 -132 c 128,-1,27
 497 -205 497 -205 431 -254.5 c 128,-1,28
 365 -304 365 -304 279.5 -329.5 c 128,-1,29
 194 -355 194 -355 104 -357 c 1,30,-1
 104 -207 l 1,31,32
 158 -207 158 -207 214 -192.5 c 128,-1,33
 270 -178 270 -178 315 -148 c 128,-1,34
 360 -118 360 -118 389 -71.5 c 128,-1,35
 418 -25 418 -25 418 38 c 2,36,-1
 418 274 l 2,37,38
 418 359 418 359 453.5 431 c 128,-1,39
 489 503 489 503 549 552 c 1,40,41
 489 601 489 601 453.5 673 c 128,-1,42
 418 745 418 745 418 830 c 2,0,-1
EndSplineSet
EndChar

StartChar: asciitilde
Encoding: 126 126 97
Width: 964
VWidth: 2048
Flags: W
LayerCount: 2
Fore
SplineSet
911 721 m 1,0,1
 888 662 888 662 857.5 622.5 c 128,-1,2
 827 583 827 583 792 559.5 c 128,-1,3
 757 536 757 536 719.5 526 c 128,-1,4
 682 516 682 516 644 516 c 0,5,6
 596 516 596 516 558 529 c 128,-1,7
 520 542 520 542 486 558 c 128,-1,8
 452 574 452 574 418.5 587 c 128,-1,9
 385 600 385 600 346 600 c 0,10,11
 305 600 305 600 275.5 582.5 c 128,-1,12
 246 565 246 565 226 545 c 0,13,14
 203 521 203 521 187 491 c 1,15,-1
 42 560 l 2,16,17
 43 563 43 563 45 567 c 0,18,19
 47 570 47 570 48.5 573 c 128,-1,20
 50 576 50 576 52 580 c 0,21,22
 81 641 81 641 114 679 c 128,-1,23
 147 717 147 717 181 738.5 c 128,-1,24
 215 760 215 760 248 768 c 128,-1,25
 281 776 281 776 310 776 c 0,26,27
 331 776 331 776 348.5 773 c 128,-1,28
 366 770 366 770 379 766 c 0,29,30
 394 762 394 762 407 757 c 2,31,-1
 523 702 l 2,32,33
 546 691 546 691 567 686 c 128,-1,34
 588 681 588 681 607 681 c 0,35,36
 647 681 647 681 677 698 c 128,-1,37
 707 715 707 715 727 735 c 0,38,39
 751 759 751 759 767 790 c 1,40,-1
 911 721 l 1,0,1
EndSplineSet
EndChar

StartChar: thothannobasethai
Encoding: 128 128 98
AltUni2: 00f700.ffffffff.0 0020ac.ffffffff.0
Width: 1110
VWidth: 2048
Flags: W
LayerCount: 2
Fore
SplineSet
974 1088 m 0,0,1
 974 1080 974 1080 958 1060.5 c 128,-1,2
 942 1041 942 1041 919 1019 c 128,-1,3
 896 997 896 997 872 977 c 128,-1,4
 848 957 848 957 832 949 c 1,5,6
 872 902 872 902 898 833.5 c 128,-1,7
 924 765 924 765 924 665 c 2,8,-1
 924 0 l 1,9,-1
 763 0 l 1,10,-1
 763 297 l 1,11,12
 752 329 752 329 733.5 356 c 128,-1,13
 715 383 715 383 686 401 c 0,14,15
 658 418 658 418 626.5 427.5 c 128,-1,16
 595 437 595 437 557 437 c 0,17,18
 500 437 500 437 460 416 c 1,19,-1
 460 588 l 1,20,21
 503 600 503 600 557 600 c 0,22,23
 670 600 670 600 763 545 c 1,24,-1
 763 654 l 1,25,26
 756 722 756 722 726 777 c 0,27,28
 713 800 713 800 694 822 c 128,-1,29
 675 844 675 844 648 861.5 c 128,-1,30
 621 879 621 879 585 889.5 c 128,-1,31
 549 900 549 900 503 900 c 0,32,33
 430 895 430 895 373 868 c 0,34,35
 349 856 349 856 325.5 838.5 c 128,-1,36
 302 821 302 821 283.5 795 c 128,-1,37
 265 769 265 769 254 734 c 128,-1,38
 243 699 243 699 243 654 c 1,39,-1
 83 654 l 1,40,-1
 83 665 l 2,41,42
 83 681 83 681 86 717.5 c 128,-1,43
 89 754 89 754 102.5 800.5 c 128,-1,44
 116 847 116 847 142.5 896.5 c 128,-1,45
 169 946 169 946 215.5 986.5 c 128,-1,46
 262 1027 262 1027 332 1053.5 c 128,-1,47
 402 1080 402 1080 503 1080 c 2,48,-1
 512 1080 l 2,49,50
 545 1080 545 1080 579 1075.5 c 128,-1,51
 613 1071 613 1071 652 1060 c 1,52,53
 694 1066 694 1066 733 1083 c 0,54,55
 766 1097 766 1097 801 1125 c 128,-1,56
 836 1153 836 1153 859 1200 c 1,57,58
 888 1172 888 1172 912 1148 c 0,59,60
 922 1138 922 1138 932 1128 c 128,-1,61
 942 1118 942 1118 950.5 1109.5 c 128,-1,62
 959 1101 959 1101 965.5 1095.5 c 128,-1,63
 972 1090 972 1090 974 1088 c 0,0,1
EndSplineSet
EndChar

StartChar: saraileftthai
Encoding: 129 129 99
AltUni2: 00f701.ffffffff.0
Width: 0
VWidth: 2048
Flags: W
LayerCount: 2
Fore
SplineSet
-360 1345 m 1,0,-1
 -360 1192 l 1,1,-1
 -958 1192 l 1,2,-1
 -958 1345 l 1,3,-1
 -360 1345 l 1,0,-1
EndSplineSet
EndChar

StartChar: saraiileftthai
Encoding: 130 130 100
AltUni2: 00f702.ffffffff.0 00201a.ffffffff.0
Width: 0
VWidth: 2048
Flags: W
LayerCount: 2
Fore
SplineSet
-506 1440 m 1,0,-1
 -506 1194 l 1,1,-1
 -1104 1194 l 1,2,-1
 -1104 1344 l 1,3,-1
 -656 1344 l 1,4,-1
 -656 1440 l 1,5,-1
 -506 1440 l 1,0,-1
EndSplineSet
EndChar

StartChar: saraueleftthai
Encoding: 131 131 101
AltUni2: 00f703.ffffffff.0 000192.ffffffff.0
Width: 0
VWidth: 2048
Flags: W
LayerCount: 2
Fore
SplineSet
-521 1575 m 256,0,1
 -482 1575 -482 1575 -448 1560 c 128,-1,2
 -414 1545 -414 1545 -388.5 1519.5 c 128,-1,3
 -363 1494 -363 1494 -348.5 1460 c 128,-1,4
 -334 1426 -334 1426 -334 1388 c 0,5,6
 -334 1349 -334 1349 -349 1314.5 c 128,-1,7
 -364 1280 -364 1280 -389.5 1254.5 c 128,-1,8
 -415 1229 -415 1229 -449 1214.5 c 128,-1,9
 -483 1200 -483 1200 -521 1200 c 2,10,-1
 -1141 1200 l 1,11,-1
 -1141 1352 l 1,12,-1
 -705 1352 l 1,13,14
 -707 1361 -707 1361 -708 1370 c 128,-1,15
 -709 1379 -709 1379 -709 1388 c 0,16,17
 -709 1426 -709 1426 -694.5 1460 c 128,-1,18
 -680 1494 -680 1494 -654.5 1519.5 c 128,-1,19
 -629 1545 -629 1545 -594.5 1560 c 128,-1,20
 -560 1575 -560 1575 -521 1575 c 256,0,1
-521 1326 m 256,21,22
 -495 1326 -495 1326 -477 1344 c 128,-1,23
 -459 1362 -459 1362 -459 1388 c 256,24,25
 -459 1414 -459 1414 -477 1431.5 c 128,-1,26
 -495 1449 -495 1449 -521 1449 c 256,27,28
 -547 1449 -547 1449 -565.5 1431.5 c 128,-1,29
 -584 1414 -584 1414 -584 1388 c 256,30,31
 -584 1362 -584 1362 -565.5 1344 c 128,-1,32
 -547 1326 -547 1326 -521 1326 c 256,21,22
EndSplineSet
EndChar

StartChar: saraueeleftthai
Encoding: 132 132 102
AltUni2: 00f704.ffffffff.0 00201e.ffffffff.0
Width: 0
VWidth: 2048
Flags: W
LayerCount: 2
Fore
SplineSet
-300 1527 m 1,0,-1
 -300 1266 l 1,1,-1
 -958 1266 l 1,2,-1
 -958 1416 l 1,3,-1
 -689 1416 l 1,4,-1
 -689 1527 l 1,5,-1
 -539 1527 l 1,6,-1
 -539 1416 l 1,7,-1
 -450 1416 l 1,8,-1
 -450 1527 l 1,9,-1
 -300 1527 l 1,0,-1
EndSplineSet
EndChar

StartChar: ellipsis
Encoding: 133 133 103
AltUni2: 002026.ffffffff.0
Width: 1079
VWidth: 2048
Flags: W
LayerCount: 2
Fore
SplineSet
150 104 m 0,0,1
 173 104 173 104 189 88 c 128,-1,2
 205 72 205 72 205 49 c 0,3,4
 205 29 205 29 189 12.5 c 128,-1,5
 173 -4 173 -4 150 -4 c 0,6,7
 128 -4 128 -4 111 12.5 c 128,-1,8
 94 29 94 29 94 49 c 0,9,10
 94 72 94 72 111 88 c 128,-1,11
 128 104 128 104 150 104 c 0,0,1
541 104 m 0,12,13
 561 104 561 104 578.5 88 c 128,-1,14
 596 72 596 72 596 49 c 0,15,16
 596 29 596 29 580 12.5 c 128,-1,17
 564 -4 564 -4 541 -4 c 256,18,19
 518 -4 518 -4 501.5 12.5 c 128,-1,20
 485 29 485 29 485 49 c 0,21,22
 485 72 485 72 501.5 88 c 128,-1,23
 518 104 518 104 541 104 c 0,12,13
930 104 m 0,24,25
 953 104 953 104 969 88 c 128,-1,26
 985 72 985 72 985 49 c 0,27,28
 985 29 985 29 969 12.5 c 128,-1,29
 953 -4 953 -4 930 -4 c 0,30,31
 908 -4 908 -4 891 12.5 c 128,-1,32
 874 29 874 29 874 49 c 0,33,34
 874 72 874 72 891 88 c 128,-1,35
 908 104 908 104 930 104 c 0,24,25
EndSplineSet
EndChar

StartChar: maieklowleftthai
Encoding: 134 134 104
AltUni2: 00f705.ffffffff.0 002020.ffffffff.0
Width: 0
VWidth: 2048
Flags: W
LayerCount: 2
Fore
SplineSet
-419 1504 m 1,0,-1
 -419 1200 l 1,1,-1
 -569 1200 l 1,2,-1
 -569 1504 l 1,3,-1
 -419 1504 l 1,0,-1
EndSplineSet
Substitution2: "Single Substitution lookup 44 subtable" maiekupperleftthai
EndChar

StartChar: maitholowleftthai
Encoding: 135 135 105
AltUni2: 00f706.ffffffff.0 002021.ffffffff.0
Width: 0
VWidth: 2048
Flags: W
LayerCount: 2
Fore
SplineSet
-400 1346 m 1,0,-1
 -400 1196 l 1,1,-1
 -844 1196 l 1,2,-1
 -844 1397 l 1,3,-1
 -924 1397 l 1,4,-1
 -924 1547 l 1,5,-1
 -765 1547 l 2,6,7
 -746 1545 -746 1545 -730 1537 c 0,8,9
 -716 1530 -716 1530 -705 1515.5 c 128,-1,10
 -694 1501 -694 1501 -694 1476 c 2,11,-1
 -694 1346 l 1,12,-1
 -400 1346 l 1,0,-1
EndSplineSet
Substitution2: "Single Substitution lookup 44 subtable" maithoupperleftthai
EndChar

StartChar: maitrilowleftthai
Encoding: 136 136 106
AltUni2: 00f707.ffffffff.0 0002c6.ffffffff.0
Width: 0
VWidth: 2048
Flags: W
LayerCount: 2
Fore
SplineSet
-100 1320 m 1,0,-1
 -100 1170 l 1,1,-1
 -461 1170 l 1,2,3
 -461 1230 -461 1230 -468 1263.5 c 128,-1,4
 -475 1297 -475 1297 -483 1314 c 0,5,6
 -493 1333 -493 1333 -505 1339 c 1,7,-1
 -631 1213 l 1,8,-1
 -757 1339 l 1,9,10
 -769 1333 -769 1333 -779 1314 c 0,11,12
 -787 1297 -787 1297 -794 1263.5 c 128,-1,13
 -801 1230 -801 1230 -801 1170 c 1,14,-1
 -951 1170 l 1,15,16
 -951 1225 -951 1225 -941 1283 c 128,-1,17
 -931 1341 -931 1341 -905 1389.5 c 128,-1,18
 -879 1438 -879 1438 -833.5 1472 c 128,-1,19
 -788 1506 -788 1506 -717 1512 c 1,20,-1
 -631 1424 l 1,21,-1
 -545 1512 l 1,22,23
 -495 1512 -495 1512 -458.5 1495 c 128,-1,24
 -422 1478 -422 1478 -396.5 1450.5 c 128,-1,25
 -371 1423 -371 1423 -354.5 1388.5 c 128,-1,26
 -338 1354 -338 1354 -329 1320 c 1,27,-1
 -100 1320 l 1,0,-1
EndSplineSet
Substitution2: "Single Substitution lookup 44 subtable" maitriupperleftthai
EndChar

StartChar: maichattawalowleftthai
Encoding: 137 137 107
AltUni2: 00f708.ffffffff.0 002030.ffffffff.0
Width: 0
VWidth: 2048
Flags: W
LayerCount: 2
Fore
SplineSet
-329 1303 m 1,0,-1
 -432 1303 l 1,1,-1
 -432 1201 l 1,2,-1
 -582 1201 l 1,3,-1
 -582 1303 l 1,4,-1
 -684 1303 l 1,5,-1
 -684 1453 l 1,6,-1
 -582 1453 l 1,7,-1
 -582 1556 l 1,8,-1
 -432 1556 l 1,9,-1
 -432 1453 l 1,10,-1
 -329 1453 l 1,11,-1
 -329 1303 l 1,0,-1
EndSplineSet
Substitution2: "Single Substitution lookup 44 subtable" maichattawaupperleftthai
EndChar

StartChar: thanthakhatlowleftthai
Encoding: 138 138 108
AltUni2: 00f709.ffffffff.0 000160.ffffffff.0
Width: 0
VWidth: 2048
Flags: W
LayerCount: 2
Fore
SplineSet
-726 1201 m 1,0,-1
 -726 1360 l 2,1,2
 -725 1379 -725 1379 -716 1395 c 0,3,4
 -709 1409 -709 1409 -694.5 1420 c 128,-1,5
 -680 1431 -680 1431 -654 1431 c 2,6,-1
 -302 1431 l 1,7,-1
 -302 1281 l 1,8,-1
 -576 1281 l 1,9,-1
 -576 1201 l 1,10,-1
 -726 1201 l 1,0,-1
EndSplineSet
Substitution2: "Single Substitution lookup 44 subtable" thanthakhatupperleftthai
EndChar

StartChar: maieklowrightthai
Encoding: 139 139 109
AltUni2: 00f70a.ffffffff.0 002039.ffffffff.0
Width: 0
VWidth: 2048
Flags: W
LayerCount: 2
Fore
SplineSet
-213 1505 m 1,0,-1
 -213 1201 l 1,1,-1
 -363 1201 l 1,2,-1
 -363 1505 l 1,3,-1
 -213 1505 l 1,0,-1
EndSplineSet
Ligature2: "Ligature Substitution lookup 46 subtable" maitaikhuthai maiekthai maiekthai
Ligature2: "Ligature Substitution lookup 45 subtable" yamakkanthai maiekthai
Ligature2: "Ligature Substitution lookup 45 subtable" maitaikhuthai maiekthai
Ligature2: "Ligature Substitution lookup 45 subtable" maitaikhuthai thanthakhatlowrightthai maiekthai
Ligature2: "Ligature Substitution lookup 45 subtable" maitaikhuthai maichattawalowrightthai maiekthai
Ligature2: "Ligature Substitution lookup 45 subtable" maitaikhuthai maitrilowrightthai maiekthai
Ligature2: "Ligature Substitution lookup 45 subtable" maitaikhuthai maitholowrightthai maiekthai
Ligature2: "Ligature Substitution lookup 45 subtable" maitaikhuthai maieklowrightthai maiekthai
Ligature2: "Ligature Substitution lookup 45 subtable" thanthakhatlowrightthai maiekthai
Ligature2: "Ligature Substitution lookup 45 subtable" maichattawalowrightthai maiekthai
Ligature2: "Ligature Substitution lookup 45 subtable" maitrilowrightthai maiekthai
Ligature2: "Ligature Substitution lookup 45 subtable" maitholowrightthai maiekthai
Ligature2: "Ligature Substitution lookup 45 subtable" maieklowrightthai maiekthai
Substitution2: "Single Substitution lookup 44 subtable" maieklowleftthai
EndChar

StartChar: maitholowrightthai
Encoding: 140 140 110
AltUni2: 00f70b.ffffffff.0 000152.ffffffff.0
Width: 0
VWidth: 2048
Flags: W
LayerCount: 2
Fore
SplineSet
-100 1350 m 1,0,-1
 -100 1200 l 1,1,-1
 -544 1200 l 1,2,-1
 -544 1401 l 1,3,-1
 -624 1401 l 1,4,-1
 -624 1551 l 1,5,-1
 -465 1551 l 2,6,7
 -446 1549 -446 1549 -430 1541 c 0,8,9
 -416 1534 -416 1534 -405 1519.5 c 128,-1,10
 -394 1505 -394 1505 -394 1480 c 2,11,-1
 -394 1350 l 1,12,-1
 -100 1350 l 1,0,-1
EndSplineSet
Ligature2: "Ligature Substitution lookup 46 subtable" maitaikhuthai maithothai maithothai
Ligature2: "Ligature Substitution lookup 45 subtable" yamakkanthai maithothai
Ligature2: "Ligature Substitution lookup 45 subtable" maitaikhuthai maithothai
Ligature2: "Ligature Substitution lookup 45 subtable" maitaikhuthai thanthakhatlowrightthai maithothai
Ligature2: "Ligature Substitution lookup 45 subtable" maitaikhuthai maichattawalowrightthai maithothai
Ligature2: "Ligature Substitution lookup 45 subtable" maitaikhuthai maitrilowrightthai maithothai
Ligature2: "Ligature Substitution lookup 45 subtable" maitaikhuthai maitholowrightthai maithothai
Ligature2: "Ligature Substitution lookup 45 subtable" maitaikhuthai maieklowrightthai maithothai
Ligature2: "Ligature Substitution lookup 45 subtable" thanthakhatlowrightthai maithothai
Ligature2: "Ligature Substitution lookup 45 subtable" maichattawalowrightthai maithothai
Ligature2: "Ligature Substitution lookup 45 subtable" maitrilowrightthai maithothai
Ligature2: "Ligature Substitution lookup 45 subtable" maitholowrightthai maithothai
Ligature2: "Ligature Substitution lookup 45 subtable" maieklowrightthai maithothai
Substitution2: "Single Substitution lookup 44 subtable" maitholowleftthai
EndChar

StartChar: maitrilowrightthai
Encoding: 141 141 111
AltUni2: 00f70c.ffffffff.0
Width: 0
VWidth: 2048
Flags: W
LayerCount: 2
Fore
SplineSet
-46 1351 m 1,0,-1
 -46 1201 l 1,1,-1
 -407 1201 l 1,2,3
 -407 1261 -407 1261 -414 1294.5 c 128,-1,4
 -421 1328 -421 1328 -429 1345 c 0,5,6
 -439 1364 -439 1364 -451 1370 c 1,7,-1
 -577 1244 l 1,8,-1
 -703 1370 l 1,9,10
 -715 1364 -715 1364 -725 1345 c 0,11,12
 -733 1328 -733 1328 -740 1294.5 c 128,-1,13
 -747 1261 -747 1261 -747 1201 c 1,14,-1
 -897 1201 l 1,15,16
 -897 1256 -897 1256 -887 1314 c 128,-1,17
 -877 1372 -877 1372 -851 1420.5 c 128,-1,18
 -825 1469 -825 1469 -779.5 1503 c 128,-1,19
 -734 1537 -734 1537 -663 1543 c 1,20,-1
 -577 1455 l 1,21,-1
 -491 1543 l 1,22,23
 -441 1543 -441 1543 -404.5 1526 c 128,-1,24
 -368 1509 -368 1509 -342.5 1481.5 c 128,-1,25
 -317 1454 -317 1454 -300.5 1419.5 c 128,-1,26
 -284 1385 -284 1385 -275 1351 c 1,27,-1
 -46 1351 l 1,0,-1
EndSplineSet
Ligature2: "Ligature Substitution lookup 46 subtable" maitaikhuthai maitrithai maitrithai
Ligature2: "Ligature Substitution lookup 45 subtable" yamakkanthai maitrithai
Ligature2: "Ligature Substitution lookup 45 subtable" maitaikhuthai maitrithai
Ligature2: "Ligature Substitution lookup 45 subtable" maitaikhuthai thanthakhatlowrightthai maitrithai
Ligature2: "Ligature Substitution lookup 45 subtable" maitaikhuthai maichattawalowrightthai maitrithai
Ligature2: "Ligature Substitution lookup 45 subtable" maitaikhuthai maitrilowrightthai maitrithai
Ligature2: "Ligature Substitution lookup 45 subtable" maitaikhuthai maitholowrightthai maitrithai
Ligature2: "Ligature Substitution lookup 45 subtable" maitaikhuthai maieklowrightthai maitrithai
Ligature2: "Ligature Substitution lookup 45 subtable" thanthakhatlowrightthai maitrithai
Ligature2: "Ligature Substitution lookup 45 subtable" maichattawalowrightthai maitrithai
Ligature2: "Ligature Substitution lookup 45 subtable" maitrilowrightthai maitrithai
Ligature2: "Ligature Substitution lookup 45 subtable" maitholowrightthai maitrithai
Ligature2: "Ligature Substitution lookup 45 subtable" maieklowrightthai maitrithai
Substitution2: "Single Substitution lookup 44 subtable" maitrilowleftthai
EndChar

StartChar: maichattawalowrightthai
Encoding: 142 142 112
AltUni2: 00f70d.ffffffff.0 00017d.ffffffff.0
Width: 0
VWidth: 2048
Flags: W
LayerCount: 2
Fore
SplineSet
-98 1303 m 1,0,-1
 -201 1303 l 1,1,-1
 -201 1201 l 1,2,-1
 -351 1201 l 1,3,-1
 -351 1303 l 1,4,-1
 -453 1303 l 1,5,-1
 -453 1453 l 1,6,-1
 -351 1453 l 1,7,-1
 -351 1556 l 1,8,-1
 -201 1556 l 1,9,-1
 -201 1453 l 1,10,-1
 -98 1453 l 1,11,-1
 -98 1303 l 1,0,-1
EndSplineSet
Ligature2: "Ligature Substitution lookup 46 subtable" maitaikhuthai maichattawathai maichattawathai
Ligature2: "Ligature Substitution lookup 45 subtable" yamakkanthai maichattawathai
Ligature2: "Ligature Substitution lookup 45 subtable" maitaikhuthai maichattawathai
Ligature2: "Ligature Substitution lookup 45 subtable" maitaikhuthai thanthakhatlowrightthai maichattawathai
Ligature2: "Ligature Substitution lookup 45 subtable" maitaikhuthai maichattawalowrightthai maichattawathai
Ligature2: "Ligature Substitution lookup 45 subtable" maitaikhuthai maitrilowrightthai maichattawathai
Ligature2: "Ligature Substitution lookup 45 subtable" maitaikhuthai maitholowrightthai maichattawathai
Ligature2: "Ligature Substitution lookup 45 subtable" maitaikhuthai maieklowrightthai maichattawathai
Ligature2: "Ligature Substitution lookup 45 subtable" thanthakhatlowrightthai maichattawathai
Ligature2: "Ligature Substitution lookup 45 subtable" maichattawalowrightthai maichattawathai
Ligature2: "Ligature Substitution lookup 45 subtable" maitrilowrightthai maichattawathai
Ligature2: "Ligature Substitution lookup 45 subtable" maitholowrightthai maichattawathai
Ligature2: "Ligature Substitution lookup 45 subtable" maieklowrightthai maichattawathai
Substitution2: "Single Substitution lookup 44 subtable" maichattawalowleftthai
EndChar

StartChar: thanthakhatlowrightthai
Encoding: 143 143 113
AltUni2: 00f70e.ffffffff.0
Width: 0
VWidth: 2048
Flags: W
LayerCount: 2
Fore
SplineSet
-522 1205 m 1,0,-1
 -522 1364 l 2,1,2
 -521 1383 -521 1383 -512 1399 c 0,3,4
 -505 1413 -505 1413 -490.5 1424 c 128,-1,5
 -476 1435 -476 1435 -450 1435 c 2,6,-1
 -98 1435 l 1,7,-1
 -98 1285 l 1,8,-1
 -372 1285 l 1,9,-1
 -372 1205 l 1,10,-1
 -522 1205 l 1,0,-1
EndSplineSet
Ligature2: "Ligature Substitution lookup 46 subtable" maitaikhuthai thanthakhatthai thanthakhatthai
Ligature2: "Ligature Substitution lookup 45 subtable" yamakkanthai thanthakhatthai
Ligature2: "Ligature Substitution lookup 45 subtable" maitaikhuthai thanthakhatthai
Ligature2: "Ligature Substitution lookup 45 subtable" maitaikhuthai thanthakhatlowrightthai thanthakhatthai
Ligature2: "Ligature Substitution lookup 45 subtable" maitaikhuthai maichattawalowrightthai thanthakhatthai
Ligature2: "Ligature Substitution lookup 45 subtable" maitaikhuthai maitrilowrightthai thanthakhatthai
Ligature2: "Ligature Substitution lookup 45 subtable" maitaikhuthai maitholowrightthai thanthakhatthai
Ligature2: "Ligature Substitution lookup 45 subtable" maitaikhuthai maieklowrightthai thanthakhatthai
Ligature2: "Ligature Substitution lookup 45 subtable" thanthakhatlowrightthai thanthakhatthai
Ligature2: "Ligature Substitution lookup 45 subtable" maichattawalowrightthai thanthakhatthai
Ligature2: "Ligature Substitution lookup 45 subtable" maitrilowrightthai thanthakhatthai
Ligature2: "Ligature Substitution lookup 45 subtable" maitholowrightthai thanthakhatthai
Ligature2: "Ligature Substitution lookup 45 subtable" maieklowrightthai thanthakhatthai
Substitution2: "Single Substitution lookup 44 subtable" thanthakhatlowleftthai
EndChar

StartChar: yoyingnobasethai
Encoding: 65539 -1 114
Width: 1704
VWidth: 2048
GlyphClass: 2
Flags: W
LayerCount: 2
Fore
SplineSet
1619 1074 m 1,0,-1
 1619 370 l 1,1,2
 1609 261 1609 261 1561 177 c 0,3,4
 1540 141 1540 141 1509.5 106.5 c 128,-1,5
 1479 72 1479 72 1435 45 c 128,-1,6
 1391 18 1391 18 1332.5 1.5 c 128,-1,7
 1274 -15 1274 -15 1198 -15 c 256,8,9
 1122 -15 1122 -15 1063.5 1.5 c 128,-1,10
 1005 18 1005 18 961 45 c 128,-1,11
 917 72 917 72 886.5 106.5 c 128,-1,12
 856 141 856 141 836 177 c 0,13,14
 788 261 788 261 778 370 c 1,15,-1
 778 664 l 2,16,17
 778 724 778 724 760.5 766 c 128,-1,18
 743 808 743 808 716 835 c 128,-1,19
 689 862 689 862 656.5 877.5 c 128,-1,20
 624 893 624 893 595 900 c 128,-1,21
 566 907 566 907 544 908.5 c 128,-1,22
 522 910 522 910 516 910 c 0,23,24
 468 910 468 910 431 899.5 c 128,-1,25
 394 889 394 889 366.5 871.5 c 128,-1,26
 339 854 339 854 320.5 832 c 128,-1,27
 302 810 302 810 290 787 c 0,28,29
 262 732 262 732 258 664 c 1,30,-1
 258 334 l 2,31,32
 261 281 261 281 281 241 c 0,33,34
 290 224 290 224 303 207.5 c 128,-1,35
 316 191 316 191 335.5 178 c 128,-1,36
 355 165 355 165 381 157 c 128,-1,37
 407 149 407 149 442 149 c 2,38,-1
 557 149 l 1,39,-1
 557 0 l 1,40,-1
 343 0 l 1,41,42
 275 5 275 5 221 39 c 0,43,44
 198 54 198 54 176.5 76.5 c 128,-1,45
 155 99 155 99 138 132 c 128,-1,46
 121 165 121 165 110.5 209 c 128,-1,47
 100 253 100 253 100 312 c 2,48,-1
 100 334 l 1,49,-1
 100 821 l 1,50,51
 133 882 133 882 172 925 c 128,-1,52
 211 968 211 968 252 997 c 128,-1,53
 293 1026 293 1026 333.5 1042.5 c 128,-1,54
 374 1059 374 1059 408.5 1067.5 c 128,-1,55
 443 1076 443 1076 469.5 1078 c 128,-1,56
 496 1080 496 1080 509 1080 c 2,57,-1
 516 1080 l 2,58,59
 620 1077 620 1077 692 1047 c 128,-1,60
 764 1017 764 1017 811 973.5 c 128,-1,61
 858 930 858 930 884 879 c 128,-1,62
 910 828 910 828 922 783 c 128,-1,63
 934 738 934 738 936.5 705 c 128,-1,64
 939 672 939 672 939 664 c 2,65,-1
 939 370 l 2,66,67
 939 330 939 330 950 299.5 c 128,-1,68
 961 269 961 269 979 246.5 c 128,-1,69
 997 224 997 224 1020.5 208.5 c 128,-1,70
 1044 193 1044 193 1068 183 c 0,71,72
 1125 159 1125 159 1198 155 c 1,73,74
 1271 159 1271 159 1328 183 c 0,75,76
 1352 193 1352 193 1375.5 208.5 c 128,-1,77
 1399 224 1399 224 1417.5 246.5 c 128,-1,78
 1436 269 1436 269 1447 299.5 c 128,-1,79
 1458 330 1458 330 1458 370 c 2,80,-1
 1458 1074 l 1,81,-1
 1619 1074 l 1,0,-1
EndSplineSet
Ligature2: "Ligature Substitution lookup 46 subtable" semicolon semicolon y o y i n g semicolon semicolon
Ligature2: "Ligature Substitution lookup 46 subtable" semicolon semicolon Y o y i n g semicolon semicolon
EndChar

StartChar: quoteleft
Encoding: 145 145 115
AltUni2: 002018.ffffffff.0
Width: 403
VWidth: 2048
Flags: W
LayerCount: 2
Fore
SplineSet
315 1177 m 0,0,1
 319 1158 319 1158 310 1147 c 0,2,3
 306 1142 306 1142 300 1138 c 0,4,5
 259 1118 259 1118 235 1099 c 128,-1,6
 211 1080 211 1080 199 1065 c 128,-1,7
 187 1050 187 1050 183.5 1039.5 c 128,-1,8
 180 1029 180 1029 180 1027 c 1,9,10
 202 1027 202 1027 222 1018.5 c 128,-1,11
 242 1010 242 1010 257 995.5 c 128,-1,12
 272 981 272 981 280.5 961.5 c 128,-1,13
 289 942 289 942 289 920 c 256,14,15
 289 898 289 898 280.5 878.5 c 128,-1,16
 272 859 272 859 257 844.5 c 128,-1,17
 242 830 242 830 222 821.5 c 128,-1,18
 202 813 202 813 180 813 c 0,19,20
 157 813 157 813 137.5 821.5 c 128,-1,21
 118 830 118 830 103.5 844.5 c 128,-1,22
 89 859 89 859 80.5 878.5 c 128,-1,23
 72 898 72 898 71 920 c 0,24,25
 69 972 69 972 83 1012.5 c 128,-1,26
 97 1053 97 1053 119 1083.5 c 128,-1,27
 141 1114 141 1114 168 1135 c 128,-1,28
 195 1156 195 1156 219.5 1170 c 128,-1,29
 244 1184 244 1184 262.5 1190.5 c 128,-1,30
 281 1197 281 1197 287 1199 c 0,31,32
 296 1201 296 1201 301.5 1198.5 c 128,-1,33
 307 1196 307 1196 310 1191 c 0,34,35
 314 1186 314 1186 315 1177 c 0,0,1
EndSplineSet
EndChar

StartChar: quoteright
Encoding: 146 146 116
AltUni2: 002019.ffffffff.0
Width: 395
VWidth: 2048
Flags: W
LayerCount: 2
Fore
SplineSet
92 851 m 0,0,1
 89 862 89 862 91 869 c 128,-1,2
 93 876 93 876 97 881 c 256,3,4
 101 886 101 886 107 890 c 0,5,6
 148 910 148 910 172 929 c 128,-1,7
 196 948 196 948 208 963 c 128,-1,8
 220 978 220 978 223.5 988.5 c 128,-1,9
 227 999 227 999 227 1001 c 1,10,11
 204 1001 204 1001 184.5 1009.5 c 128,-1,12
 165 1018 165 1018 150 1032.5 c 128,-1,13
 135 1047 135 1047 126.5 1066.5 c 128,-1,14
 118 1086 118 1086 118 1108 c 256,15,16
 118 1130 118 1130 126.5 1149.5 c 128,-1,17
 135 1169 135 1169 150 1183.5 c 128,-1,18
 165 1198 165 1198 184.5 1206.5 c 128,-1,19
 204 1215 204 1215 227 1215 c 0,20,21
 249 1215 249 1215 269 1206.5 c 128,-1,22
 289 1198 289 1198 303.5 1183.5 c 128,-1,23
 318 1169 318 1169 326.5 1149.5 c 128,-1,24
 335 1130 335 1130 336 1108 c 0,25,26
 337 1056 337 1056 323.5 1015.5 c 128,-1,27
 310 975 310 975 288 944.5 c 128,-1,28
 266 914 266 914 239 893 c 128,-1,29
 212 872 212 872 187.5 858 c 128,-1,30
 163 844 163 844 144.5 837.5 c 128,-1,31
 126 831 126 831 120 829 c 0,32,33
 111 826 111 826 105.5 829 c 128,-1,34
 100 832 100 832 97 837 c 0,35,36
 93 842 93 842 92 851 c 0,0,1
EndSplineSet
EndChar

StartChar: quotedblleft
Encoding: 147 147 117
AltUni2: 00201c.ffffffff.0
Width: 638
VWidth: 2048
Flags: W
LayerCount: 2
Fore
SplineSet
308 1177 m 0,0,1
 312 1158 312 1158 303 1147 c 0,2,3
 299 1142 299 1142 293 1138 c 0,4,5
 252 1118 252 1118 228 1099 c 128,-1,6
 204 1080 204 1080 192 1065 c 128,-1,7
 180 1050 180 1050 176.5 1039.5 c 128,-1,8
 173 1029 173 1029 173 1027 c 1,9,10
 195 1027 195 1027 215 1018.5 c 128,-1,11
 235 1010 235 1010 250 995.5 c 128,-1,12
 265 981 265 981 273.5 961.5 c 128,-1,13
 282 942 282 942 282 920 c 256,14,15
 282 898 282 898 273.5 878.5 c 128,-1,16
 265 859 265 859 250 844.5 c 128,-1,17
 235 830 235 830 215 821.5 c 128,-1,18
 195 813 195 813 173 813 c 0,19,20
 150 813 150 813 130.5 821.5 c 128,-1,21
 111 830 111 830 96.5 844.5 c 128,-1,22
 82 859 82 859 73.5 878.5 c 128,-1,23
 65 898 65 898 64 920 c 0,24,25
 62 972 62 972 76 1012.5 c 128,-1,26
 90 1053 90 1053 112 1083.5 c 128,-1,27
 134 1114 134 1114 161 1135 c 128,-1,28
 188 1156 188 1156 212.5 1170 c 128,-1,29
 237 1184 237 1184 255.5 1190.5 c 128,-1,30
 274 1197 274 1197 280 1199 c 0,31,32
 289 1201 289 1201 294.5 1198.5 c 128,-1,33
 300 1196 300 1196 303 1191 c 0,34,35
 307 1186 307 1186 308 1177 c 0,0,1
564 1177 m 0,36,37
 568 1158 568 1158 559 1147 c 0,38,39
 555 1142 555 1142 549 1138 c 0,40,41
 508 1118 508 1118 484 1099 c 128,-1,42
 460 1080 460 1080 448 1065 c 128,-1,43
 436 1050 436 1050 432.5 1039.5 c 128,-1,44
 429 1029 429 1029 429 1027 c 1,45,46
 451 1027 451 1027 471 1018.5 c 128,-1,47
 491 1010 491 1010 506 995.5 c 128,-1,48
 521 981 521 981 529.5 961.5 c 128,-1,49
 538 942 538 942 538 920 c 256,50,51
 538 898 538 898 529.5 878.5 c 128,-1,52
 521 859 521 859 506 844.5 c 128,-1,53
 491 830 491 830 471 821.5 c 128,-1,54
 451 813 451 813 429 813 c 0,55,56
 406 813 406 813 386.5 821.5 c 128,-1,57
 367 830 367 830 352.5 844.5 c 128,-1,58
 338 859 338 859 329.5 878.5 c 128,-1,59
 321 898 321 898 320 920 c 0,60,61
 318 972 318 972 332 1012.5 c 128,-1,62
 346 1053 346 1053 368 1083.5 c 128,-1,63
 390 1114 390 1114 417 1135 c 128,-1,64
 444 1156 444 1156 468.5 1170 c 128,-1,65
 493 1184 493 1184 511.5 1190.5 c 128,-1,66
 530 1197 530 1197 536 1199 c 0,67,68
 545 1201 545 1201 550.5 1198.5 c 128,-1,69
 556 1196 556 1196 559 1191 c 0,70,71
 563 1186 563 1186 564 1177 c 0,36,37
EndSplineSet
Ligature2: "'liga' Standard Ligatures in Latin lookup 37 subtable" quoteleft quoteleft
EndChar

StartChar: quotedblright
Encoding: 148 148 118
AltUni2: 00201d.ffffffff.0
Width: 672
VWidth: 2048
Flags: W
LayerCount: 2
Fore
SplineSet
348 851 m 0,0,1
 345 862 345 862 347 869 c 128,-1,2
 349 876 349 876 353 881 c 256,3,4
 357 886 357 886 363 890 c 0,5,6
 404 910 404 910 428 929 c 128,-1,7
 452 948 452 948 464 963 c 128,-1,8
 476 978 476 978 479.5 988.5 c 128,-1,9
 483 999 483 999 483 1001 c 1,10,11
 460 1001 460 1001 440.5 1009.5 c 128,-1,12
 421 1018 421 1018 406 1032.5 c 128,-1,13
 391 1047 391 1047 382.5 1066.5 c 128,-1,14
 374 1086 374 1086 374 1108 c 256,15,16
 374 1130 374 1130 382.5 1149.5 c 128,-1,17
 391 1169 391 1169 406 1183.5 c 128,-1,18
 421 1198 421 1198 440.5 1206.5 c 128,-1,19
 460 1215 460 1215 483 1215 c 0,20,21
 505 1215 505 1215 525 1206.5 c 128,-1,22
 545 1198 545 1198 559.5 1183.5 c 128,-1,23
 574 1169 574 1169 582.5 1149.5 c 128,-1,24
 591 1130 591 1130 592 1108 c 0,25,26
 594 1056 594 1056 580 1015.5 c 128,-1,27
 566 975 566 975 544 944.5 c 128,-1,28
 522 914 522 914 495 893 c 128,-1,29
 468 872 468 872 443.5 858 c 128,-1,30
 419 844 419 844 400.5 837.5 c 128,-1,31
 382 831 382 831 376 829 c 0,32,33
 367 826 367 826 361.5 829 c 128,-1,34
 356 832 356 832 353 837 c 0,35,36
 349 842 349 842 348 851 c 0,0,1
92 851 m 0,37,38
 89 862 89 862 91 869 c 128,-1,39
 93 876 93 876 97 881 c 256,40,41
 101 886 101 886 107 890 c 0,42,43
 148 910 148 910 172 929 c 128,-1,44
 196 948 196 948 208 963 c 128,-1,45
 220 978 220 978 223.5 988.5 c 128,-1,46
 227 999 227 999 227 1001 c 1,47,48
 204 1001 204 1001 184.5 1009.5 c 128,-1,49
 165 1018 165 1018 150 1032.5 c 128,-1,50
 135 1047 135 1047 126.5 1066.5 c 128,-1,51
 118 1086 118 1086 118 1108 c 256,52,53
 118 1130 118 1130 126.5 1149.5 c 128,-1,54
 135 1169 135 1169 150 1183.5 c 128,-1,55
 165 1198 165 1198 184.5 1206.5 c 128,-1,56
 204 1215 204 1215 227 1215 c 0,57,58
 249 1215 249 1215 269 1206.5 c 128,-1,59
 289 1198 289 1198 303.5 1183.5 c 128,-1,60
 318 1169 318 1169 326.5 1149.5 c 128,-1,61
 335 1130 335 1130 336 1108 c 0,62,63
 337 1056 337 1056 323.5 1015.5 c 128,-1,64
 310 975 310 975 288 944.5 c 128,-1,65
 266 914 266 914 239 893 c 128,-1,66
 212 872 212 872 187.5 858 c 128,-1,67
 163 844 163 844 144.5 837.5 c 128,-1,68
 126 831 126 831 120 829 c 0,69,70
 111 826 111 826 105.5 829 c 128,-1,71
 100 832 100 832 97 837 c 0,72,73
 93 842 93 842 92 851 c 0,37,38
EndSplineSet
Ligature2: "'liga' Standard Ligatures in Latin lookup 37 subtable" quoteright quoteright
EndChar

StartChar: bullet
Encoding: 149 149 119
AltUni2: 002022.ffffffff.0
Width: 702
VWidth: 2048
Flags: W
LayerCount: 2
Fore
SplineSet
350 133 m 256,0,1
 298 133 298 133 251.5 153.5 c 128,-1,2
 205 174 205 174 170 208.5 c 128,-1,3
 135 243 135 243 114.5 289.5 c 128,-1,4
 94 336 94 336 94 389 c 0,5,6
 94 441 94 441 114.5 488 c 128,-1,7
 135 535 135 535 170.5 569.5 c 128,-1,8
 206 604 206 604 252.5 624.5 c 128,-1,9
 299 645 299 645 350 645 c 0,10,11
 402 645 402 645 449 624.5 c 128,-1,12
 496 604 496 604 530.5 569.5 c 128,-1,13
 565 535 565 535 585.5 488 c 128,-1,14
 606 441 606 441 606 389 c 0,15,16
 606 338 606 338 585.5 291.5 c 128,-1,17
 565 245 565 245 530.5 209.5 c 128,-1,18
 496 174 496 174 449 153.5 c 128,-1,19
 402 133 402 133 350 133 c 256,0,1
EndSplineSet
EndChar

StartChar: endash
Encoding: 150 150 120
AltUni2: 002013.ffffffff.0
Width: 857
VWidth: 2048
Flags: W
LayerCount: 2
Fore
SplineSet
67 603 m 1,0,-1
 783 603 l 1,1,-1
 783 453 l 1,2,-1
 67 453 l 1,3,-1
 67 603 l 1,0,-1
EndSplineSet
EndChar

StartChar: emdash
Encoding: 151 151 121
AltUni2: 002014.ffffffff.0
Width: 854
VWidth: 2048
Flags: W
LayerCount: 2
Fore
SplineSet
67 603 m 1,0,-1
 783 603 l 1,1,-1
 783 453 l 1,2,-1
 67 453 l 1,3,-1
 67 603 l 1,0,-1
EndSplineSet
EndChar

StartChar: maihanakatleftthai
Encoding: 152 152 122
AltUni2: 00f710.ffffffff.0 0002dc.ffffffff.0
Width: 0
VWidth: 2048
Flags: W
LayerCount: 2
Fore
SplineSet
-735 1496 m 1,0,-1
 -735 1416 l 1,1,-1
 -333 1416 l 1,2,-1
 -333 1266 l 1,3,-1
 -814 1266 l 2,4,5
 -840 1266 -840 1266 -854 1276.5 c 128,-1,6
 -868 1287 -868 1287 -875 1301 c 0,7,8
 -883 1317 -883 1317 -885 1337 c 2,9,-1
 -885 1496 l 1,10,-1
 -735 1496 l 1,0,-1
EndSplineSet
EndChar

StartChar: nikhahitleftthai
Encoding: 153 153 123
AltUni2: 00f711.ffffffff.0 002122.ffffffff.0
Width: 0
VWidth: 2048
Flags: W
LayerCount: 2
Fore
SplineSet
-517 1533 m 256,0,1
 -478 1533 -478 1533 -444 1518.5 c 128,-1,2
 -410 1504 -410 1504 -384.5 1478.5 c 128,-1,3
 -359 1453 -359 1453 -344 1419 c 128,-1,4
 -329 1385 -329 1385 -329 1346 c 256,5,6
 -329 1307 -329 1307 -344 1273 c 128,-1,7
 -359 1239 -359 1239 -384.5 1213.5 c 128,-1,8
 -410 1188 -410 1188 -444 1173.5 c 128,-1,9
 -478 1159 -478 1159 -517 1159 c 256,10,11
 -556 1159 -556 1159 -590 1173.5 c 128,-1,12
 -624 1188 -624 1188 -649.5 1213.5 c 128,-1,13
 -675 1239 -675 1239 -689.5 1273 c 128,-1,14
 -704 1307 -704 1307 -704 1346 c 256,15,16
 -704 1385 -704 1385 -689.5 1419 c 128,-1,17
 -675 1453 -675 1453 -649.5 1478.5 c 128,-1,18
 -624 1504 -624 1504 -590 1518.5 c 128,-1,19
 -556 1533 -556 1533 -517 1533 c 256,0,1
-517 1284 m 256,20,21
 -491 1284 -491 1284 -472.5 1302 c 128,-1,22
 -454 1320 -454 1320 -454 1346 c 256,23,24
 -454 1372 -454 1372 -472.5 1390 c 128,-1,25
 -491 1408 -491 1408 -517 1408 c 256,26,27
 -543 1408 -543 1408 -561 1390 c 128,-1,28
 -579 1372 -579 1372 -579 1346 c 256,29,30
 -579 1320 -579 1320 -561 1302 c 128,-1,31
 -543 1284 -543 1284 -517 1284 c 256,20,21
EndSplineSet
EndChar

StartChar: maitaikhuleftthai
Encoding: 154 154 124
AltUni2: 00f712.ffffffff.0 000161.ffffffff.0
Width: 0
VWidth: 2048
Flags: W
LayerCount: 2
Fore
SplineSet
-295 1485 m 1,0,-1
 -750 1485 l 2,1,2
 -764 1485 -764 1485 -773.5 1478 c 128,-1,3
 -783 1471 -783 1471 -789 1459.5 c 128,-1,4
 -795 1448 -795 1448 -798 1434.5 c 128,-1,5
 -801 1421 -801 1421 -801 1409 c 0,6,7
 -801 1395 -801 1395 -797.5 1380.5 c 128,-1,8
 -794 1366 -794 1366 -787.5 1354.5 c 128,-1,9
 -781 1343 -781 1343 -772 1335.5 c 128,-1,10
 -763 1328 -763 1328 -752 1328 c 0,11,12
 -736 1328 -736 1328 -726.5 1336 c 128,-1,13
 -717 1344 -717 1344 -712 1355 c 128,-1,14
 -707 1366 -707 1366 -705.5 1378 c 128,-1,15
 -704 1390 -704 1390 -704 1399 c 2,16,-1
 -704 1411 l 1,17,-1
 -581 1411 l 1,18,-1
 -581 1403 l 2,19,20
 -581 1395 -581 1395 -579.5 1382.5 c 128,-1,21
 -578 1370 -578 1370 -573 1358 c 128,-1,22
 -568 1346 -568 1346 -558 1337 c 128,-1,23
 -548 1328 -548 1328 -531 1328 c 256,24,25
 -514 1328 -514 1328 -504.5 1336.5 c 128,-1,26
 -495 1345 -495 1345 -490 1356.5 c 128,-1,27
 -485 1368 -485 1368 -483.5 1380.5 c 128,-1,28
 -482 1393 -482 1393 -482 1401 c 2,29,-1
 -482 1411 l 1,30,-1
 -354 1411 l 1,31,32
 -354 1348 -354 1348 -371.5 1307.5 c 128,-1,33
 -389 1267 -389 1267 -415.5 1243 c 128,-1,34
 -442 1219 -442 1219 -472.5 1209.5 c 128,-1,35
 -503 1200 -503 1200 -529 1200 c 256,36,37
 -555 1200 -555 1200 -575.5 1206 c 128,-1,38
 -596 1212 -596 1212 -611 1220 c 0,39,40
 -629 1229 -629 1229 -642 1241 c 1,41,42
 -647 1237 -647 1237 -658.5 1230 c 128,-1,43
 -670 1223 -670 1223 -685.5 1216.5 c 128,-1,44
 -701 1210 -701 1210 -718.5 1205 c 128,-1,45
 -736 1200 -736 1200 -752 1200 c 0,46,47
 -763 1200 -763 1200 -780 1202 c 128,-1,48
 -797 1204 -797 1204 -816.5 1211 c 128,-1,49
 -836 1218 -836 1218 -856 1231.5 c 128,-1,50
 -876 1245 -876 1245 -892 1268 c 128,-1,51
 -908 1291 -908 1291 -918 1325 c 128,-1,52
 -928 1359 -928 1359 -928 1408 c 0,53,54
 -928 1476 -928 1476 -903.5 1520 c 128,-1,55
 -879 1564 -879 1564 -848 1589.5 c 128,-1,56
 -817 1615 -817 1615 -788 1625 c 128,-1,57
 -759 1635 -759 1635 -750 1635 c 2,58,-1
 -295 1635 l 1,59,-1
 -295 1485 l 1,0,-1
EndSplineSet
EndChar

StartChar: maiekupperleftthai
Encoding: 155 155 125
AltUni2: 00f713.ffffffff.0 00203a.ffffffff.0
Width: 0
VWidth: 2048
Flags: W
LayerCount: 2
Fore
SplineSet
-445 1974 m 1,0,-1
 -445 1670 l 1,1,-1
 -595 1670 l 1,2,-1
 -595 1974 l 1,3,-1
 -445 1974 l 1,0,-1
EndSplineSet
EndChar

StartChar: maithoupperleftthai
Encoding: 156 156 126
AltUni2: 00f714.ffffffff.0 000153.ffffffff.0
Width: 0
VWidth: 2048
Flags: W
LayerCount: 2
Fore
SplineSet
-150 1818 m 1,0,-1
 -150 1668 l 1,1,-1
 -594 1668 l 1,2,-1
 -594 1869 l 1,3,-1
 -674 1869 l 1,4,-1
 -674 2019 l 1,5,-1
 -515 2019 l 2,6,7
 -496 2017 -496 2017 -480 2009 c 0,8,9
 -466 2002 -466 2002 -455 1987.5 c 128,-1,10
 -444 1973 -444 1973 -444 1948 c 2,11,-1
 -444 1818 l 1,12,-1
 -150 1818 l 1,0,-1
EndSplineSet
EndChar

StartChar: maitriupperleftthai
Encoding: 157 157 127
AltUni2: 00f715.ffffffff.0
Width: 0
VWidth: 2048
Flags: W
LayerCount: 2
Fore
SplineSet
-316 1769 m 1,0,-1
 -316 1619 l 1,1,-1
 -560 1619 l 1,2,3
 -560 1679 -560 1679 -567 1712.5 c 128,-1,4
 -574 1746 -574 1746 -582 1763 c 0,5,6
 -592 1782 -592 1782 -604 1788 c 1,7,-1
 -730 1662 l 1,8,-1
 -856 1788 l 1,9,10
 -868 1782 -868 1782 -878 1763 c 0,11,12
 -886 1746 -886 1746 -893 1712.5 c 128,-1,13
 -900 1679 -900 1679 -900 1619 c 1,14,-1
 -1050 1619 l 1,15,16
 -1050 1674 -1050 1674 -1040 1732 c 128,-1,17
 -1030 1790 -1030 1790 -1004 1838.5 c 128,-1,18
 -978 1887 -978 1887 -932.5 1921 c 128,-1,19
 -887 1955 -887 1955 -816 1961 c 1,20,-1
 -730 1873 l 1,21,-1
 -644 1961 l 1,22,23
 -594 1961 -594 1961 -557.5 1944 c 128,-1,24
 -521 1927 -521 1927 -495.5 1899.5 c 128,-1,25
 -470 1872 -470 1872 -453.5 1837.5 c 128,-1,26
 -437 1803 -437 1803 -428 1769 c 1,27,-1
 -316 1769 l 1,0,-1
EndSplineSet
EndChar

StartChar: maichattawaupperleftthai
Encoding: 158 158 128
AltUni2: 00f716.ffffffff.0 00017e.ffffffff.0
Width: 0
VWidth: 2048
Flags: W
LayerCount: 2
Fore
SplineSet
-201 1765 m 1,0,-1
 -304 1765 l 1,1,-1
 -304 1663 l 1,2,-1
 -454 1663 l 1,3,-1
 -454 1765 l 1,4,-1
 -556 1765 l 1,5,-1
 -556 1915 l 1,6,-1
 -454 1915 l 1,7,-1
 -454 2018 l 1,8,-1
 -304 2018 l 1,9,-1
 -304 1915 l 1,10,-1
 -201 1915 l 1,11,-1
 -201 1765 l 1,0,-1
EndSplineSet
EndChar

StartChar: thanthakhatupperleftthai
Encoding: 159 159 129
AltUni2: 00f717.ffffffff.0 000178.ffffffff.0
Width: 0
VWidth: 2048
Flags: W
LayerCount: 2
Fore
SplineSet
-727 1661 m 1,0,-1
 -727 1820 l 2,1,2
 -726 1839 -726 1839 -717 1855 c 0,3,4
 -710 1869 -710 1869 -695.5 1880 c 128,-1,5
 -681 1891 -681 1891 -655 1891 c 2,6,-1
 -303 1891 l 1,7,-1
 -303 1741 l 1,8,-1
 -577 1741 l 1,9,-1
 -577 1661 l 1,10,-1
 -727 1661 l 1,0,-1
EndSplineSet
EndChar

StartChar: kokaithai
Encoding: 161 161 131
AltUni2: 000e01.ffffffff.0
Width: 1043
VWidth: 2048
Flags: W
LayerCount: 2
Fore
SplineSet
100 0 m 1,0,-1
 100 822 l 1,1,2
 133 883 133 883 172 926 c 128,-1,3
 211 969 211 969 252.5 997.5 c 128,-1,4
 294 1026 294 1026 334.5 1042.5 c 128,-1,5
 375 1059 375 1059 409.5 1067.5 c 128,-1,6
 444 1076 444 1076 470 1078 c 128,-1,7
 496 1080 496 1080 509 1080 c 2,8,-1
 519 1080 l 2,9,10
 597 1078 597 1078 656 1060 c 128,-1,11
 715 1042 715 1042 759.5 1014.5 c 128,-1,12
 804 987 804 987 834.5 952 c 128,-1,13
 865 917 865 917 885 880 c 128,-1,14
 905 843 905 843 916 807 c 128,-1,15
 927 771 927 771 932.5 741.5 c 128,-1,16
 938 712 938 712 939 691.5 c 128,-1,17
 940 671 940 671 940 665 c 2,18,-1
 940 0 l 1,19,-1
 780 0 l 1,20,-1
 780 665 l 2,21,22
 780 729 780 729 762.5 772.5 c 128,-1,23
 745 816 745 816 718 844.5 c 128,-1,24
 691 873 691 873 658.5 888 c 128,-1,25
 626 903 626 903 597 910.5 c 128,-1,26
 568 918 568 918 546.5 919 c 128,-1,27
 525 920 525 920 519 920 c 0,28,29
 470 920 470 920 433 909 c 128,-1,30
 396 898 396 898 368.5 880 c 128,-1,31
 341 862 341 862 322.5 839 c 128,-1,32
 304 816 304 816 292 792 c 0,33,34
 264 736 264 736 260 665 c 1,35,-1
 260 0 l 1,36,-1
 100 0 l 1,0,-1
EndSplineSet
EndChar

StartChar: khokhaithai
Encoding: 162 162 132
AltUni2: 000e02.ffffffff.0
Width: 939
VWidth: 2048
Flags: W
LayerCount: 2
Fore
SplineSet
836 1074 m 1,0,-1
 836 354 l 2,1,2
 836 264 836 264 810.5 201.5 c 128,-1,3
 785 139 785 139 745.5 98 c 128,-1,4
 706 57 706 57 659.5 34 c 128,-1,5
 613 11 613 11 570.5 0.5 c 128,-1,6
 528 -10 528 -10 496 -12.5 c 128,-1,7
 464 -15 464 -15 455 -15 c 0,8,9
 361 -15 361 -15 296 10 c 128,-1,10
 231 35 231 35 188.5 73.5 c 128,-1,11
 146 112 146 112 122 158.5 c 128,-1,12
 98 205 98 205 87 246.5 c 128,-1,13
 76 288 76 288 73.5 320 c 128,-1,14
 71 352 71 352 71 362 c 0,15,16
 71 415 71 415 86 457 c 128,-1,17
 101 499 101 499 124 533 c 128,-1,18
 147 567 147 567 174 595 c 128,-1,19
 201 623 201 623 225 648.5 c 128,-1,20
 249 674 249 674 266 697.5 c 128,-1,21
 283 721 283 721 286 746 c 0,22,23
 287 753 287 753 287 758.5 c 128,-1,24
 287 764 287 764 287 770 c 0,25,26
 287 806 287 806 275 831.5 c 128,-1,27
 263 857 263 857 243.5 874 c 128,-1,28
 224 891 224 891 200.5 901 c 128,-1,29
 177 911 177 911 154 916 c 128,-1,30
 131 921 131 921 111.5 922.5 c 128,-1,31
 92 924 92 924 81 924 c 2,32,-1
 70 924 l 1,33,-1
 70 1074 l 1,34,-1
 165 1074 l 2,35,36
 230 1074 230 1074 276 1056 c 128,-1,37
 322 1038 322 1038 353 1010 c 128,-1,38
 384 982 384 982 402.5 947 c 128,-1,39
 421 912 421 912 430.5 877.5 c 128,-1,40
 440 843 440 843 442.5 813.5 c 128,-1,41
 445 784 445 784 445 766 c 0,42,43
 445 761 445 761 444.5 757 c 128,-1,44
 444 753 444 753 444 751 c 2,45,-1
 444 746 l 2,46,47
 441 717 441 717 429 689.5 c 128,-1,48
 417 662 417 662 403 639 c 0,49,50
 387 613 387 613 368 588 c 0,51,52
 322 536 322 536 296.5 495 c 128,-1,53
 271 454 271 454 258.5 424.5 c 128,-1,54
 246 395 246 395 243.5 377.5 c 128,-1,55
 241 360 241 360 241 354 c 0,56,57
 241 299 241 299 255.5 261.5 c 128,-1,58
 270 224 270 224 292 200 c 128,-1,59
 314 176 314 176 340 162.5 c 128,-1,60
 366 149 366 149 390 143 c 128,-1,61
 414 137 414 137 431.5 136 c 128,-1,62
 449 135 449 135 455 135 c 0,63,64
 505 135 505 135 540.5 149.5 c 128,-1,65
 576 164 576 164 600.5 186.5 c 128,-1,66
 625 209 625 209 640 235.5 c 128,-1,67
 655 262 655 262 663 286.5 c 128,-1,68
 671 311 671 311 673.5 329.5 c 128,-1,69
 676 348 676 348 676 354 c 2,70,-1
 676 1074 l 1,71,-1
 836 1074 l 1,0,-1
EndSplineSet
EndChar

StartChar: khokhuatthai
Encoding: 163 163 133
AltUni2: 000e03.ffffffff.0
Width: 1016
VWidth: 2048
Flags: W
LayerCount: 2
Fore
SplineSet
445 966 m 2,0,1
 464 945 464 945 475 916.5 c 128,-1,2
 486 888 486 888 491.5 859 c 128,-1,3
 497 830 497 830 498 804.5 c 128,-1,4
 499 779 499 779 499 764 c 2,5,-1
 499 745 l 1,6,7
 495 716 495 716 483 688 c 128,-1,8
 471 660 471 660 457 637 c 0,9,10
 441 611 441 611 422 587 c 0,11,12
 376 535 376 535 350.5 494 c 128,-1,13
 325 453 325 453 312.5 423.5 c 128,-1,14
 300 394 300 394 297.5 376.5 c 128,-1,15
 295 359 295 359 295 353 c 0,16,17
 295 299 295 299 309.5 261.5 c 128,-1,18
 324 224 324 224 346 199.5 c 128,-1,19
 368 175 368 175 394.5 162 c 128,-1,20
 421 149 421 149 444.5 143 c 128,-1,21
 468 137 468 137 486 136 c 128,-1,22
 504 135 504 135 510 135 c 0,23,24
 559 135 559 135 595 149.5 c 128,-1,25
 631 164 631 164 655 186.5 c 128,-1,26
 679 209 679 209 694 235.5 c 128,-1,27
 709 262 709 262 717 286 c 128,-1,28
 725 310 725 310 727.5 328.5 c 128,-1,29
 730 347 730 347 730 353 c 2,30,-1
 730 1073 l 1,31,-1
 890 1073 l 1,32,-1
 890 353 l 2,33,34
 890 263 890 263 864.5 200.5 c 128,-1,35
 839 138 839 138 800 97 c 128,-1,36
 761 56 761 56 714.5 33.5 c 128,-1,37
 668 11 668 11 625.5 0 c 128,-1,38
 583 -11 583 -11 551 -13 c 128,-1,39
 519 -15 519 -15 510 -15 c 0,40,41
 416 -15 416 -15 350.5 10 c 128,-1,42
 285 35 285 35 242.5 73.5 c 128,-1,43
 200 112 200 112 176 158 c 128,-1,44
 152 204 152 204 141 246 c 128,-1,45
 130 288 130 288 127.5 320 c 128,-1,46
 125 352 125 352 125 362 c 0,47,48
 125 415 125 415 140 456.5 c 128,-1,49
 155 498 155 498 178 532.5 c 128,-1,50
 201 567 201 567 228 595 c 128,-1,51
 255 623 255 623 279 648 c 128,-1,52
 303 673 303 673 320 696.5 c 128,-1,53
 337 720 337 720 340 745 c 0,54,55
 342 751 342 751 342 756.5 c 128,-1,56
 342 762 342 762 342 768 c 0,57,58
 342 791 342 791 337 809 c 128,-1,59
 332 827 332 827 324 842 c 1,60,-1
 245 770 l 1,61,-1
 60 971 l 1,62,-1
 167 1073 l 1,63,-1
 251 979 l 1,64,-1
 344 1073 l 1,65,-1
 445 966 l 2,0,1
EndSplineSet
EndChar

StartChar: khokhwaithai
Encoding: 164 164 134
AltUni2: 000e04.ffffffff.0
Width: 1039
VWidth: 2048
Flags: W
LayerCount: 2
Fore
SplineSet
520 1080 m 1,0,1
 620 1080 620 1080 690.5 1053.5 c 128,-1,2
 761 1027 761 1027 807.5 986 c 128,-1,3
 854 945 854 945 880.5 896 c 128,-1,4
 907 847 907 847 920.5 800.5 c 128,-1,5
 934 754 934 754 937 717 c 128,-1,6
 940 680 940 680 940 664 c 2,7,-1
 940 654 l 1,8,-1
 940 0 l 1,9,-1
 780 0 l 1,10,-1
 780 654 l 2,11,12
 780 704 780 704 769 742 c 128,-1,13
 758 780 758 780 739.5 808 c 128,-1,14
 721 836 721 836 697.5 855.5 c 128,-1,15
 674 875 674 875 650 887 c 0,16,17
 593 916 593 916 520 920 c 0,18,19
 473 920 473 920 437.5 908.5 c 128,-1,20
 402 897 402 897 375 878 c 128,-1,21
 348 859 348 859 329 835.5 c 128,-1,22
 310 812 310 812 297 787 c 0,23,24
 267 728 267 728 260 654 c 1,25,-1
 260 545 l 1,26,27
 353 600 353 600 466 600 c 0,28,29
 519 600 519 600 563 588 c 1,30,-1
 563 423 l 1,31,32
 543 433 543 433 518.5 434.5 c 128,-1,33
 494 436 494 436 466 436 c 0,34,35
 392 436 392 436 337 400 c 0,36,37
 309 382 309 382 290.5 355.5 c 128,-1,38
 272 329 272 329 260 296 c 1,39,-1
 260 0 l 1,40,-1
 100 0 l 1,41,-1
 100 665 l 2,42,43
 100 764 100 764 126 833.5 c 128,-1,44
 152 903 152 903 192.5 949 c 128,-1,45
 233 995 233 995 281.5 1021.5 c 128,-1,46
 330 1048 330 1048 375.5 1061 c 128,-1,47
 421 1074 421 1074 457.5 1077 c 128,-1,48
 494 1080 494 1080 510 1080 c 2,49,-1
 520 1080 l 1,50,-1
 520 1080 l 1,0,1
EndSplineSet
EndChar

StartChar: khokhonthai
Encoding: 165 165 135
AltUni2: 000e05.ffffffff.0
Width: 1035
VWidth: 2048
Flags: W
LayerCount: 2
Fore
SplineSet
867 967 m 0,0,1
 928 890 928 890 940 778 c 1,2,-1
 940 0 l 1,3,-1
 780 0 l 1,4,-1
 780 718 l 2,5,6
 780 784 780 784 757 832 c 0,7,8
 733 880 733 880 693 907 c 1,9,-1
 520 795 l 1,10,-1
 348 907 l 1,11,12
 306 879 306 879 283 832 c 0,13,14
 260 784 260 784 260 718 c 2,15,-1
 260 545 l 1,16,17
 353 600 353 600 467 600 c 0,18,19
 519 600 519 600 564 588 c 1,20,-1
 564 423 l 1,21,22
 543 433 543 433 518.5 434.5 c 128,-1,23
 494 436 494 436 467 436 c 0,24,25
 392 436 392 436 338 400 c 0,26,27
 309 382 309 382 290.5 355.5 c 128,-1,28
 272 329 272 329 260 296 c 1,29,-1
 260 0 l 1,30,-1
 100 0 l 1,31,-1
 100 778 l 1,32,33
 112 888 112 888 174 967 c 256,34,35
 236 1046 236 1046 332 1082 c 1,36,-1
 520 966 l 1,37,-1
 708 1082 l 1,38,39
 803 1046 803 1046 867 967 c 0,0,1
EndSplineSet
EndChar

StartChar: khorakhangthai
Encoding: 166 166 136
AltUni2: 000e06.ffffffff.0
Width: 1223
VWidth: 2048
Flags: W
LayerCount: 2
Fore
SplineSet
1117 1073 m 1,0,-1
 1117 407 l 1,1,-1
 1117 394 l 2,2,3
 1117 376 1117 376 1114 339 c 128,-1,4
 1111 302 1111 302 1098.5 256.5 c 128,-1,5
 1086 211 1086 211 1062 163 c 128,-1,6
 1038 115 1038 115 995.5 75.5 c 128,-1,7
 953 36 953 36 889.5 10.5 c 128,-1,8
 826 -15 826 -15 735 -15 c 2,9,-1
 697 -15 l 1,10,11
 629 -10 629 -10 574 9 c 0,12,13
 551 17 551 17 528 29 c 128,-1,14
 505 41 505 41 487 58 c 128,-1,15
 469 75 469 75 457 97.5 c 128,-1,16
 445 120 445 120 444 150 c 2,17,-1
 444 0 l 1,18,-1
 284 0 l 1,19,-1
 284 864 l 1,20,-1
 185 770 l 1,21,-1
 0 972 l 1,22,-1
 108 1073 l 1,23,-1
 192 979 l 1,24,-1
 284 1073 l 1,25,-1
 444 1073 l 1,26,-1
 444 407 l 2,27,28
 444 403 444 403 445.5 381 c 128,-1,29
 447 359 447 359 454.5 329 c 128,-1,30
 462 299 462 299 477.5 265 c 128,-1,31
 493 231 493 231 521 202 c 128,-1,32
 549 173 549 173 592 154 c 128,-1,33
 635 135 635 135 697 135 c 0,34,35
 703 135 703 135 725 136.5 c 128,-1,36
 747 138 747 138 776 145.5 c 128,-1,37
 805 153 805 153 837 169 c 128,-1,38
 869 185 869 185 895.5 215.5 c 128,-1,39
 922 246 922 246 939.5 292.5 c 128,-1,40
 957 339 957 339 957 407 c 2,41,-1
 957 1073 l 1,42,-1
 1117 1073 l 1,0,-1
EndSplineSet
EndChar

StartChar: ngonguthai
Encoding: 167 167 137
AltUni2: 000e07.ffffffff.0
Width: 640
VWidth: 2048
Flags: W
LayerCount: 2
Fore
SplineSet
241 1074 m 1,0,-1
 553 1074 l 1,1,-1
 553 300 l 2,2,3
 553 223 553 223 533.5 169.5 c 128,-1,4
 514 116 514 116 484.5 81 c 128,-1,5
 455 46 455 46 419.5 26.5 c 128,-1,6
 384 7 384 7 352 -2 c 128,-1,7
 320 -11 320 -11 296.5 -13 c 128,-1,8
 273 -15 273 -15 267 -15 c 0,9,10
 198 -15 198 -15 149 3 c 128,-1,11
 100 21 100 21 67 43 c 0,12,13
 28 69 28 69 2 101 c 1,14,-1
 110 206 l 1,15,16
 115 201 115 201 126.5 189.5 c 128,-1,17
 138 178 138 178 156.5 166 c 128,-1,18
 175 154 175 154 202.5 144.5 c 128,-1,19
 230 135 230 135 267 135 c 0,20,21
 290 135 290 135 307.5 142 c 128,-1,22
 325 149 325 149 338.5 160.5 c 128,-1,23
 352 172 352 172 361 187 c 128,-1,24
 370 202 370 202 376 217 c 0,25,26
 390 253 390 253 393 300 c 2,27,-1
 393 924 l 1,28,-1
 241 924 l 1,29,-1
 241 1074 l 1,0,-1
EndSplineSet
EndChar

StartChar: chochanthai
Encoding: 168 168 138
AltUni2: 000e08.ffffffff.0
Width: 954
VWidth: 2048
Flags: W
LayerCount: 2
Fore
SplineSet
446 1080 m 1,0,1
 462 1080 462 1080 498.5 1077 c 128,-1,2
 535 1074 535 1074 580.5 1061 c 128,-1,3
 626 1048 626 1048 675 1022 c 128,-1,4
 724 996 724 996 764.5 949.5 c 128,-1,5
 805 903 805 903 831 833.5 c 128,-1,6
 857 764 857 764 857 665 c 2,7,-1
 857 0 l 1,8,-1
 696 0 l 1,9,-1
 696 297 l 1,10,11
 685 329 685 329 666.5 356 c 128,-1,12
 648 383 648 383 619 401 c 0,13,14
 591 418 591 418 559.5 427.5 c 128,-1,15
 528 437 528 437 490 437 c 0,16,17
 462 437 462 437 437.5 435 c 128,-1,18
 413 433 413 433 393 423 c 1,19,-1
 393 588 l 1,20,21
 436 600 436 600 490 600 c 0,22,23
 603 600 603 600 696 545 c 1,24,-1
 696 654 l 1,25,26
 689 728 689 728 659 787 c 0,27,28
 646 812 646 812 627 835.5 c 128,-1,29
 608 859 608 859 581 878 c 128,-1,30
 554 897 554 897 518 908.5 c 128,-1,31
 482 920 482 920 436 920 c 0,32,33
 363 916 363 916 306 887 c 0,34,35
 282 875 282 875 258.5 855.5 c 128,-1,36
 235 836 235 836 216.5 808 c 128,-1,37
 198 780 198 780 187 742 c 128,-1,38
 176 704 176 704 176 654 c 1,39,-1
 16 654 l 1,40,-1
 16 665 l 2,41,42
 16 681 16 681 19 717.5 c 128,-1,43
 22 754 22 754 35.5 800.5 c 128,-1,44
 49 847 49 847 75.5 896.5 c 128,-1,45
 102 946 102 946 148.5 986.5 c 128,-1,46
 195 1027 195 1027 265 1053.5 c 128,-1,47
 335 1080 335 1080 436 1080 c 2,48,-1
 446 1080 l 1,49,-1
 446 1080 l 1,0,1
EndSplineSet
EndChar

StartChar: chochingthai
Encoding: 169 169 139
AltUni2: 000e09.ffffffff.0
Width: 1104
VWidth: 2048
Flags: W
LayerCount: 2
Fore
SplineSet
560 1080 m 0,0,1
 636 1080 636 1080 694.5 1063.5 c 128,-1,2
 753 1047 753 1047 797 1019.5 c 128,-1,3
 841 992 841 992 872 957.5 c 128,-1,4
 903 923 903 923 923 887 c 0,5,6
 971 803 971 803 980 695 c 1,7,-1
 980 0 l 1,8,-1
 820 0 l 1,9,-1
 820 150 l 2,10,11
 818 120 818 120 806 97.5 c 128,-1,12
 794 75 794 75 776 58 c 128,-1,13
 758 41 758 41 735.5 29 c 128,-1,14
 713 17 713 17 690 9 c 0,15,16
 635 -10 635 -10 567 -15 c 1,17,-1
 530 -15 l 2,18,19
 439 -15 439 -15 375.5 10.5 c 128,-1,20
 312 36 312 36 269.5 76 c 128,-1,21
 227 116 227 116 203 164.5 c 128,-1,22
 179 213 179 213 166.5 260.5 c 128,-1,23
 154 308 154 308 151 348 c 128,-1,24
 148 388 148 388 148 410 c 1,25,-1
 96 410 l 1,26,-1
 96 560 l 1,27,-1
 308 560 l 1,28,-1
 308 406 l 2,29,30
 308 338 308 338 325.5 291.5 c 128,-1,31
 343 245 343 245 369.5 215 c 128,-1,32
 396 185 396 185 428 169 c 128,-1,33
 460 153 460 153 489 145.5 c 128,-1,34
 518 138 518 138 539.5 136.5 c 128,-1,35
 561 135 561 135 567 135 c 0,36,37
 629 135 629 135 672 154 c 128,-1,38
 715 173 715 173 743 201.5 c 128,-1,39
 771 230 771 230 786.5 264 c 128,-1,40
 802 298 802 298 809.5 328 c 128,-1,41
 817 358 817 358 818.5 380 c 128,-1,42
 820 402 820 402 820 406 c 2,43,-1
 820 695 l 2,44,45
 820 737 820 737 809 769 c 128,-1,46
 798 801 798 801 779.5 825 c 128,-1,47
 761 849 761 849 737.5 865 c 128,-1,48
 714 881 714 881 690 892 c 0,49,50
 633 917 633 917 560 920 c 2,51,-1
 547 920 l 2,52,53
 530 920 530 920 497 914.5 c 128,-1,54
 464 909 464 909 427.5 892 c 128,-1,55
 391 875 391 875 358 843.5 c 128,-1,56
 325 812 325 812 309 759 c 1,57,-1
 149 759 l 1,58,59
 155 786 155 786 167 820.5 c 128,-1,60
 179 855 179 855 200 891 c 128,-1,61
 221 927 221 927 251.5 961 c 128,-1,62
 282 995 282 995 325.5 1021.5 c 128,-1,63
 369 1048 369 1048 427 1064 c 128,-1,64
 485 1080 485 1080 560 1080 c 0,0,1
EndSplineSet
EndChar

StartChar: chochangthai
Encoding: 170 170 140
AltUni2: 000e0a.ffffffff.0
Width: 959
VWidth: 2048
Flags: W
LayerCount: 2
Fore
SplineSet
859 1011 m 1,0,1
 859 889 859 889 742 860 c 1,2,3
 796 846 796 846 825 813 c 128,-1,4
 854 780 854 780 859 731 c 1,5,-1
 859 354 l 2,6,7
 859 264 859 264 833.5 201.5 c 128,-1,8
 808 139 808 139 768.5 98 c 128,-1,9
 729 57 729 57 682.5 34 c 128,-1,10
 636 11 636 11 593.5 0.5 c 128,-1,11
 551 -10 551 -10 519 -12.5 c 128,-1,12
 487 -15 487 -15 478 -15 c 0,13,14
 384 -15 384 -15 319 10 c 128,-1,15
 254 35 254 35 211.5 73.5 c 128,-1,16
 169 112 169 112 145 158.5 c 128,-1,17
 121 205 121 205 110 246.5 c 128,-1,18
 99 288 99 288 96.5 320 c 128,-1,19
 94 352 94 352 94 362 c 0,20,21
 94 415 94 415 109 456.5 c 128,-1,22
 124 498 124 498 147 532.5 c 128,-1,23
 170 567 170 567 197 595 c 128,-1,24
 224 623 224 623 248 648 c 128,-1,25
 272 673 272 673 289 696.5 c 128,-1,26
 306 720 306 720 309 745 c 0,27,28
 310 752 310 752 310 757.5 c 128,-1,29
 310 763 310 763 310 769 c 0,30,31
 310 805 310 805 298 830.5 c 128,-1,32
 286 856 286 856 266.5 873 c 128,-1,33
 247 890 247 890 223.5 900 c 128,-1,34
 200 910 200 910 177 915 c 128,-1,35
 154 920 154 920 134.5 921.5 c 128,-1,36
 115 923 115 923 104 923 c 2,37,-1
 93 923 l 1,38,-1
 93 1073 l 1,39,-1
 188 1073 l 2,40,41
 253 1073 253 1073 299 1055 c 128,-1,42
 345 1037 345 1037 376 1009 c 128,-1,43
 407 981 407 981 425.5 946 c 128,-1,44
 444 911 444 911 453.5 876.5 c 128,-1,45
 463 842 463 842 465.5 812.5 c 128,-1,46
 468 783 468 783 468 765 c 0,47,48
 468 760 468 760 467.5 756 c 128,-1,49
 467 752 467 752 467 750 c 2,50,-1
 467 745 l 2,51,52
 464 716 464 716 452 688.5 c 128,-1,53
 440 661 440 661 426 638 c 0,54,55
 410 612 410 612 391 587 c 0,56,57
 345 535 345 535 319.5 494.5 c 128,-1,58
 294 454 294 454 281.5 424.5 c 128,-1,59
 269 395 269 395 266.5 377.5 c 128,-1,60
 264 360 264 360 264 354 c 0,61,62
 264 299 264 299 278.5 261.5 c 128,-1,63
 293 224 293 224 315 200 c 128,-1,64
 337 176 337 176 363 162.5 c 128,-1,65
 389 149 389 149 413 143 c 128,-1,66
 437 137 437 137 455 136 c 128,-1,67
 473 135 473 135 479 135 c 0,68,69
 528 135 528 135 564 149.5 c 128,-1,70
 600 164 600 164 624 186.5 c 128,-1,71
 648 209 648 209 663 235.5 c 128,-1,72
 678 262 678 262 686 286.5 c 128,-1,73
 694 311 694 311 696.5 329.5 c 128,-1,74
 699 348 699 348 699 354 c 2,75,-1
 699 694 l 2,76,77
 699 796 699 796 557 796 c 2,78,-1
 504 796 l 1,79,-1
 504 920 l 1,80,-1
 557 920 l 2,81,82
 628 920 628 920 663.5 951.5 c 128,-1,83
 699 983 699 983 699 1043 c 2,84,-1
 699 1073 l 1,85,-1
 859 1073 l 1,86,-1
 859 1011 l 1,87,-1
 859 1011 l 1,0,1
EndSplineSet
EndChar

StartChar: sosothai
Encoding: 171 171 141
AltUni2: 000e0b.ffffffff.0
Width: 1005
VWidth: 2048
Flags: W
LayerCount: 2
Fore
SplineSet
877 1010 m 1,0,1
 877 888 877 888 760 858 c 1,2,3
 868 830 868 830 877 729 c 1,4,-1
 877 352 l 2,5,6
 877 262 877 262 851.5 199.5 c 128,-1,7
 826 137 826 137 787 96 c 128,-1,8
 748 55 748 55 701.5 32.5 c 128,-1,9
 655 10 655 10 612.5 -1 c 128,-1,10
 570 -12 570 -12 538 -14 c 128,-1,11
 506 -16 506 -16 497 -16 c 0,12,13
 403 -16 403 -16 337.5 9 c 128,-1,14
 272 34 272 34 229.5 72.5 c 128,-1,15
 187 111 187 111 163 157 c 128,-1,16
 139 203 139 203 128 245 c 128,-1,17
 117 287 117 287 114.5 319 c 128,-1,18
 112 351 112 351 112 361 c 0,19,20
 112 414 112 414 127 455.5 c 128,-1,21
 142 497 142 497 165 531.5 c 128,-1,22
 188 566 188 566 215 594 c 128,-1,23
 242 622 242 622 266 647 c 128,-1,24
 290 672 290 672 307 695.5 c 128,-1,25
 324 719 324 719 327 744 c 0,26,27
 329 750 329 750 329 755.5 c 128,-1,28
 329 761 329 761 329 767 c 0,29,30
 329 789 329 789 324 807.5 c 128,-1,31
 319 826 319 826 311 841 c 1,32,-1
 232 768 l 1,33,-1
 47 970 l 1,34,-1
 154 1073 l 1,35,-1
 238 978 l 1,36,-1
 331 1073 l 1,37,-1
 432 965 l 2,38,39
 451 944 451 944 462 915.5 c 128,-1,40
 473 887 473 887 478.5 858 c 128,-1,41
 484 829 484 829 485 803.5 c 128,-1,42
 486 778 486 778 486 763 c 2,43,-1
 486 744 l 1,44,45
 482 715 482 715 470 687 c 128,-1,46
 458 659 458 659 444 636 c 0,47,48
 428 610 428 610 409 585 c 0,49,50
 363 533 363 533 337.5 492.5 c 128,-1,51
 312 452 312 452 299.5 422.5 c 128,-1,52
 287 393 287 393 284.5 375.5 c 128,-1,53
 282 358 282 358 282 352 c 0,54,55
 282 298 282 298 296.5 260.5 c 128,-1,56
 311 223 311 223 333 199 c 128,-1,57
 355 175 355 175 381.5 162 c 128,-1,58
 408 149 408 149 431.5 143 c 128,-1,59
 455 137 455 137 473 136 c 128,-1,60
 491 135 491 135 497 135 c 0,61,62
 546 135 546 135 582 149.5 c 128,-1,63
 618 164 618 164 642 186 c 128,-1,64
 666 208 666 208 681 234.5 c 128,-1,65
 696 261 696 261 704 285.5 c 128,-1,66
 712 310 712 310 714.5 328 c 128,-1,67
 717 346 717 346 717 352 c 2,68,-1
 717 693 l 2,69,70
 717 795 717 795 575 795 c 2,71,-1
 522 795 l 1,72,-1
 522 918 l 1,73,-1
 575 918 l 2,74,75
 646 918 646 918 681.5 949.5 c 128,-1,76
 717 981 717 981 717 1041 c 2,77,-1
 717 1073 l 1,78,-1
 877 1073 l 1,79,-1
 877 1010 l 1,80,-1
 877 1010 l 1,0,1
EndSplineSet
EndChar

StartChar: chochoethai
Encoding: 172 172 142
AltUni2: 000e0c.ffffffff.0
Width: 1708
VWidth: 2048
Flags: W
LayerCount: 2
Fore
SplineSet
1608 1073 m 1,0,-1
 1608 406 l 1,1,-1
 1608 393 l 2,2,3
 1608 375 1608 375 1605 338 c 128,-1,4
 1602 301 1602 301 1590 255.5 c 128,-1,5
 1578 210 1578 210 1553.5 162 c 128,-1,6
 1529 114 1529 114 1487 75 c 128,-1,7
 1445 36 1445 36 1381.5 10.5 c 128,-1,8
 1318 -15 1318 -15 1227 -15 c 2,9,-1
 1190 -15 l 1,10,11
 1122 -10 1122 -10 1067 9 c 0,12,13
 1044 17 1044 17 1021 29 c 128,-1,14
 998 41 998 41 980 58 c 128,-1,15
 962 75 962 75 950 97.5 c 128,-1,16
 938 120 938 120 937 150 c 2,17,-1
 937 0 l 1,18,-1
 777 0 l 1,19,-1
 777 665 l 2,20,21
 777 729 777 729 759.5 772.5 c 128,-1,22
 742 816 742 816 715 844.5 c 128,-1,23
 688 873 688 873 655.5 888 c 128,-1,24
 623 903 623 903 594 910.5 c 128,-1,25
 565 918 565 918 543.5 919 c 128,-1,26
 522 920 522 920 516 920 c 0,27,28
 467 920 467 920 430 909 c 128,-1,29
 393 898 393 898 365.5 880 c 128,-1,30
 338 862 338 862 319.5 839 c 128,-1,31
 301 816 301 816 289 792 c 0,32,33
 261 736 261 736 257 665 c 1,34,-1
 257 335 l 2,35,36
 260 282 260 282 280 242 c 0,37,38
 289 225 289 225 302 208.5 c 128,-1,39
 315 192 315 192 334 179 c 128,-1,40
 353 166 353 166 379 158 c 128,-1,41
 405 150 405 150 439 150 c 2,42,-1
 556 150 l 1,43,-1
 556 0 l 1,44,-1
 341 0 l 1,45,46
 273 5 273 5 219 39 c 0,47,48
 196 54 196 54 174 76.5 c 128,-1,49
 152 99 152 99 135 132 c 128,-1,50
 118 165 118 165 107.5 209.5 c 128,-1,51
 97 254 97 254 97 313 c 2,52,-1
 97 335 l 1,53,-1
 97 822 l 1,54,55
 129 883 129 883 168.5 926 c 128,-1,56
 208 969 208 969 249.5 997.5 c 128,-1,57
 291 1026 291 1026 331.5 1042.5 c 128,-1,58
 372 1059 372 1059 406.5 1067.5 c 128,-1,59
 441 1076 441 1076 467 1078 c 128,-1,60
 493 1080 493 1080 506 1080 c 2,61,-1
 516 1080 l 2,62,63
 594 1078 594 1078 653 1060 c 128,-1,64
 712 1042 712 1042 756.5 1014.5 c 128,-1,65
 801 987 801 987 831.5 952 c 128,-1,66
 862 917 862 917 882 880 c 128,-1,67
 902 843 902 843 913 807 c 128,-1,68
 924 771 924 771 929.5 741.5 c 128,-1,69
 935 712 935 712 936 691.5 c 128,-1,70
 937 671 937 671 937 665 c 2,71,-1
 937 406 l 2,72,73
 937 402 937 402 938.5 380 c 128,-1,74
 940 358 940 358 947.5 328 c 128,-1,75
 955 298 955 298 970.5 264 c 128,-1,76
 986 230 986 230 1014.5 201.5 c 128,-1,77
 1043 173 1043 173 1086 154 c 128,-1,78
 1129 135 1129 135 1191 135 c 0,79,80
 1197 135 1197 135 1218.5 136.5 c 128,-1,81
 1240 138 1240 138 1268.5 145.5 c 128,-1,82
 1297 153 1297 153 1328.5 169 c 128,-1,83
 1360 185 1360 185 1386.5 215 c 128,-1,84
 1413 245 1413 245 1430.5 291.5 c 128,-1,85
 1448 338 1448 338 1448 406 c 2,86,-1
 1448 1073 l 1,87,-1
 1608 1073 l 1,0,-1
EndSplineSet
EndChar

StartChar: yoyingthai.002
Encoding: 173 173 143
AltUni2: 000e0d.ffffffff.0 0000de.ffffffff.0
Width: 1712
VWidth: 2048
Flags: W
LayerCount: 2
Fore
SplineSet
1611 -38 m 2,0,1
 1611 -115 1611 -115 1591.5 -168.5 c 128,-1,2
 1572 -222 1572 -222 1542.5 -257 c 128,-1,3
 1513 -292 1513 -292 1478 -311.5 c 128,-1,4
 1443 -331 1443 -331 1411 -340 c 128,-1,5
 1379 -349 1379 -349 1355.5 -351 c 128,-1,6
 1332 -353 1332 -353 1326 -353 c 0,7,8
 1257 -353 1257 -353 1207.5 -335 c 128,-1,9
 1158 -317 1158 -317 1125 -295 c 0,10,11
 1086 -269 1086 -269 1060 -237 c 1,12,-1
 1169 -101 l 1,13,14
 1174 -106 1174 -106 1185.5 -118 c 128,-1,15
 1197 -130 1197 -130 1215.5 -142 c 128,-1,16
 1234 -154 1234 -154 1261.5 -163.5 c 128,-1,17
 1289 -173 1289 -173 1326 -173 c 0,18,19
 1372 -173 1372 -173 1397.5 -152.5 c 128,-1,20
 1423 -132 1423 -132 1435 -106 c 0,21,22
 1449 -76 1449 -76 1452 -38 c 2,23,-1
 1452 150 l 1,24,25
 1448 123 1448 123 1435 101 c 128,-1,26
 1422 79 1422 79 1403.5 62.5 c 128,-1,27
 1385 46 1385 46 1362.5 34 c 128,-1,28
 1340 22 1340 22 1317 13 c 0,29,30
 1263 -7 1263 -7 1198 -15 c 1,31,-1
 1162 -15 l 2,32,33
 1071 -15 1071 -15 1007.5 10 c 128,-1,34
 944 35 944 35 901.5 74.5 c 128,-1,35
 859 114 859 114 835 162 c 128,-1,36
 811 210 811 210 798.5 255 c 128,-1,37
 786 300 786 300 783 337 c 128,-1,38
 780 374 780 374 780 392 c 2,39,-1
 780 664 l 2,40,41
 780 728 780 728 762.5 772 c 128,-1,42
 745 816 745 816 718 844.5 c 128,-1,43
 691 873 691 873 658.5 888 c 128,-1,44
 626 903 626 903 597 910.5 c 128,-1,45
 568 918 568 918 546 919 c 128,-1,46
 524 920 524 920 518 920 c 0,47,48
 470 920 470 920 433 909 c 128,-1,49
 396 898 396 898 368.5 880 c 128,-1,50
 341 862 341 862 322.5 839 c 128,-1,51
 304 816 304 816 292 792 c 0,52,53
 264 736 264 736 260 664 c 1,54,-1
 260 334 l 2,55,56
 263 281 263 281 283 241 c 0,57,58
 292 224 292 224 305 207.5 c 128,-1,59
 318 191 318 191 337 178 c 128,-1,60
 356 165 356 165 382 157 c 128,-1,61
 408 149 408 149 443 149 c 2,62,-1
 559 149 l 1,63,-1
 559 0 l 1,64,-1
 344 0 l 1,65,66
 276 5 276 5 222 39 c 0,67,68
 199 54 199 54 177.5 76.5 c 128,-1,69
 156 99 156 99 139 132 c 128,-1,70
 122 165 122 165 111.5 209 c 128,-1,71
 101 253 101 253 101 312 c 2,72,-1
 101 334 l 1,73,-1
 101 821 l 1,74,75
 134 882 134 882 173 925 c 128,-1,76
 212 968 212 968 253.5 997 c 128,-1,77
 295 1026 295 1026 335.5 1042.5 c 128,-1,78
 376 1059 376 1059 410.5 1067.5 c 128,-1,79
 445 1076 445 1076 471 1078 c 128,-1,80
 497 1080 497 1080 510 1080 c 2,81,-1
 518 1080 l 2,82,83
 622 1077 622 1077 693.5 1047 c 128,-1,84
 765 1017 765 1017 812 973.5 c 128,-1,85
 859 930 859 930 885 879 c 128,-1,86
 911 828 911 828 923 783 c 128,-1,87
 935 738 935 738 937.5 705 c 128,-1,88
 940 672 940 672 940 664 c 2,89,-1
 940 405 l 2,90,91
 940 338 940 338 957.5 291.5 c 128,-1,92
 975 245 975 245 1002 215 c 128,-1,93
 1029 185 1029 185 1061 168.5 c 128,-1,94
 1093 152 1093 152 1121.5 145 c 128,-1,95
 1150 138 1150 138 1172 136.5 c 128,-1,96
 1194 135 1194 135 1200 135 c 0,97,98
 1263 135 1263 135 1305.5 154 c 128,-1,99
 1348 173 1348 173 1376 201.5 c 128,-1,100
 1404 230 1404 230 1419.5 263.5 c 128,-1,101
 1435 297 1435 297 1442 327 c 128,-1,102
 1449 357 1449 357 1450.5 379 c 128,-1,103
 1452 401 1452 401 1452 405 c 2,104,-1
 1452 1072 l 1,105,-1
 1612 1072 l 1,106,-1
 1611 -38 l 2,0,1
EndSplineSet
Ligature2: "Ligature Substitution lookup 45 subtable" semicolon semicolon y o y i n g semicolon semicolon
Ligature2: "Ligature Substitution lookup 45 subtable" semicolon semicolon Y o y i n g semicolon semicolon
Substitution2: "Single Substitution lookup 44 subtable" yoyingnobasethai
EndChar

StartChar: dochadathai
Encoding: 174 174 144
AltUni2: 000e0e.ffffffff.0
Width: 1100
VWidth: 2048
Flags: W
LayerCount: 2
Fore
SplineSet
712 -285 m 0,0,1
 716 -285 716 -285 727.5 -274 c 128,-1,2
 739 -263 739 -263 751 -245.5 c 128,-1,3
 763 -228 763 -228 772.5 -206.5 c 128,-1,4
 782 -185 782 -185 782 -164 c 2,5,-1
 782 665 l 2,6,7
 782 729 782 729 764.5 772.5 c 128,-1,8
 747 816 747 816 720 844.5 c 128,-1,9
 693 873 693 873 660.5 888 c 128,-1,10
 628 903 628 903 599 910.5 c 128,-1,11
 570 918 570 918 548 919 c 128,-1,12
 526 920 526 920 520 920 c 0,13,14
 472 920 472 920 435 909 c 128,-1,15
 398 898 398 898 370.5 880 c 128,-1,16
 343 862 343 862 324.5 839 c 128,-1,17
 306 816 306 816 294 792 c 0,18,19
 266 736 266 736 262 665 c 1,20,-1
 262 0 l 1,21,-1
 3 0 l 1,22,-1
 3 150 l 1,23,-1
 102 150 l 1,24,-1
 102 822 l 1,25,26
 134 883 134 883 173.5 926 c 128,-1,27
 213 969 213 969 254.5 997.5 c 128,-1,28
 296 1026 296 1026 336.5 1042.5 c 128,-1,29
 377 1059 377 1059 411.5 1067.5 c 128,-1,30
 446 1076 446 1076 472 1078 c 128,-1,31
 498 1080 498 1080 511 1080 c 2,32,-1
 520 1080 l 2,33,34
 624 1077 624 1077 695.5 1047 c 128,-1,35
 767 1017 767 1017 814 973.5 c 128,-1,36
 861 930 861 930 887 879.5 c 128,-1,37
 913 829 913 829 925 784 c 128,-1,38
 937 739 937 739 939.5 706 c 128,-1,39
 942 673 942 673 942 665 c 2,40,-1
 942 -164 l 2,41,42
 939 -238 939 -238 909 -300 c 0,43,44
 896 -326 896 -326 876.5 -352.5 c 128,-1,45
 857 -379 857 -379 828 -401 c 128,-1,46
 799 -423 799 -423 760 -438.5 c 128,-1,47
 721 -454 721 -454 669 -460 c 1,48,-1
 540 -342 l 1,49,-1
 413 -460 l 1,50,-1
 3 -460 l 1,51,-1
 3 -310 l 1,52,-1
 344 -310 l 1,53,-1
 540 -124 l 1,54,55
 540 -124 540 -124 552 -135 c 128,-1,56
 564 -146 564 -146 583 -163.5 c 128,-1,57
 602 -181 602 -181 624 -201.5 c 128,-1,58
 646 -222 646 -222 665 -240 c 128,-1,59
 684 -258 684 -258 697.5 -271 c 128,-1,60
 711 -284 711 -284 712 -285 c 0,0,1
EndSplineSet
EndChar

StartChar: topatakthai
Encoding: 175 175 145
AltUni2: 000e0f.ffffffff.0
Width: 1081
VWidth: 2048
Flags: W
LayerCount: 2
Fore
SplineSet
944 -164 m 1,0,1
 941 -238 941 -238 911 -300 c 0,2,3
 898 -326 898 -326 878.5 -352.5 c 128,-1,4
 859 -379 859 -379 830 -401 c 128,-1,5
 801 -423 801 -423 762 -438.5 c 128,-1,6
 723 -454 723 -454 671 -460 c 1,7,-1
 555 -358 l 1,8,-1
 445 -460 l 1,9,-1
 316 -342 l 1,10,-1
 189 -460 l 1,11,-1
 15 -460 l 1,12,-1
 15 -310 l 1,13,-1
 120 -310 l 1,14,-1
 316 -124 l 1,15,-1
 438 -238 l 1,16,-1
 552 -124 l 1,17,-1
 714 -285 l 1,18,19
 733 -266 733 -266 749 -246 c 0,20,21
 762 -229 762 -229 773 -207 c 128,-1,22
 784 -185 784 -185 784 -164 c 2,23,-1
 784 665 l 2,24,25
 784 729 784 729 766.5 772.5 c 128,-1,26
 749 816 749 816 722 844.5 c 128,-1,27
 695 873 695 873 662.5 888 c 128,-1,28
 630 903 630 903 601 910.5 c 128,-1,29
 572 918 572 918 550 919 c 128,-1,30
 528 920 528 920 522 920 c 0,31,32
 474 920 474 920 437 909 c 128,-1,33
 400 898 400 898 372.5 880 c 128,-1,34
 345 862 345 862 326.5 839 c 128,-1,35
 308 816 308 816 296 792 c 0,36,37
 268 736 268 736 264 665 c 1,38,-1
 264 0 l 1,39,-1
 5 0 l 1,40,-1
 5 150 l 1,41,-1
 104 150 l 1,42,-1
 104 822 l 1,43,44
 136 883 136 883 175.5 926 c 128,-1,45
 215 969 215 969 256.5 997.5 c 128,-1,46
 298 1026 298 1026 338.5 1042.5 c 128,-1,47
 379 1059 379 1059 413.5 1067.5 c 128,-1,48
 448 1076 448 1076 474 1078 c 128,-1,49
 500 1080 500 1080 513 1080 c 2,50,-1
 522 1080 l 2,51,52
 626 1077 626 1077 697.5 1047 c 128,-1,53
 769 1017 769 1017 816 973.5 c 128,-1,54
 863 930 863 930 889 879.5 c 128,-1,55
 915 829 915 829 927 784 c 128,-1,56
 939 739 939 739 941.5 706 c 128,-1,57
 944 673 944 673 944 665 c 2,58,-1
 944 -164 l 1,59,-1
 944 -164 l 1,0,1
EndSplineSet
EndChar

StartChar: thothanthai
Encoding: 176 176 146
AltUni2: 000e10.ffffffff.0
Width: 1089
VWidth: 2048
Flags: W
LayerCount: 2
Fore
SplineSet
927 1088 m 0,0,1
 927 1080 927 1080 911 1060.5 c 128,-1,2
 895 1041 895 1041 872 1019 c 128,-1,3
 849 997 849 997 825 977 c 128,-1,4
 801 957 801 957 785 949 c 1,5,6
 825 902 825 902 851 833.5 c 128,-1,7
 877 765 877 765 877 665 c 2,8,-1
 877 0 l 1,9,-1
 716 0 l 1,10,-1
 716 297 l 1,11,12
 705 329 705 329 686.5 356 c 128,-1,13
 668 383 668 383 639 401 c 0,14,15
 611 418 611 418 579.5 427.5 c 128,-1,16
 548 437 548 437 510 437 c 0,17,18
 482 437 482 437 457.5 435.5 c 128,-1,19
 433 434 433 434 413 423 c 1,20,-1
 413 588 l 1,21,22
 456 600 456 600 510 600 c 0,23,24
 623 600 623 600 716 545 c 1,25,-1
 716 654 l 1,26,27
 709 728 709 728 679 787 c 0,28,29
 666 812 666 812 647 835.5 c 128,-1,30
 628 859 628 859 601 878 c 128,-1,31
 574 897 574 897 538 908.5 c 128,-1,32
 502 920 502 920 456 920 c 0,33,34
 383 916 383 916 326 887 c 0,35,36
 302 875 302 875 278.5 855.5 c 128,-1,37
 255 836 255 836 236.5 808 c 128,-1,38
 218 780 218 780 207 742 c 128,-1,39
 196 704 196 704 196 654 c 1,40,-1
 36 654 l 1,41,-1
 36 665 l 2,42,43
 36 681 36 681 39 717.5 c 128,-1,44
 42 754 42 754 55.5 800.5 c 128,-1,45
 69 847 69 847 95.5 896.5 c 128,-1,46
 122 946 122 946 168.5 986.5 c 128,-1,47
 215 1027 215 1027 285 1053.5 c 128,-1,48
 355 1080 355 1080 456 1080 c 2,49,-1
 465 1080 l 2,50,51
 498 1080 498 1080 532 1075.5 c 128,-1,52
 566 1071 566 1071 605 1060 c 1,53,54
 647 1066 647 1066 686 1083 c 0,55,56
 719 1097 719 1097 754 1125 c 128,-1,57
 789 1153 789 1153 812 1200 c 1,58,59
 841 1172 841 1172 865 1148 c 0,60,61
 875 1138 875 1138 885 1128 c 128,-1,62
 895 1118 895 1118 903.5 1109.5 c 128,-1,63
 912 1101 912 1101 918.5 1095.5 c 128,-1,64
 925 1090 925 1090 927 1088 c 0,0,1
264 -232 m 1,65,-1
 460 -46 l 1,66,-1
 583 -160 l 1,67,-1
 697 -46 l 1,68,-1
 858 -207 l 1,69,70
 877 -188 877 -188 893 -168 c 0,71,72
 906 -151 906 -151 917 -129 c 128,-1,73
 928 -107 928 -107 928 -86 c 2,74,-1
 928 0 l 1,75,-1
 1088 0 l 1,76,-1
 1088 -86 l 2,77,78
 1085 -160 1085 -160 1055 -222 c 0,79,80
 1042 -248 1042 -248 1022.5 -274.5 c 128,-1,81
 1003 -301 1003 -301 974 -323 c 128,-1,82
 945 -345 945 -345 906 -360.5 c 128,-1,83
 867 -376 867 -376 815 -382 c 1,84,-1
 699 -280 l 1,85,-1
 589 -382 l 1,86,-1
 460 -264 l 1,87,-1
 333 -382 l 1,88,-1
 159 -382 l 1,89,-1
 159 -232 l 1,90,-1
 264 -232 l 1,65,-1
EndSplineSet
Substitution2: "Single Substitution lookup 44 subtable" thothannobasethai
EndChar

StartChar: thonangmonthothai
Encoding: 177 177 147
AltUni2: 000e11.ffffffff.0
Width: 1270
VWidth: 2048
Flags: W
LayerCount: 2
Fore
SplineSet
787 1080 m 1,0,1
 878 1080 878 1080 941.5 1055.5 c 128,-1,2
 1005 1031 1005 1031 1047 992.5 c 128,-1,3
 1089 954 1089 954 1113.5 907 c 128,-1,4
 1138 860 1138 860 1150 815.5 c 128,-1,5
 1162 771 1162 771 1165 734.5 c 128,-1,6
 1168 698 1168 698 1168 680 c 2,7,-1
 1168 0 l 1,8,-1
 1008 0 l 1,9,-1
 1008 667 l 2,10,11
 1008 730 1008 730 990.5 773.5 c 128,-1,12
 973 817 973 817 946.5 845 c 128,-1,13
 920 873 920 873 888 888.5 c 128,-1,14
 856 904 856 904 827 911 c 128,-1,15
 798 918 798 918 776.5 919 c 128,-1,16
 755 920 755 920 749 920 c 0,17,18
 687 920 687 920 644 902.5 c 128,-1,19
 601 885 601 885 573 858 c 128,-1,20
 545 831 545 831 529.5 799.5 c 128,-1,21
 514 768 514 768 506.5 740 c 128,-1,22
 499 712 499 712 497.5 691.5 c 128,-1,23
 496 671 496 671 496 667 c 2,24,-1
 496 0 l 1,25,-1
 336 0 l 1,26,-1
 336 864 l 1,27,-1
 237 770 l 1,28,-1
 52 972 l 1,29,-1
 160 1073 l 1,30,-1
 244 979 l 1,31,-1
 336 1073 l 1,32,-1
 496 1073 l 1,33,-1
 496 923 l 2,34,35
 497 952 497 952 509 974.5 c 128,-1,36
 521 997 521 997 539 1013.5 c 128,-1,37
 557 1030 557 1030 580 1041 c 128,-1,38
 603 1052 603 1052 626 1060 c 0,39,40
 681 1078 681 1078 750 1080 c 2,41,-1
 787 1080 l 1,42,-1
 787 1080 l 1,0,1
EndSplineSet
EndChar

StartChar: thophuthaothai
Encoding: 178 178 148
AltUni2: 000e12.ffffffff.0
Width: 1704
VWidth: 2048
Flags: W
LayerCount: 2
Fore
SplineSet
1612 1073 m 1,0,-1
 1612 405 l 1,1,-1
 1612 392 l 2,2,3
 1612 374 1612 374 1609 337 c 128,-1,4
 1606 300 1606 300 1593.5 255 c 128,-1,5
 1581 210 1581 210 1557 162 c 128,-1,6
 1533 114 1533 114 1490.5 74.5 c 128,-1,7
 1448 35 1448 35 1384.5 10 c 128,-1,8
 1321 -15 1321 -15 1230 -15 c 2,9,-1
 1193 -15 l 1,10,11
 1125 -10 1125 -10 1070 9 c 0,12,13
 1047 17 1047 17 1024 29 c 128,-1,14
 1001 41 1001 41 983 58 c 128,-1,15
 965 75 965 75 953 97.5 c 128,-1,16
 941 120 941 120 940 150 c 2,17,-1
 940 0 l 1,18,-1
 780 0 l 1,19,-1
 780 718 l 2,20,21
 780 783 780 783 757 832 c 0,22,23
 734 878 734 878 693 907 c 1,24,-1
 520 795 l 1,25,-1
 348 907 l 1,26,27
 327 892 327 892 311 874 c 128,-1,28
 295 856 295 856 283 832 c 0,29,30
 260 783 260 783 260 718 c 2,31,-1
 260 335 l 2,32,33
 263 282 263 282 283 242 c 0,34,35
 292 225 292 225 305 208.5 c 128,-1,36
 318 192 318 192 336.5 179 c 128,-1,37
 355 166 355 166 381 158 c 128,-1,38
 407 150 407 150 441 150 c 2,39,-1
 559 150 l 1,40,-1
 559 0 l 1,41,-1
 344 0 l 1,42,43
 276 5 276 5 222 39 c 0,44,45
 199 54 199 54 177 76.5 c 128,-1,46
 155 99 155 99 138 132 c 128,-1,47
 121 165 121 165 110.5 209.5 c 128,-1,48
 100 254 100 254 100 313 c 2,49,-1
 100 778 l 1,50,51
 112 887 112 887 174 967 c 0,52,53
 206 1007 206 1007 245 1035 c 128,-1,54
 284 1063 284 1063 332 1082 c 1,55,-1
 520 966 l 1,56,-1
 708 1082 l 1,57,58
 756 1063 756 1063 795 1035 c 128,-1,59
 834 1007 834 1007 866 967 c 256,60,61
 898 927 898 927 915.5 880.5 c 128,-1,62
 933 834 933 834 940 778 c 1,63,-1
 940 405 l 2,64,65
 940 401 940 401 941.5 379 c 128,-1,66
 943 357 943 357 950.5 327 c 128,-1,67
 958 297 958 297 973.5 263.5 c 128,-1,68
 989 230 989 230 1017.5 201.5 c 128,-1,69
 1046 173 1046 173 1089 154 c 128,-1,70
 1132 135 1132 135 1194 135 c 0,71,72
 1200 135 1200 135 1221.5 136.5 c 128,-1,73
 1243 138 1243 138 1272 145 c 128,-1,74
 1301 152 1301 152 1332.5 168.5 c 128,-1,75
 1364 185 1364 185 1390.5 215 c 128,-1,76
 1417 245 1417 245 1434.5 291 c 128,-1,77
 1452 337 1452 337 1452 405 c 2,78,-1
 1452 1073 l 1,79,-1
 1612 1073 l 1,0,-1
EndSplineSet
EndChar

StartChar: nonenthai
Encoding: 179 179 149
AltUni2: 000e13.ffffffff.0
Width: 1720
VWidth: 2048
Flags: W
LayerCount: 2
Fore
SplineSet
1610 1073 m 1,0,-1
 1610 1 l 1,1,-1
 1451 1 l 1,2,-1
 1451 150 l 2,3,4
 1449 120 1449 120 1437 97.5 c 128,-1,5
 1425 75 1425 75 1407 58 c 128,-1,6
 1389 41 1389 41 1366 29 c 128,-1,7
 1343 17 1343 17 1320 9 c 0,8,9
 1265 -9 1265 -9 1197 -14 c 1,10,-1
 1160 -14 l 2,11,12
 1069 -14 1069 -14 1005.5 11 c 128,-1,13
 942 36 942 36 899.5 75.5 c 128,-1,14
 857 115 857 115 833 163 c 128,-1,15
 809 211 809 211 796.5 256 c 128,-1,16
 784 301 784 301 781 338 c 128,-1,17
 778 375 778 375 778 393 c 0,18,19
 778 406 778 406 779 406 c 2,20,-1
 779 665 l 2,21,22
 779 729 779 729 761.5 772.5 c 128,-1,23
 744 816 744 816 716.5 844.5 c 128,-1,24
 689 873 689 873 657 888 c 128,-1,25
 625 903 625 903 595.5 910.5 c 128,-1,26
 566 918 566 918 544.5 919 c 128,-1,27
 523 920 523 920 517 920 c 0,28,29
 469 920 469 920 432 909 c 128,-1,30
 395 898 395 898 367.5 880 c 128,-1,31
 340 862 340 862 321.5 839 c 128,-1,32
 303 816 303 816 291 792 c 0,33,34
 263 736 263 736 259 665 c 1,35,-1
 259 335 l 2,36,37
 262 282 262 282 282 242 c 0,38,39
 291 225 291 225 304 208.5 c 128,-1,40
 317 192 317 192 336 179 c 128,-1,41
 355 166 355 166 381 158 c 128,-1,42
 407 150 407 150 441 150 c 2,43,-1
 558 150 l 1,44,-1
 558 1 l 1,45,-1
 343 1 l 1,46,47
 275 6 275 6 221 40 c 0,48,49
 198 55 198 55 176 77.5 c 128,-1,50
 154 100 154 100 137 133 c 128,-1,51
 120 166 120 166 109.5 210 c 128,-1,52
 99 254 99 254 99 313 c 2,53,-1
 99 335 l 1,54,-1
 99 822 l 1,55,56
 131 883 131 883 170.5 926 c 128,-1,57
 210 969 210 969 251.5 997.5 c 128,-1,58
 293 1026 293 1026 333.5 1043 c 128,-1,59
 374 1060 374 1060 408.5 1068.5 c 128,-1,60
 443 1077 443 1077 469 1079 c 128,-1,61
 495 1081 495 1081 508 1081 c 2,62,-1
 517 1081 l 2,63,64
 621 1078 621 1078 692.5 1048 c 128,-1,65
 764 1018 764 1018 811 974.5 c 128,-1,66
 858 931 858 931 884 880 c 128,-1,67
 910 829 910 829 922 784 c 128,-1,68
 934 739 934 739 936.5 706 c 128,-1,69
 939 673 939 673 939 665 c 2,70,-1
 939 406 l 2,71,72
 939 338 939 338 956.5 291.5 c 128,-1,73
 974 245 974 245 1000.5 215 c 128,-1,74
 1027 185 1027 185 1058.5 169 c 128,-1,75
 1090 153 1090 153 1119 145.5 c 128,-1,76
 1148 138 1148 138 1169.5 136.5 c 128,-1,77
 1191 135 1191 135 1197 135 c 0,78,79
 1259 135 1259 135 1302 154 c 128,-1,80
 1345 173 1345 173 1373.5 201.5 c 128,-1,81
 1402 230 1402 230 1417.5 264 c 128,-1,82
 1433 298 1433 298 1440.5 328 c 128,-1,83
 1448 358 1448 358 1449.5 380 c 128,-1,84
 1451 402 1451 402 1451 406 c 2,85,-1
 1451 1073 l 1,86,-1
 1610 1073 l 1,0,-1
EndSplineSet
EndChar

StartChar: dodekthai
Encoding: 180 180 150
AltUni2: 000e14.ffffffff.0
Width: 1051
VWidth: 2048
Flags: W
LayerCount: 2
Fore
SplineSet
781 0 m 1,0,-1
 781 675 l 1,1,2
 776 743 776 743 745 797 c 0,3,4
 732 820 732 820 712 842 c 128,-1,5
 692 864 692 864 663 881.5 c 128,-1,6
 634 899 634 899 595.5 909.5 c 128,-1,7
 557 920 557 920 506 920 c 256,8,9
 455 920 455 920 416.5 909.5 c 128,-1,10
 378 899 378 899 349.5 881.5 c 128,-1,11
 321 864 321 864 301 842 c 128,-1,12
 281 820 281 820 268 797 c 0,13,14
 237 743 237 743 232 675 c 1,15,-1
 232 323 l 1,16,17
 236 289 236 289 247 258 c 0,18,19
 256 231 256 231 271.5 203 c 128,-1,20
 287 175 287 175 313 158 c 0,21,22
 346 135 346 135 378 135 c 0,23,24
 407 135 407 135 430 148 c 128,-1,25
 453 161 453 161 467 175 c 1,26,-1
 571 69 l 1,27,28
 547 45 547 45 517 27 c 0,29,30
 491 11 491 11 454.5 -2 c 128,-1,31
 418 -15 418 -15 373 -15 c 0,32,33
 359 -15 359 -15 343.5 -13.5 c 128,-1,34
 328 -12 328 -12 312 -8 c 0,35,36
 254 6 254 6 209 38.5 c 128,-1,37
 164 71 164 71 133.5 115.5 c 128,-1,38
 103 160 103 160 87.5 213.5 c 128,-1,39
 72 267 72 267 72 323 c 2,40,-1
 72 675 l 1,41,42
 81 771 81 771 111 838.5 c 128,-1,43
 141 906 141 906 182 950.5 c 128,-1,44
 223 995 223 995 270 1021 c 128,-1,45
 317 1047 317 1047 361 1059.5 c 128,-1,46
 405 1072 405 1072 440 1075.5 c 128,-1,47
 475 1079 475 1079 492 1079 c 2,48,-1
 506 1079 l 1,49,-1
 519 1079 l 2,50,51
 536 1079 536 1079 571 1075.5 c 128,-1,52
 606 1072 606 1072 650 1059.5 c 128,-1,53
 694 1047 694 1047 741.5 1021 c 128,-1,54
 789 995 789 995 830 950.5 c 128,-1,55
 871 906 871 906 901 838.5 c 128,-1,56
 931 771 931 771 941 675 c 1,57,-1
 941 0 l 1,58,-1
 781 0 l 1,0,-1
EndSplineSet
EndChar

StartChar: totaothai
Encoding: 181 181 151
AltUni2: 000e15.ffffffff.0
Width: 1043
VWidth: 2048
Flags: W
LayerCount: 2
Fore
SplineSet
867 967 m 0,0,1
 898 928 898 928 915.5 881 c 128,-1,2
 933 834 933 834 940 778 c 1,3,-1
 940 0 l 1,4,-1
 780 0 l 1,5,-1
 780 718 l 2,6,7
 780 784 780 784 757 832 c 0,8,9
 733 880 733 880 693 907 c 1,10,-1
 520 795 l 1,11,-1
 348 907 l 1,12,13
 306 879 306 879 283 832 c 0,14,15
 260 784 260 784 260 718 c 2,16,-1
 260 335 l 2,17,18
 263 282 263 282 283 242 c 0,19,20
 292 225 292 225 305 208.5 c 128,-1,21
 318 192 318 192 336.5 179 c 128,-1,22
 355 166 355 166 381 158 c 128,-1,23
 407 150 407 150 441 150 c 2,24,-1
 559 150 l 1,25,-1
 559 0 l 1,26,-1
 344 0 l 1,27,28
 276 5 276 5 222 39 c 0,29,30
 199 54 199 54 177 76.5 c 128,-1,31
 155 99 155 99 138 132 c 128,-1,32
 121 165 121 165 110.5 209.5 c 128,-1,33
 100 254 100 254 100 313 c 2,34,-1
 100 778 l 1,35,36
 112 888 112 888 174 967 c 256,37,38
 236 1046 236 1046 332 1082 c 1,39,-1
 520 966 l 1,40,-1
 708 1082 l 1,41,42
 803 1046 803 1046 867 967 c 0,0,1
EndSplineSet
EndChar

StartChar: thothungthai
Encoding: 182 182 152
AltUni2: 000e16.ffffffff.0
Width: 1039
VWidth: 2048
Flags: W
LayerCount: 2
Fore
SplineSet
519 1080 m 1,0,1
 597 1078 597 1078 656 1060 c 128,-1,2
 715 1042 715 1042 759.5 1014.5 c 128,-1,3
 804 987 804 987 834.5 952 c 128,-1,4
 865 917 865 917 885 880 c 128,-1,5
 905 843 905 843 916 807 c 128,-1,6
 927 771 927 771 932.5 741.5 c 128,-1,7
 938 712 938 712 939 691.5 c 128,-1,8
 940 671 940 671 940 665 c 2,9,-1
 940 0 l 1,10,-1
 780 0 l 1,11,-1
 780 665 l 2,12,13
 780 729 780 729 762.5 772.5 c 128,-1,14
 745 816 745 816 718 844.5 c 128,-1,15
 691 873 691 873 658.5 888 c 128,-1,16
 626 903 626 903 597 910.5 c 128,-1,17
 568 918 568 918 546.5 919 c 128,-1,18
 525 920 525 920 519 920 c 0,19,20
 470 920 470 920 433 909 c 128,-1,21
 396 898 396 898 368.5 880 c 128,-1,22
 341 862 341 862 322.5 839 c 128,-1,23
 304 816 304 816 292 792 c 0,24,25
 264 736 264 736 260 665 c 1,26,-1
 260 150 l 1,27,-1
 359 150 l 1,28,-1
 359 0 l 1,29,-1
 100 0 l 1,30,-1
 100 822 l 1,31,32
 133 883 133 883 172 926 c 128,-1,33
 211 969 211 969 252.5 997.5 c 128,-1,34
 294 1026 294 1026 334.5 1042.5 c 128,-1,35
 375 1059 375 1059 409.5 1067.5 c 128,-1,36
 444 1076 444 1076 470 1078 c 128,-1,37
 496 1080 496 1080 509 1080 c 2,38,-1
 519 1080 l 1,39,-1
 519 1080 l 1,0,1
EndSplineSet
EndChar

StartChar: thothahanthai
Encoding: 183 183 153
AltUni2: 002219.ffffffff.0 000e17.ffffffff.0
Width: 1039
VWidth: 2048
Flags: W
LayerCount: 2
Fore
SplineSet
772 0 m 1,0,-1
 772 667 l 2,1,2
 772 730 772 730 754.5 773.5 c 128,-1,3
 737 817 737 817 710.5 845 c 128,-1,4
 684 873 684 873 652 888.5 c 128,-1,5
 620 904 620 904 591 911 c 128,-1,6
 562 918 562 918 540.5 919 c 128,-1,7
 519 920 519 920 513 920 c 0,8,9
 451 920 451 920 408 902.5 c 128,-1,10
 365 885 365 885 337 858 c 128,-1,11
 309 831 309 831 293.5 799.5 c 128,-1,12
 278 768 278 768 270.5 740 c 128,-1,13
 263 712 263 712 261.5 691.5 c 128,-1,14
 260 671 260 671 260 667 c 2,15,-1
 260 0 l 1,16,-1
 100 0 l 1,17,-1
 100 1073 l 1,18,-1
 260 1073 l 1,19,-1
 260 923 l 2,20,21
 261 952 261 952 273 974.5 c 128,-1,22
 285 997 285 997 303 1013.5 c 128,-1,23
 321 1030 321 1030 344 1041 c 128,-1,24
 367 1052 367 1052 390 1060 c 0,25,26
 445 1078 445 1078 514 1080 c 2,27,-1
 551 1080 l 2,28,29
 642 1080 642 1080 705.5 1055.5 c 128,-1,30
 769 1031 769 1031 811 992.5 c 128,-1,31
 853 954 853 954 877.5 907 c 128,-1,32
 902 860 902 860 914 815.5 c 128,-1,33
 926 771 926 771 929 734.5 c 128,-1,34
 932 698 932 698 932 680 c 2,35,-1
 932 667 l 1,36,-1
 932 0 l 1,37,-1
 772 0 l 1,0,-1
EndSplineSet
EndChar

StartChar: thothongthai
Encoding: 184 184 154
AltUni2: 000e18.ffffffff.0
Width: 877
VWidth: 2048
Flags: W
LayerCount: 2
Fore
SplineSet
560 603 m 256,0,1
 613 594 613 594 662 567.5 c 128,-1,2
 711 541 711 541 748.5 502 c 128,-1,3
 786 463 786 463 808.5 413 c 128,-1,4
 831 363 831 363 831 307 c 0,5,6
 831 224 831 224 801 163 c 128,-1,7
 771 102 771 102 719.5 62.5 c 128,-1,8
 668 23 668 23 598.5 4 c 128,-1,9
 529 -15 529 -15 451 -15 c 0,10,11
 383 -15 383 -15 327 -4.5 c 128,-1,12
 271 6 271 6 226 22 c 128,-1,13
 181 38 181 38 147.5 57 c 128,-1,14
 114 76 114 76 91 93 c 1,15,-1
 91 342 l 1,16,-1
 251 342 l 1,17,-1
 251 179 l 1,18,19
 294 160 294 160 344.5 148 c 128,-1,20
 395 136 395 136 449 136 c 0,21,22
 499 136 499 136 539.5 148.5 c 128,-1,23
 580 161 580 161 608.5 184 c 128,-1,24
 637 207 637 207 652 238 c 128,-1,25
 667 269 667 269 667 307 c 0,26,27
 667 346 667 346 654 370.5 c 128,-1,28
 641 395 641 395 623.5 409 c 128,-1,29
 606 423 606 423 588 428.5 c 128,-1,30
 570 434 570 434 560 436 c 0,31,32
 556 437 556 437 527.5 441.5 c 128,-1,33
 499 446 499 446 463 452 c 128,-1,34
 427 458 427 458 391 464 c 128,-1,35
 355 470 355 470 337 474 c 0,36,37
 325 476 325 476 303 482.5 c 128,-1,38
 281 489 281 489 254.5 501.5 c 128,-1,39
 228 514 228 514 200.5 534.5 c 128,-1,40
 173 555 173 555 150.5 586.5 c 128,-1,41
 128 618 128 618 114 661.5 c 128,-1,42
 100 705 100 705 100 763 c 0,43,44
 100 850 100 850 131 910.5 c 128,-1,45
 162 971 162 971 212 1009 c 128,-1,46
 262 1047 262 1047 325 1064 c 128,-1,47
 388 1081 388 1081 452 1081 c 0,48,49
 518 1081 518 1081 572.5 1066 c 128,-1,50
 627 1051 627 1051 667 1034 c 0,51,52
 714 1014 714 1014 751 988 c 2,53,-1
 833 932 l 1,54,-1
 744 798 l 1,55,-1
 676 842 l 2,56,57
 651 858 651 858 620 872.5 c 128,-1,58
 589 887 589 887 557.5 898 c 128,-1,59
 526 909 526 909 498 915 c 128,-1,60
 470 921 470 921 452 921 c 0,61,62
 414 921 414 921 380 914.5 c 128,-1,63
 346 908 346 908 320 890.5 c 128,-1,64
 294 873 294 873 278.5 842.5 c 128,-1,65
 263 812 263 812 263 763 c 256,66,67
 263 714 263 714 289.5 686.5 c 128,-1,68
 316 659 316 659 358.5 643.5 c 128,-1,69
 401 628 401 628 454 620 c 128,-1,70
 507 612 507 612 560 603 c 256,0,1
EndSplineSet
EndChar

StartChar: nonuthai
Encoding: 185 185 155
AltUni2: 000e19.ffffffff.0
Width: 1047
VWidth: 2048
Flags: W
LayerCount: 2
Fore
SplineSet
260 1073 m 1,0,-1
 260 406 l 2,1,2
 260 338 260 338 277.5 291.5 c 128,-1,3
 295 245 295 245 321.5 215 c 128,-1,4
 348 185 348 185 380 169 c 128,-1,5
 412 153 412 153 441 145.5 c 128,-1,6
 470 138 470 138 491.5 136.5 c 128,-1,7
 513 135 513 135 519 135 c 0,8,9
 581 135 581 135 624 154 c 128,-1,10
 667 173 667 173 695 201.5 c 128,-1,11
 723 230 723 230 738.5 264 c 128,-1,12
 754 298 754 298 761.5 328 c 128,-1,13
 769 358 769 358 770.5 380 c 128,-1,14
 772 402 772 402 772 406 c 2,15,-1
 772 1073 l 1,16,-1
 932 1073 l 1,17,-1
 932 0 l 1,18,-1
 772 0 l 1,19,-1
 772 150 l 2,20,21
 770 120 770 120 758 97.5 c 128,-1,22
 746 75 746 75 728 58 c 128,-1,23
 710 41 710 41 687.5 29 c 128,-1,24
 665 17 665 17 642 9 c 0,25,26
 587 -10 587 -10 519 -15 c 1,27,-1
 482 -15 l 2,28,29
 391 -15 391 -15 327.5 10.5 c 128,-1,30
 264 36 264 36 221.5 75 c 128,-1,31
 179 114 179 114 155 162 c 128,-1,32
 131 210 131 210 118.5 255.5 c 128,-1,33
 106 301 106 301 103 338 c 128,-1,34
 100 375 100 375 100 393 c 2,35,-1
 100 406 l 1,36,-1
 100 1073 l 1,37,-1
 260 1073 l 1,0,-1
EndSplineSet
EndChar

StartChar: bobaimaithai
Encoding: 186 186 156
AltUni2: 000e1a.ffffffff.0
Width: 1043
VWidth: 2048
Flags: W
LayerCount: 2
Fore
SplineSet
932 1074 m 1,0,-1
 932 370 l 1,1,2
 922 261 922 261 874 177 c 0,3,4
 854 141 854 141 823.5 106.5 c 128,-1,5
 793 72 793 72 749 45 c 128,-1,6
 705 18 705 18 646.5 1.5 c 128,-1,7
 588 -15 588 -15 512 -15 c 0,8,9
 435 -15 435 -15 376.5 1.5 c 128,-1,10
 318 18 318 18 274 45 c 128,-1,11
 230 72 230 72 199.5 106.5 c 128,-1,12
 169 141 169 141 149 177 c 0,13,14
 101 261 101 261 92 370 c 1,15,-1
 92 1074 l 1,16,-1
 252 1074 l 1,17,-1
 252 370 l 2,18,19
 252 326 252 326 263 292 c 128,-1,20
 274 258 274 258 292.5 233.5 c 128,-1,21
 311 209 311 209 334.5 192 c 128,-1,22
 358 175 358 175 382 164 c 0,23,24
 439 138 439 138 512 135 c 1,25,26
 585 138 585 138 642 164 c 0,27,28
 666 175 666 175 689.5 192 c 128,-1,29
 713 209 713 209 731.5 233.5 c 128,-1,30
 750 258 750 258 761 292 c 128,-1,31
 772 326 772 326 772 370 c 2,32,-1
 772 1074 l 1,33,-1
 932 1074 l 1,0,-1
EndSplineSet
EndChar

StartChar: poplathai
Encoding: 187 187 157
AltUni2: 000e1b.ffffffff.0
Width: 1036
VWidth: 2048
Flags: W
LayerCount: 2
Fore
SplineSet
932 1466 m 1,0,-1
 932 362 l 1,1,2
 922 253 922 253 874 169 c 0,3,4
 854 133 854 133 823.5 98.5 c 128,-1,5
 793 64 793 64 749 37 c 128,-1,6
 705 10 705 10 646.5 -6.5 c 128,-1,7
 588 -23 588 -23 512 -23 c 0,8,9
 435 -23 435 -23 376.5 -6.5 c 128,-1,10
 318 10 318 10 274 37 c 128,-1,11
 230 64 230 64 199.5 98.5 c 128,-1,12
 169 133 169 133 149 169 c 0,13,14
 101 253 101 253 92 362 c 1,15,-1
 92 1066 l 1,16,-1
 252 1066 l 1,17,-1
 252 362 l 2,18,19
 252 319 252 319 263 286.5 c 128,-1,20
 274 254 274 254 292.5 230 c 128,-1,21
 311 206 311 206 334.5 189.5 c 128,-1,22
 358 173 358 173 382 163 c 0,23,24
 439 138 439 138 512 135 c 1,25,26
 585 138 585 138 642 163 c 0,27,28
 666 173 666 173 689.5 189.5 c 128,-1,29
 713 206 713 206 731.5 230 c 128,-1,30
 750 254 750 254 761 286.5 c 128,-1,31
 772 319 772 319 772 362 c 2,32,-1
 772 1466 l 1,33,-1
 932 1466 l 1,0,-1
EndSplineSet
EndChar

StartChar: phophungthai
Encoding: 188 188 158
AltUni2: 000e1c.ffffffff.0
Width: 1174
VWidth: 2048
Flags: W
LayerCount: 2
Fore
SplineSet
1091 1073 m 1,0,-1
 1091 261 l 1,1,2
 1083 184 1083 184 1048 123 c 0,3,4
 1033 97 1033 97 1010.5 72.5 c 128,-1,5
 988 48 988 48 956.5 28.5 c 128,-1,6
 925 9 925 9 883 -3 c 128,-1,7
 841 -15 841 -15 787 -15 c 0,8,9
 747 -15 747 -15 712.5 -4.5 c 128,-1,10
 678 6 678 6 652.5 26.5 c 128,-1,11
 627 47 627 47 612 78 c 128,-1,12
 597 109 597 109 596 150 c 1,13,14
 595 109 595 109 580 78 c 128,-1,15
 565 47 565 47 539 26.5 c 128,-1,16
 513 6 513 6 478.5 -4.5 c 128,-1,17
 444 -15 444 -15 404 -15 c 0,18,19
 350 -15 350 -15 308 -3 c 128,-1,20
 266 9 266 9 234.5 28.5 c 128,-1,21
 203 48 203 48 181 72.5 c 128,-1,22
 159 97 159 97 144 123 c 0,23,24
 109 184 109 184 100 261 c 1,25,-1
 100 1073 l 1,26,-1
 359 1073 l 1,27,-1
 359 923 l 1,28,-1
 260 923 l 1,29,-1
 260 322 l 2,30,31
 260 252 260 252 277 214 c 128,-1,32
 294 176 294 176 317 158.5 c 128,-1,33
 340 141 340 141 363 138 c 128,-1,34
 386 135 386 135 397 135 c 2,35,-1
 404 135 l 2,36,37
 446 135 446 135 470 157 c 128,-1,38
 494 179 494 179 506.5 208 c 128,-1,39
 519 237 519 237 522 266 c 128,-1,40
 525 295 525 295 525 310 c 2,41,-1
 525 322 l 1,42,-1
 525 1073 l 1,43,-1
 667 1073 l 1,44,-1
 667 322 l 1,45,-1
 667 310 l 2,46,47
 667 295 667 295 671 266 c 128,-1,48
 675 237 675 237 688 208 c 128,-1,49
 701 179 701 179 725.5 157 c 128,-1,50
 750 135 750 135 792 135 c 2,51,-1
 800 135 l 2,52,53
 811 135 811 135 833 138 c 128,-1,54
 855 141 855 141 876.5 158.5 c 128,-1,55
 898 176 898 176 914.5 214 c 128,-1,56
 931 252 931 252 931 322 c 2,57,-1
 931 1073 l 1,58,-1
 1091 1073 l 1,0,-1
EndSplineSet
EndChar

StartChar: fofathai
Encoding: 189 189 159
AltUni2: 000e1d.ffffffff.0
Width: 1166
VWidth: 2048
Flags: W
LayerCount: 2
Fore
SplineSet
1087 1460 m 1,0,-1
 1087 261 l 1,1,2
 1079 184 1079 184 1044 123 c 0,3,4
 1029 97 1029 97 1006.5 72.5 c 128,-1,5
 984 48 984 48 952.5 28.5 c 128,-1,6
 921 9 921 9 879 -3 c 128,-1,7
 837 -15 837 -15 783 -15 c 0,8,9
 743 -15 743 -15 708.5 -4.5 c 128,-1,10
 674 6 674 6 648.5 26.5 c 128,-1,11
 623 47 623 47 608 78 c 128,-1,12
 593 109 593 109 592 150 c 1,13,14
 591 109 591 109 576 78 c 128,-1,15
 561 47 561 47 535 26.5 c 128,-1,16
 509 6 509 6 474.5 -4.5 c 128,-1,17
 440 -15 440 -15 400 -15 c 0,18,19
 346 -15 346 -15 304 -3 c 128,-1,20
 262 9 262 9 230.5 28.5 c 128,-1,21
 199 48 199 48 177 72.5 c 128,-1,22
 155 97 155 97 140 123 c 0,23,24
 105 184 105 184 96 261 c 1,25,-1
 96 1073 l 1,26,-1
 355 1073 l 1,27,-1
 355 923 l 1,28,-1
 256 923 l 1,29,-1
 256 322 l 2,30,31
 256 252 256 252 273 214 c 128,-1,32
 290 176 290 176 313 158.5 c 128,-1,33
 336 141 336 141 359 138 c 128,-1,34
 382 135 382 135 393 135 c 2,35,-1
 400 135 l 2,36,37
 442 135 442 135 466 157 c 128,-1,38
 490 179 490 179 502.5 208 c 128,-1,39
 515 237 515 237 518 266 c 128,-1,40
 521 295 521 295 521 310 c 2,41,-1
 521 322 l 1,42,-1
 521 1073 l 1,43,-1
 663 1073 l 1,44,-1
 663 322 l 1,45,-1
 663 310 l 2,46,47
 663 295 663 295 666 266 c 128,-1,48
 669 237 669 237 681 208 c 128,-1,49
 693 179 693 179 717 157 c 128,-1,50
 741 135 741 135 783 135 c 2,51,-1
 791 135 l 2,52,53
 802 135 802 135 825 138 c 128,-1,54
 848 141 848 141 870.5 158.5 c 128,-1,55
 893 176 893 176 910 214 c 128,-1,56
 927 252 927 252 927 322 c 2,57,-1
 927 1460 l 1,58,-1
 1087 1460 l 1,0,-1
EndSplineSet
EndChar

StartChar: phophanthai
Encoding: 190 190 160
AltUni2: 000e1e.ffffffff.0
Width: 1178
VWidth: 2048
Flags: W
LayerCount: 2
Fore
SplineSet
1092 1073 m 1,0,-1
 1092 261 l 1,1,2
 1084 184 1084 184 1049 123 c 0,3,4
 1034 97 1034 97 1011.5 72.5 c 128,-1,5
 989 48 989 48 957.5 28.5 c 128,-1,6
 926 9 926 9 884 -3 c 128,-1,7
 842 -15 842 -15 788 -15 c 0,8,9
 748 -15 748 -15 713.5 -4.5 c 128,-1,10
 679 6 679 6 653.5 27 c 128,-1,11
 628 48 628 48 613 79 c 128,-1,12
 598 110 598 110 597 151 c 1,13,14
 596 110 596 110 581 79 c 128,-1,15
 566 48 566 48 540 27 c 128,-1,16
 514 6 514 6 479.5 -4.5 c 128,-1,17
 445 -15 445 -15 405 -15 c 0,18,19
 351 -15 351 -15 309 -3 c 128,-1,20
 267 9 267 9 235.5 28.5 c 128,-1,21
 204 48 204 48 182 72.5 c 128,-1,22
 160 97 160 97 145 123 c 0,23,24
 110 184 110 184 101 261 c 1,25,-1
 101 1073 l 1,26,-1
 261 1073 l 1,27,-1
 261 323 l 2,28,29
 261 252 261 252 278 214 c 128,-1,30
 295 176 295 176 318 158.5 c 128,-1,31
 341 141 341 141 364 138 c 128,-1,32
 387 135 387 135 398 135 c 2,33,-1
 405 135 l 2,34,35
 447 135 447 135 471 157 c 128,-1,36
 495 179 495 179 507.5 208 c 128,-1,37
 520 237 520 237 523 266 c 128,-1,38
 526 295 526 295 526 310 c 2,39,-1
 526 323 l 1,40,-1
 526 1073 l 1,41,-1
 668 1073 l 1,42,-1
 668 323 l 1,43,-1
 668 310 l 2,44,45
 668 295 668 295 672 266 c 128,-1,46
 676 237 676 237 688.5 208 c 128,-1,47
 701 179 701 179 725.5 157 c 128,-1,48
 750 135 750 135 792 135 c 2,49,-1
 800 135 l 2,50,51
 811 135 811 135 833 138 c 128,-1,52
 855 141 855 141 877 158.5 c 128,-1,53
 899 176 899 176 915.5 214 c 128,-1,54
 932 252 932 252 932 323 c 2,55,-1
 932 1073 l 1,56,-1
 1092 1073 l 1,0,-1
EndSplineSet
EndChar

StartChar: fofanthai
Encoding: 191 191 161
AltUni2: 000e1f.ffffffff.0
Width: 1174
VWidth: 2048
Flags: W
LayerCount: 2
Fore
SplineSet
1093 1460 m 1,0,-1
 1093 261 l 1,1,2
 1085 184 1085 184 1050 123 c 0,3,4
 1035 97 1035 97 1012.5 72.5 c 128,-1,5
 990 48 990 48 958.5 28.5 c 128,-1,6
 927 9 927 9 885 -3 c 128,-1,7
 843 -15 843 -15 789 -15 c 0,8,9
 749 -15 749 -15 714.5 -4.5 c 128,-1,10
 680 6 680 6 654.5 27 c 128,-1,11
 629 48 629 48 614 79 c 128,-1,12
 599 110 599 110 598 151 c 1,13,14
 597 110 597 110 582 79 c 128,-1,15
 567 48 567 48 541 27 c 128,-1,16
 515 6 515 6 480.5 -4.5 c 128,-1,17
 446 -15 446 -15 406 -15 c 0,18,19
 352 -15 352 -15 310 -3 c 128,-1,20
 268 9 268 9 236.5 28.5 c 128,-1,21
 205 48 205 48 183 72.5 c 128,-1,22
 161 97 161 97 146 123 c 0,23,24
 111 184 111 184 102 261 c 1,25,-1
 102 1073 l 1,26,-1
 262 1073 l 1,27,-1
 262 323 l 2,28,29
 262 252 262 252 279.5 214 c 128,-1,30
 297 176 297 176 320 158.5 c 128,-1,31
 343 141 343 141 366 138 c 128,-1,32
 389 135 389 135 400 135 c 2,33,-1
 407 135 l 2,34,35
 449 135 449 135 473 157 c 128,-1,36
 497 179 497 179 509 208 c 128,-1,37
 521 237 521 237 524 266 c 128,-1,38
 527 295 527 295 527 310 c 2,39,-1
 527 323 l 1,40,-1
 527 1073 l 1,41,-1
 669 1073 l 1,42,-1
 669 323 l 1,43,-1
 669 310 l 2,44,45
 669 295 669 295 672.5 266 c 128,-1,46
 676 237 676 237 689 208 c 128,-1,47
 702 179 702 179 726 157 c 128,-1,48
 750 135 750 135 792 135 c 2,49,-1
 800 135 l 2,50,51
 811 135 811 135 833.5 138 c 128,-1,52
 856 141 856 141 878 158.5 c 128,-1,53
 900 176 900 176 916.5 214 c 128,-1,54
 933 252 933 252 933 323 c 2,55,-1
 933 1460 l 1,56,-1
 1093 1460 l 1,0,-1
EndSplineSet
EndChar

StartChar: phosamphaothai
Encoding: 192 192 162
AltUni2: 000e20.ffffffff.0
Width: 1101
VWidth: 2048
Flags: W
LayerCount: 2
Fore
SplineSet
580 1080 m 1,0,1
 684 1077 684 1077 755.5 1047 c 128,-1,2
 827 1017 827 1017 873.5 973.5 c 128,-1,3
 920 930 920 930 946 879.5 c 128,-1,4
 972 829 972 829 984 784 c 128,-1,5
 996 739 996 739 998.5 706 c 128,-1,6
 1001 673 1001 673 1001 665 c 2,7,-1
 1001 0 l 1,8,-1
 841 0 l 1,9,-1
 841 665 l 2,10,11
 841 729 841 729 823.5 772.5 c 128,-1,12
 806 816 806 816 779 844.5 c 128,-1,13
 752 873 752 873 720 888 c 128,-1,14
 688 903 688 903 659 910.5 c 128,-1,15
 630 918 630 918 608.5 919 c 128,-1,16
 587 920 587 920 581 920 c 0,17,18
 532 920 532 920 495 909 c 128,-1,19
 458 898 458 898 430.5 880 c 128,-1,20
 403 862 403 862 384 839 c 128,-1,21
 365 816 365 816 353 792 c 0,22,23
 324 736 324 736 321 665 c 2,24,-1
 321 0 l 1,25,-1
 62 0 l 1,26,-1
 62 150 l 1,27,-1
 161 150 l 1,28,-1
 161 822 l 1,29,30
 193 883 193 883 232.5 926 c 128,-1,31
 272 969 272 969 313.5 997.5 c 128,-1,32
 355 1026 355 1026 395.5 1042.5 c 128,-1,33
 436 1059 436 1059 470.5 1067.5 c 128,-1,34
 505 1076 505 1076 531 1078 c 128,-1,35
 557 1080 557 1080 570 1080 c 2,36,-1
 580 1080 l 1,37,-1
 580 1080 l 1,0,1
EndSplineSet
EndChar

StartChar: momathai
Encoding: 193 193 163
AltUni2: 000e21.ffffffff.0
Width: 1031
VWidth: 2048
Flags: W
LayerCount: 2
Fore
SplineSet
932 1073 m 1,0,-1
 932 406 l 1,1,-1
 932 393 l 2,2,3
 932 375 932 375 929 338 c 128,-1,4
 926 301 926 301 913.5 255.5 c 128,-1,5
 901 210 901 210 877 162 c 128,-1,6
 853 114 853 114 810.5 75 c 128,-1,7
 768 36 768 36 704.5 10.5 c 128,-1,8
 641 -15 641 -15 550 -15 c 2,9,-1
 513 -15 l 1,10,11
 445 -10 445 -10 390 9 c 0,12,13
 367 17 367 17 344 29 c 128,-1,14
 321 41 321 41 303 58 c 128,-1,15
 285 75 285 75 273 97.5 c 128,-1,16
 261 120 261 120 260 150 c 2,17,-1
 260 0 l 1,18,-1
 100 0 l 1,19,-1
 100 1073 l 1,20,-1
 260 1073 l 1,21,-1
 260 406 l 2,22,23
 260 402 260 402 261.5 380 c 128,-1,24
 263 358 263 358 270.5 328 c 128,-1,25
 278 298 278 298 293.5 264 c 128,-1,26
 309 230 309 230 337 201.5 c 128,-1,27
 365 173 365 173 408 154 c 128,-1,28
 451 135 451 135 513 135 c 0,29,30
 519 135 519 135 540.5 136.5 c 128,-1,31
 562 138 562 138 591 145.5 c 128,-1,32
 620 153 620 153 652 169 c 128,-1,33
 684 185 684 185 710.5 215 c 128,-1,34
 737 245 737 245 754.5 291.5 c 128,-1,35
 772 338 772 338 772 406 c 2,36,-1
 772 1073 l 1,37,-1
 932 1073 l 1,0,-1
EndSplineSet
EndChar

StartChar: yoyakthai
Encoding: 194 194 164
AltUni2: 000e22.ffffffff.0
Width: 1031
VWidth: 2048
Flags: W
LayerCount: 2
Fore
SplineSet
913 1073 m 1,0,-1
 913 301 l 2,1,2
 913 233 913 233 893 184 c 128,-1,3
 873 135 873 135 842 101.5 c 128,-1,4
 811 68 811 68 773 48 c 128,-1,5
 735 28 735 28 700 17.5 c 128,-1,6
 665 7 665 7 637 3.5 c 128,-1,7
 609 0 609 0 597 0 c 2,8,-1
 397 0 l 2,9,10
 318 0 318 0 262 16.5 c 128,-1,11
 206 33 206 33 168 59.5 c 128,-1,12
 130 86 130 86 107.5 118.5 c 128,-1,13
 85 151 85 151 73.5 183 c 128,-1,14
 62 215 62 215 58.5 243 c 128,-1,15
 55 271 55 271 55 288 c 0,16,17
 55 352 55 352 78 395 c 128,-1,18
 101 438 101 438 130.5 465 c 128,-1,19
 160 492 160 492 186 505 c 128,-1,20
 212 518 212 518 218 520 c 1,21,22
 186 526 186 526 161.5 539.5 c 128,-1,23
 137 553 137 553 119 571.5 c 128,-1,24
 101 590 101 590 88.5 611 c 128,-1,25
 76 632 76 632 67 653 c 0,26,27
 47 702 47 702 43 762 c 0,28,29
 43 820 43 820 54 864.5 c 128,-1,30
 65 909 65 909 83.5 942 c 128,-1,31
 102 975 102 975 125.5 997.5 c 128,-1,32
 149 1020 149 1020 174 1035 c 0,33,34
 232 1069 232 1069 306 1073 c 1,35,-1
 520 1073 l 1,36,-1
 520 923 l 1,37,-1
 392 923 l 2,38,39
 356 923 356 923 329 916 c 128,-1,40
 302 909 302 909 282.5 897.5 c 128,-1,41
 263 886 263 886 249.5 871.5 c 128,-1,42
 236 857 236 857 227 842 c 0,43,44
 207 807 207 807 204 762 c 0,45,46
 204 722 204 722 217 694.5 c 128,-1,47
 230 667 230 667 250 649 c 128,-1,48
 270 631 270 631 293.5 621 c 128,-1,49
 317 611 317 611 338 606.5 c 128,-1,50
 359 602 359 602 374 601 c 128,-1,51
 389 600 389 600 392 600 c 2,52,-1
 520 600 l 1,53,-1
 520 450 l 1,54,-1
 392 450 l 2,55,56
 350 450 350 450 320.5 440.5 c 128,-1,57
 291 431 291 431 272 417 c 128,-1,58
 253 403 253 403 242.5 386 c 128,-1,59
 232 369 232 369 227 353 c 128,-1,60
 222 337 222 337 221 325.5 c 128,-1,61
 220 314 220 314 220 310 c 0,62,63
 220 270 220 270 231 242.5 c 128,-1,64
 242 215 242 215 259 197.5 c 128,-1,65
 276 180 276 180 297 170 c 128,-1,66
 318 160 318 160 337 155.5 c 128,-1,67
 356 151 356 151 371.5 150.5 c 128,-1,68
 387 150 387 150 393 150 c 2,69,-1
 397 150 l 1,70,-1
 590 150 l 2,71,72
 647 150 647 150 679 173 c 128,-1,73
 711 196 711 196 728 225 c 0,74,75
 747 258 747 258 753 301 c 1,76,-1
 753 1073 l 1,77,-1
 913 1073 l 1,0,-1
EndSplineSet
EndChar

StartChar: roruathai
Encoding: 195 195 165
AltUni2: 000e23.ffffffff.0
Width: 850
VWidth: 2048
Flags: W
LayerCount: 2
Fore
SplineSet
705 797 m 1,0,-1
 637 841 l 2,1,2
 612 857 612 857 581 871.5 c 128,-1,3
 550 886 550 886 518.5 897 c 128,-1,4
 487 908 487 908 459 914 c 128,-1,5
 431 920 431 920 413 920 c 0,6,7
 375 920 375 920 341 913.5 c 128,-1,8
 307 907 307 907 281 889.5 c 128,-1,9
 255 872 255 872 239.5 841.5 c 128,-1,10
 224 811 224 811 224 762 c 256,11,12
 224 713 224 713 250.5 685.5 c 128,-1,13
 277 658 277 658 319.5 642.5 c 128,-1,14
 362 627 362 627 415 619 c 128,-1,15
 468 611 468 611 521 602 c 256,16,17
 574 593 574 593 623 566.5 c 128,-1,18
 672 540 672 540 709.5 501 c 128,-1,19
 747 462 747 462 769.5 412 c 128,-1,20
 792 362 792 362 792 306 c 0,21,22
 792 223 792 223 762 162 c 128,-1,23
 732 101 732 101 680.5 61.5 c 128,-1,24
 629 22 629 22 559.5 3 c 128,-1,25
 490 -16 490 -16 412 -16 c 0,26,27
 302 -16 302 -16 224.5 8.5 c 128,-1,28
 147 33 147 33 96 63 c 0,29,30
 37 97 37 97 -2 142 c 1,31,-1
 104 246 l 1,32,33
 123 227 123 227 155 207 c 128,-1,34
 187 187 187 187 227.5 171 c 128,-1,35
 268 155 268 155 314.5 145 c 128,-1,36
 361 135 361 135 410 135 c 0,37,38
 460 135 460 135 500.5 147.5 c 128,-1,39
 541 160 541 160 569.5 183 c 128,-1,40
 598 206 598 206 613 237 c 128,-1,41
 628 268 628 268 628 306 c 0,42,43
 628 345 628 345 615 369.5 c 128,-1,44
 602 394 602 394 584.5 408 c 128,-1,45
 567 422 567 422 549 427.5 c 128,-1,46
 531 433 531 433 521 435 c 0,47,48
 517 436 517 436 488.5 440.5 c 128,-1,49
 460 445 460 445 424 451 c 128,-1,50
 388 457 388 457 352 463 c 128,-1,51
 316 469 316 469 298 473 c 0,52,53
 286 475 286 475 264 481.5 c 128,-1,54
 242 488 242 488 215.5 500.5 c 128,-1,55
 189 513 189 513 161.5 533.5 c 128,-1,56
 134 554 134 554 111.5 585.5 c 128,-1,57
 89 617 89 617 75 660.5 c 128,-1,58
 61 704 61 704 61 762 c 0,59,60
 61 849 61 849 92 909.5 c 128,-1,61
 123 970 123 970 173 1008 c 128,-1,62
 223 1046 223 1046 286 1063 c 128,-1,63
 349 1080 349 1080 413 1080 c 0,64,65
 479 1080 479 1080 533.5 1065 c 128,-1,66
 588 1050 588 1050 628 1033 c 0,67,68
 675 1013 675 1013 712 987 c 2,69,-1
 794 931 l 1,70,-1
 705 797 l 1,0,-1
EndSplineSet
EndChar

StartChar: ruthai
Encoding: 196 196 166
AltUni2: 000e24.ffffffff.0
Width: 1047
VWidth: 2048
Flags: W
LayerCount: 2
Fore
SplineSet
519 1080 m 1,0,1
 597 1078 597 1078 656 1060 c 128,-1,2
 715 1042 715 1042 759.5 1014.5 c 128,-1,3
 804 987 804 987 834.5 952 c 128,-1,4
 865 917 865 917 885 880 c 128,-1,5
 905 843 905 843 916 807 c 128,-1,6
 927 771 927 771 932.5 741.5 c 128,-1,7
 938 712 938 712 939 691.5 c 128,-1,8
 940 671 940 671 940 665 c 2,9,-1
 940 -470 l 1,10,-1
 780 -470 l 1,11,-1
 780 665 l 2,12,13
 780 729 780 729 762.5 772.5 c 128,-1,14
 745 816 745 816 718 844.5 c 128,-1,15
 691 873 691 873 658.5 888 c 128,-1,16
 626 903 626 903 597 910.5 c 128,-1,17
 568 918 568 918 546.5 919 c 128,-1,18
 525 920 525 920 519 920 c 0,19,20
 470 920 470 920 433 909 c 128,-1,21
 396 898 396 898 368.5 880 c 128,-1,22
 341 862 341 862 322.5 839 c 128,-1,23
 304 816 304 816 292 792 c 0,24,25
 264 736 264 736 260 665 c 1,26,-1
 260 150 l 1,27,-1
 359 150 l 1,28,-1
 359 0 l 1,29,-1
 100 0 l 1,30,-1
 100 822 l 1,31,32
 133 883 133 883 172 926 c 128,-1,33
 211 969 211 969 252.5 997.5 c 128,-1,34
 294 1026 294 1026 334.5 1042.5 c 128,-1,35
 375 1059 375 1059 409.5 1067.5 c 128,-1,36
 444 1076 444 1076 470 1078 c 128,-1,37
 496 1080 496 1080 509 1080 c 2,38,-1
 519 1080 l 1,39,-1
 519 1080 l 1,0,1
EndSplineSet
EndChar

StartChar: lolingthai
Encoding: 197 197 167
AltUni2: 000e25.ffffffff.0
Width: 966
VWidth: 2048
Flags: W
LayerCount: 2
Fore
SplineSet
473 1080 m 1,0,1
 573 1080 573 1080 643.5 1053.5 c 128,-1,2
 714 1027 714 1027 760.5 986 c 128,-1,3
 807 945 807 945 833.5 896 c 128,-1,4
 860 847 860 847 873.5 800.5 c 128,-1,5
 887 754 887 754 890 717 c 128,-1,6
 893 680 893 680 893 664 c 2,7,-1
 893 654 l 1,8,-1
 893 0 l 1,9,-1
 733 0 l 1,10,-1
 733 316 l 2,11,12
 733 362 733 362 712 393.5 c 128,-1,13
 691 425 691 425 659.5 445.5 c 128,-1,14
 628 466 628 466 591.5 477.5 c 128,-1,15
 555 489 555 489 523.5 494.5 c 128,-1,16
 492 500 492 500 471 501 c 128,-1,17
 450 502 450 502 450 502 c 2,18,19
 447 502 447 502 430.5 501 c 128,-1,20
 414 500 414 500 389.5 494.5 c 128,-1,21
 365 489 365 489 337 478.5 c 128,-1,22
 309 468 309 468 283.5 448 c 128,-1,23
 258 428 258 428 237.5 397.5 c 128,-1,24
 217 367 217 367 209 323 c 0,25,26
 206 309 206 309 206 297 c 0,27,28
 206 263 206 263 223 239 c 128,-1,29
 240 215 240 215 266 199 c 128,-1,30
 292 183 292 183 324.5 173 c 128,-1,31
 357 163 357 163 388.5 158 c 128,-1,32
 420 153 420 153 446 151.5 c 128,-1,33
 472 150 472 150 487 150 c 2,34,-1
 501 150 l 1,35,-1
 501 0 l 1,36,-1
 321 0 l 2,37,38
 265 0 265 0 215.5 24 c 128,-1,39
 166 48 166 48 129 89.5 c 128,-1,40
 92 131 92 131 71 185.5 c 128,-1,41
 50 240 50 240 50 300 c 0,42,43
 50 359 50 359 76.5 420 c 128,-1,44
 103 481 103 481 165 538 c 0,45,46
 202 572 202 572 241 595.5 c 128,-1,47
 280 619 280 619 319 632.5 c 128,-1,48
 358 646 358 646 396 652 c 128,-1,49
 434 658 434 658 470 658 c 0,50,51
 525 658 525 658 573.5 647.5 c 128,-1,52
 622 637 622 637 657 625 c 0,53,54
 698 610 698 610 733 592 c 1,55,-1
 733 654 l 2,56,57
 733 704 733 704 722 742 c 128,-1,58
 711 780 711 780 692.5 808 c 128,-1,59
 674 836 674 836 650.5 855.5 c 128,-1,60
 627 875 627 875 603 887 c 0,61,62
 546 916 546 916 473 920 c 0,63,64
 408 920 408 920 363 897 c 128,-1,65
 318 874 318 874 289 840.5 c 128,-1,66
 260 807 260 807 244.5 770.5 c 128,-1,67
 229 734 229 734 222 707 c 1,68,-1
 54 707 l 1,69,70
 60 796 60 796 88.5 858 c 128,-1,71
 117 920 117 920 157.5 961.5 c 128,-1,72
 198 1003 198 1003 245 1027 c 128,-1,73
 292 1051 292 1051 335.5 1062.5 c 128,-1,74
 379 1074 379 1074 413.5 1077 c 128,-1,75
 448 1080 448 1080 463 1080 c 2,76,-1
 473 1080 l 1,77,-1
 473 1080 l 1,0,1
EndSplineSet
EndChar

StartChar: luthai
Encoding: 198 198 168
AltUni2: 000e26.ffffffff.0
Width: 1128
VWidth: 2048
Flags: W
LayerCount: 2
Fore
SplineSet
553 1080 m 1,0,1
 657 1077 657 1077 728.5 1047 c 128,-1,2
 800 1017 800 1017 846.5 973.5 c 128,-1,3
 893 930 893 930 919 879.5 c 128,-1,4
 945 829 945 829 957 784 c 128,-1,5
 969 739 969 739 971.5 706 c 128,-1,6
 974 673 974 673 974 665 c 2,7,-1
 974 -470 l 1,8,-1
 814 -470 l 1,9,-1
 814 665 l 2,10,11
 814 729 814 729 796.5 772.5 c 128,-1,12
 779 816 779 816 752 844.5 c 128,-1,13
 725 873 725 873 692.5 888 c 128,-1,14
 660 903 660 903 631 910.5 c 128,-1,15
 602 918 602 918 580.5 919 c 128,-1,16
 559 920 559 920 553 920 c 0,17,18
 504 920 504 920 467 909 c 128,-1,19
 430 898 430 898 402.5 880 c 128,-1,20
 375 862 375 862 356.5 839 c 128,-1,21
 338 816 338 816 326 792 c 0,22,23
 298 736 298 736 294 665 c 1,24,-1
 294 0 l 1,25,-1
 35 0 l 1,26,-1
 35 150 l 1,27,-1
 134 150 l 1,28,-1
 134 822 l 1,29,30
 166 883 166 883 205.5 926 c 128,-1,31
 245 969 245 969 286.5 997.5 c 128,-1,32
 328 1026 328 1026 368.5 1042.5 c 128,-1,33
 409 1059 409 1059 443.5 1067.5 c 128,-1,34
 478 1076 478 1076 504 1078 c 128,-1,35
 530 1080 530 1080 543 1080 c 2,36,-1
 553 1080 l 1,37,-1
 553 1080 l 1,0,1
EndSplineSet
EndChar

StartChar: wowaenthai
Encoding: 199 199 169
AltUni2: 000e27.ffffffff.0
Width: 866
VWidth: 2048
Flags: W
LayerCount: 2
Fore
SplineSet
427 1080 m 2,0,1
 439 1080 439 1080 470 1077 c 128,-1,2
 501 1074 501 1074 540 1062 c 128,-1,3
 579 1050 579 1050 621.5 1026 c 128,-1,4
 664 1002 664 1002 699 960.5 c 128,-1,5
 734 919 734 919 757 856.5 c 128,-1,6
 780 794 780 794 780 706 c 2,7,-1
 780 350 l 1,8,9
 775 247 775 247 735 167 c 0,10,11
 718 133 718 133 692 100 c 128,-1,12
 666 67 666 67 628 41.5 c 128,-1,13
 590 16 590 16 538.5 0.5 c 128,-1,14
 487 -15 487 -15 420 -15 c 0,15,16
 351 -15 351 -15 299 1.5 c 128,-1,17
 247 18 247 18 208.5 44.5 c 128,-1,18
 170 71 170 71 144 105 c 128,-1,19
 118 139 118 139 102 174 c 1,20,21
 111 180 111 180 129 190.5 c 128,-1,22
 147 201 147 201 167 213 c 128,-1,23
 187 225 187 225 205.5 235.5 c 128,-1,24
 224 246 224 246 234 251 c 1,25,26
 251 207 251 207 282 183.5 c 128,-1,27
 313 160 313 160 344 149 c 0,28,29
 380 136 380 136 420 135 c 1,30,31
 476 142 476 142 520 168 c 0,32,33
 539 179 539 179 557 195 c 128,-1,34
 575 211 575 211 589 233 c 128,-1,35
 603 255 603 255 611.5 284 c 128,-1,36
 620 313 620 313 620 351 c 2,37,-1
 620 706 l 1,38,39
 615 765 615 765 593 813 c 0,40,41
 583 833 583 833 568.5 852 c 128,-1,42
 554 871 554 871 533.5 886 c 128,-1,43
 513 901 513 901 485 910.5 c 128,-1,44
 457 920 457 920 420 920 c 0,45,46
 369 920 369 920 331.5 910.5 c 128,-1,47
 294 901 294 901 267 881 c 128,-1,48
 240 861 240 861 220 829 c 128,-1,49
 200 797 200 797 183 752 c 1,50,-1
 21 752 l 1,51,52
 29 825 29 825 55.5 885.5 c 128,-1,53
 82 946 82 946 130.5 989 c 128,-1,54
 179 1032 179 1032 250.5 1056 c 128,-1,55
 322 1080 322 1080 420 1080 c 2,56,-1
 423 1080 l 1,57,-1
 427 1080 l 2,0,1
EndSplineSet
EndChar

StartChar: sosalathai
Encoding: 200 200 170
AltUni2: 000e28.ffffffff.0
Width: 1058
VWidth: 2048
Flags: W
LayerCount: 2
Fore
SplineSet
992 1088 m 0,0,1
 992 1080 992 1080 974 1059 c 128,-1,2
 956 1038 956 1038 931.5 1014.5 c 128,-1,3
 907 991 907 991 882 971 c 128,-1,4
 857 951 857 951 843 946 c 1,5,6
 876 906 876 906 895 862 c 128,-1,7
 914 818 914 818 923 779 c 128,-1,8
 932 740 932 740 934.5 709 c 128,-1,9
 937 678 937 678 937 664 c 2,10,-1
 937 654 l 1,11,-1
 937 0 l 1,12,-1
 777 0 l 1,13,-1
 777 654 l 2,14,15
 777 704 777 704 766 742 c 128,-1,16
 755 780 755 780 736.5 808 c 128,-1,17
 718 836 718 836 694.5 855.5 c 128,-1,18
 671 875 671 875 647 887 c 0,19,20
 590 916 590 916 517 920 c 0,21,22
 470 920 470 920 434.5 908.5 c 128,-1,23
 399 897 399 897 372 878 c 128,-1,24
 345 859 345 859 326 835.5 c 128,-1,25
 307 812 307 812 294 787 c 0,26,27
 264 728 264 728 257 654 c 1,28,-1
 257 546 l 1,29,30
 303 572 303 572 354.5 586 c 128,-1,31
 406 600 406 600 463 600 c 0,32,33
 514 600 514 600 560 589 c 1,34,-1
 560 423 l 1,35,36
 540 433 540 433 515.5 434.5 c 128,-1,37
 491 436 491 436 463 436 c 0,38,39
 389 436 389 436 334 400 c 0,40,41
 306 382 306 382 287.5 355.5 c 128,-1,42
 269 329 269 329 257 296 c 1,43,-1
 257 0 l 1,44,-1
 97 0 l 1,45,-1
 97 665 l 2,46,47
 97 764 97 764 123 833.5 c 128,-1,48
 149 903 149 903 189.5 949 c 128,-1,49
 230 995 230 995 278.5 1021.5 c 128,-1,50
 327 1048 327 1048 372.5 1061 c 128,-1,51
 418 1074 418 1074 454.5 1077 c 128,-1,52
 491 1080 491 1080 507 1080 c 2,53,-1
 517 1080 l 2,54,55
 562 1080 562 1080 599.5 1075 c 128,-1,56
 637 1070 637 1070 670 1060 c 0,57,58
 672 1060 672 1060 696.5 1064.5 c 128,-1,59
 721 1069 721 1069 753.5 1084 c 128,-1,60
 786 1099 786 1099 820.5 1126.5 c 128,-1,61
 855 1154 855 1154 877 1200 c 1,62,63
 906 1172 906 1172 930 1148 c 0,64,65
 940 1138 940 1138 950 1128 c 128,-1,66
 960 1118 960 1118 968.5 1109.5 c 128,-1,67
 977 1101 977 1101 983.5 1095.5 c 128,-1,68
 990 1090 990 1090 992 1088 c 0,0,1
EndSplineSet
EndChar

StartChar: sorusithai
Encoding: 201 201 171
AltUni2: 000e29.ffffffff.0
Width: 1093
VWidth: 2048
Flags: W
LayerCount: 2
Fore
SplineSet
1020 545 m 1,0,-1
 920 545 l 1,1,-1
 920 370 l 1,2,3
 910 261 910 261 862 177 c 0,4,5
 842 141 842 141 811.5 106.5 c 128,-1,6
 781 72 781 72 737 45 c 128,-1,7
 693 18 693 18 634.5 1.5 c 128,-1,8
 576 -15 576 -15 500 -15 c 0,9,10
 423 -15 423 -15 364.5 1.5 c 128,-1,11
 306 18 306 18 262 45 c 128,-1,12
 218 72 218 72 187.5 106.5 c 128,-1,13
 157 141 157 141 137 177 c 0,14,15
 89 261 89 261 80 370 c 1,16,-1
 80 1089 l 1,17,-1
 240 1089 l 1,18,-1
 240 370 l 2,19,20
 240 326 240 326 251 292 c 128,-1,21
 262 258 262 258 280.5 233.5 c 128,-1,22
 299 209 299 209 322.5 192 c 128,-1,23
 346 175 346 175 370 164 c 0,24,25
 427 138 427 138 500 135 c 1,26,27
 573 138 573 138 630 164 c 0,28,29
 654 175 654 175 677.5 192 c 128,-1,30
 701 209 701 209 719.5 233.5 c 128,-1,31
 738 258 738 258 749 292 c 128,-1,32
 760 326 760 326 760 370 c 2,33,-1
 760 545 l 1,34,-1
 572 545 l 2,35,36
 546 545 546 545 532 555.5 c 128,-1,37
 518 566 518 566 511 580 c 0,38,39
 503 596 503 596 501 616 c 2,40,-1
 501 775 l 1,41,-1
 651 775 l 1,42,-1
 651 695 l 1,43,-1
 760 695 l 1,44,-1
 760 1089 l 1,45,-1
 920 1089 l 1,46,-1
 920 695 l 1,47,-1
 1020 695 l 1,48,-1
 1020 545 l 1,0,-1
EndSplineSet
EndChar

